<svg width="19" height="26" viewBox="0 0 19 26" fill="none" xmlns="http://www.w3.org/2000/svg">
<path d="M0.788818 18.272H7.90674V24.502C7.90663 24.6838 7.85003 24.861 7.74467 25.0096C7.63931 25.1582 7.49033 25.2708 7.31806 25.3322C7.1458 25.3936 6.95865 25.4007 6.78217 25.3525C6.6057 25.3044 6.4485 25.2033 6.33204 25.0631L0.788818 18.272Z" fill="#11C170"/>
<path d="M0.788818 0.615723H18.5725V7.67794H7.90198V11.2098H3.66837L0.788818 7.67794V0.615723Z" fill="#11C170"/>
<path d="M7.01303 14.7939C7.24894 14.7934 7.47504 14.7001 7.64171 14.5343C7.80837 14.3686 7.90198 14.1439 7.90198 13.9097V11.21H18.5725V18.2722H0.793579V11.21H3.66837L6.32727 14.4787C6.41131 14.5779 6.5163 14.6576 6.63481 14.7121C6.75331 14.7665 6.88244 14.7945 7.01303 14.7939Z" fill="#11C170"/>
</svg>
