<svg width="72" height="72" viewBox="0 0 72 72" fill="none" xmlns="http://www.w3.org/2000/svg">
<rect width="72" height="72" rx="36" fill="#1C2B1D"/>
<path d="M55.8055 42.2802C55.7078 41.7227 55.4477 41.2065 55.0579 40.7962C54.6681 40.386 54.1658 40.0998 53.6141 39.9738C52.9148 39.7973 52.1753 39.8789 51.5313 40.2038C51.528 40.1421 51.528 40.0802 51.5313 40.0185C51.7326 38.7037 51.7326 37.3658 51.5313 36.051C51.4122 35.2477 51.2219 34.4567 50.9627 33.6871C50.9062 33.4996 50.7822 33.3396 50.6146 33.2382C50.4471 33.1367 50.2479 33.1009 50.0555 33.1377C49.8777 33.169 49.7165 33.2615 49.5998 33.3992C49.4832 33.5369 49.4183 33.7111 49.4166 33.8916C49.4337 34.0571 49.4702 34.22 49.5252 34.3771C50.2839 36.7236 50.2996 39.2472 49.5699 41.6029C49.5292 41.7781 49.4355 41.9365 49.3016 42.0566L43.328 47.3402C42.9609 47.6854 42.5429 47.972 42.0885 48.1899C42.2674 46.4457 41.7116 45.4363 40.1719 44.6888C38.6321 43.9413 36.8944 43.1299 35.2588 42.3377C33.9982 41.6922 32.6145 41.323 31.1999 41.2547C29.7853 41.1864 28.3724 41.4206 27.0555 41.9416C26.7744 42.0502 26.6849 41.9927 26.6083 41.7179C25.3305 37.2138 26.1994 33.1952 29.4002 29.7643C31.1508 27.8924 33.0291 26.1227 34.8371 24.3018C34.9023 24.233 34.982 24.1795 35.0704 24.1452C35.1588 24.111 35.2537 24.0968 35.3483 24.1038C37.1563 24.1038 38.9708 24.1038 40.7788 24.1038C40.8855 24.1009 40.9915 24.1211 41.0896 24.163C41.1878 24.2049 41.2757 24.2675 41.3474 24.3466C42.753 25.7777 44.1585 27.1385 45.5833 28.5313C45.6758 28.6389 45.7785 28.7373 45.8899 28.8252C46.0161 28.9082 46.1638 28.9524 46.3148 28.9524C46.4658 28.9524 46.6135 28.9082 46.7396 28.8252C46.8627 28.7535 46.9624 28.6479 47.027 28.521C47.0916 28.3941 47.1183 28.2513 47.1038 28.1096C47.0893 27.9848 47.0502 27.864 46.9888 27.7544C46.9274 27.6447 46.8449 27.5483 46.746 27.4707C45.3916 26.1291 44.0435 24.7682 42.6827 23.4329C42.5989 23.3676 42.54 23.2757 42.5156 23.1723C42.4912 23.0689 42.5028 22.9602 42.5485 22.8643C43.0554 21.4673 43.5473 20.0617 44.0244 18.6477C44.1357 18.3514 44.1427 18.026 44.0444 17.7251C43.946 17.4243 43.7481 17.1659 43.4833 16.9926C43.2184 16.8192 42.9024 16.7413 42.5874 16.7715C42.2723 16.8018 41.9769 16.9385 41.7499 17.1591C41.6174 17.3144 41.4288 17.411 41.2253 17.4277C41.0218 17.4445 40.82 17.38 40.6638 17.2485C40.0698 16.7123 39.3409 16.3478 38.5555 16.1943H37.6227C36.8395 16.3455 36.1152 16.7155 35.5335 17.2613C35.3805 17.3963 35.1808 17.4665 34.9769 17.457C34.773 17.4474 34.5808 17.3589 34.441 17.2102C34.2067 16.9843 33.9026 16.8446 33.5785 16.8141C33.3397 16.7902 33.0989 16.8291 32.8797 16.9268C32.6605 17.0245 32.4705 17.1776 32.3286 17.3712C32.1867 17.5647 32.0977 17.7919 32.0704 18.0303C32.0431 18.2687 32.0785 18.5101 32.173 18.7307C32.6458 20.1363 33.1377 21.5227 33.6424 22.9154C33.6943 23.0148 33.7087 23.1296 33.6829 23.2387C33.6571 23.3478 33.5928 23.444 33.5019 23.5096C31.7896 25.2091 30.0455 26.8766 28.3908 28.6207C24.8577 32.3518 23.778 36.7474 25.0046 41.7179C25.0749 42.0246 25.3624 42.3568 25.1963 42.6124C25.0302 42.8679 24.6213 42.8488 24.3274 42.9766C24.2552 43.0165 24.1708 43.0282 24.0905 43.0093C24.0102 42.9904 23.9398 42.9423 23.893 42.8743C23.6978 42.6603 23.4599 42.4895 23.1948 42.3728C22.9296 42.2562 22.6429 42.1963 22.3533 42.1971C21.0052 42.1971 19.6635 42.1971 18.3155 42.1971C17.926 42.1973 17.5441 42.3047 17.2117 42.5076C16.8792 42.7104 16.6091 43.0009 16.4308 43.3471C16.3255 43.5539 16.2337 43.7673 16.156 43.986V54.0102C16.2055 54.3004 16.2959 54.5822 16.4244 54.8471C16.6321 55.1623 16.9176 55.4185 17.2534 55.5909C17.5892 55.7632 17.9639 55.846 18.341 55.831H39.3158C39.7298 55.8354 40.1438 55.814 40.5552 55.7671C42.3269 55.5293 44.0241 54.9032 45.5258 53.9335C46.5799 53.2126 47.5543 52.3816 48.4327 51.4546C50.5623 49.3931 52.6813 47.3359 54.7896 45.2829C55.377 44.8046 55.7569 44.118 55.8502 43.3663V42.3888C55.8324 42.3538 55.8174 42.3175 55.8055 42.2802ZM36.8177 18.1877C37.1856 17.8643 37.6634 17.694 38.1529 17.7118C38.6424 17.7296 39.1065 17.9342 39.4499 18.2835C39.7561 18.5828 40.1368 18.7946 40.5525 18.8968C40.9683 18.999 41.4038 18.988 41.8138 18.8649C42.0097 18.8042 42.2017 18.7316 42.3888 18.6477C41.9544 19.9254 41.5263 21.1266 41.111 22.3341C41.0599 22.4874 40.996 22.5641 40.8172 22.5641H35.361C35.2588 22.5641 35.163 22.5641 35.1119 22.4363C34.6838 21.1904 34.243 19.9446 33.783 18.6477C34.2687 18.9163 34.8297 19.0169 35.3786 18.9337C35.9274 18.8505 36.4334 18.5882 36.8177 18.1877ZM22.973 53.3266C22.973 53.9654 22.7494 54.2146 22.1041 54.2146H18.571C17.9321 54.2146 17.6958 53.991 17.6958 53.3649V44.5674C17.6958 43.9285 17.9258 43.7177 18.5327 43.7177H22.1424C22.743 43.7177 22.973 43.9541 22.973 44.5674V53.3266ZM53.8888 43.8135C51.1352 46.4649 48.471 49.2057 45.628 51.7549C43.8111 53.3701 41.4593 54.2535 39.0283 54.2338C36.7091 54.2721 34.3771 54.2338 32.058 54.2338H24.781C24.4871 54.2338 24.3913 54.1891 24.4871 53.8824C24.5289 53.7068 24.5418 53.5255 24.5255 53.3457C24.5255 50.5346 24.5255 47.7235 24.5255 44.9124C24.5146 44.8494 24.5164 44.7848 24.5308 44.7225C24.5452 44.6602 24.572 44.6014 24.6095 44.5496C24.647 44.4978 24.6945 44.454 24.7492 44.4209C24.8039 44.3877 24.8647 44.3659 24.928 44.3566C26.2633 43.9221 27.5346 43.3088 28.9083 42.9957C30.643 42.577 32.4683 42.7548 34.0896 43.5004C36.0063 44.3629 37.8591 45.2829 39.7374 46.1902C40.0873 46.33 40.3674 46.603 40.5159 46.9493C40.6645 47.2956 40.6694 47.6867 40.5296 48.0366C40.3899 48.3865 40.1168 48.6665 39.7705 48.8151C39.4243 48.9636 39.0332 48.9686 38.6833 48.8288C36.3385 48.0941 34.0002 47.3466 31.6555 46.6054C31.0166 46.3946 30.4799 46.6949 30.4799 47.2827C30.4707 47.4526 30.5212 47.6204 30.6227 47.7569C30.7243 47.8934 30.8704 47.9901 31.0358 48.0302C33.5083 48.816 35.9744 49.6402 38.4788 50.3621C39.6137 50.5961 40.7934 50.4688 41.8521 49.9979C42.7572 49.6772 43.5906 49.1823 44.3055 48.5413C46.8184 46.3179 49.3271 44.0925 51.8316 41.8649C52.0425 41.6521 52.3137 41.5091 52.6085 41.4554C52.9033 41.4017 53.2075 41.4398 53.4799 41.5646C53.7325 41.6844 53.9438 41.8764 54.0871 42.1164C54.2304 42.3564 54.2992 42.6335 54.2849 42.9127C54.2817 43.0815 54.2451 43.2481 54.1771 43.4027C54.1091 43.5574 54.0111 43.697 53.8888 43.8135Z" fill="#11C170"/>
<path d="M47.8513 30.7929C47.8513 30.6903 47.8717 30.5888 47.9114 30.4941C47.951 30.3995 48.0091 30.3137 48.0822 30.2417C48.1554 30.1698 48.2421 30.1131 48.3374 30.075C48.4327 30.0369 48.5346 30.0182 48.6372 30.0199C48.7387 30.0224 48.8387 30.0449 48.9315 30.0861C49.0244 30.1272 49.1082 30.1863 49.1782 30.2599C49.2482 30.3334 49.303 30.4201 49.3395 30.5148C49.3761 30.6096 49.3936 30.7106 49.391 30.8121C49.3885 30.9136 49.366 31.0137 49.3249 31.1065C49.2837 31.1993 49.2246 31.2831 49.1511 31.3531C49.0775 31.4231 48.9909 31.478 48.8961 31.5145C48.8014 31.551 48.7003 31.5685 48.5988 31.566C48.3983 31.5594 48.2081 31.475 48.0686 31.3307C47.9291 31.1865 47.8512 30.9936 47.8513 30.7929Z" fill="#11C170"/>
<path d="M42.6124 34.473H43.9733C44.0316 34.4811 44.091 34.4776 44.1479 34.4627C44.2049 34.4478 44.2584 34.4218 44.3053 34.3862C44.3522 34.3506 44.3916 34.3061 44.4212 34.2552C44.4509 34.2043 44.4702 34.1481 44.478 34.0897V33.9044C44.4451 33.7872 44.3704 33.686 44.268 33.6201C44.1655 33.5542 44.0425 33.528 43.9222 33.5466H42.5166C42.4272 33.5466 42.3952 33.5466 42.3952 33.4252C42.3952 32.7864 42.3952 32.09 42.3952 31.4255C42.3994 31.2688 42.3844 31.1122 42.3505 30.9591C42.3272 30.817 42.2525 30.6884 42.1406 30.5977C42.0287 30.507 41.8874 30.4606 41.7436 30.4672C41.6049 30.4485 41.4641 30.481 41.3477 30.5586C41.2313 30.6362 41.1471 30.7536 41.1111 30.8889C41.0615 31.0611 41.04 31.2401 41.0472 31.4191C41.0472 32.058 41.0472 32.7544 41.0472 33.4189C41.0472 33.4955 41.0472 33.5339 40.9513 33.5339H38.0827C38.0489 33.5422 38.0131 33.5377 37.9824 33.5211C37.9517 33.5046 37.9283 33.4773 37.9166 33.4444L37.5013 32.8055C37.0797 32.1666 36.6644 31.5277 36.2236 30.8889C36.1304 30.7319 35.992 30.6067 35.8265 30.5296C35.661 30.4526 35.4761 30.4272 35.296 30.4569C35.1159 30.4866 34.9489 30.5699 34.8169 30.696C34.6849 30.822 34.594 30.985 34.5561 31.1636C34.5301 31.3413 34.5173 31.5207 34.5177 31.7002C34.5177 32.2625 34.5177 32.8311 34.5177 33.4061C34.5177 33.5019 34.5177 33.5211 34.3963 33.5211H32.9525C32.8568 33.519 32.7629 33.5476 32.6847 33.6028C32.6065 33.658 32.5481 33.7369 32.518 33.8277C32.4947 33.8965 32.4887 33.9699 32.5006 34.0415C32.5125 34.113 32.5418 34.1806 32.5861 34.2381C32.6303 34.2956 32.6881 34.3413 32.7542 34.3711C32.8204 34.401 32.8928 34.414 32.9652 34.4091H34.4602C34.5369 34.4091 34.5625 34.4091 34.5561 34.505C34.5561 34.965 34.5561 35.4186 34.5561 35.8722C34.5561 35.9744 34.5177 35.9808 34.4347 35.9808H32.978C32.8685 35.9741 32.7601 36.0058 32.6713 36.0702C32.5988 36.1273 32.5457 36.2054 32.5193 36.2938C32.493 36.3823 32.4946 36.4767 32.524 36.5642C32.5533 36.6516 32.6091 36.7279 32.6835 36.7824C32.7579 36.837 32.8474 36.8672 32.9397 36.8689H34.4475C34.5369 36.8689 34.5625 36.8689 34.5625 36.9775C34.5625 37.7441 34.5625 38.5172 34.5625 39.2839C34.5615 39.4362 34.5765 39.5882 34.6072 39.7375C34.6341 39.8777 34.7073 40.0049 34.815 40.0987C34.9227 40.1925 35.0587 40.2475 35.2013 40.255C35.3391 40.2631 35.4758 40.2264 35.5909 40.1504C35.7061 40.0744 35.7936 39.9632 35.8402 39.8333C35.8984 39.6563 35.9223 39.4698 35.9105 39.2839C35.9105 38.5236 35.9105 37.7505 35.9105 36.9839C35.9105 36.888 35.9425 36.8689 36.0255 36.8689H38.5811C38.6111 36.8659 38.6414 36.8723 38.6677 36.8872C38.6939 36.902 38.715 36.9246 38.728 36.9519C38.9261 37.2714 39.1369 37.5908 39.3669 37.8975C39.7886 38.5364 40.1719 39.1752 40.6447 39.7758C40.7458 39.9202 40.8794 40.0388 41.0348 40.122C41.1901 40.2053 41.3629 40.2508 41.5391 40.255C41.6349 40.2703 41.7328 40.2656 41.8267 40.2411C41.9206 40.2167 42.0084 40.1731 42.0847 40.1131C42.1609 40.0531 42.2238 39.978 42.2696 39.8924C42.3154 39.8069 42.3429 39.7128 42.3505 39.6161C42.3844 39.4479 42.3994 39.2765 42.3952 39.105C42.3952 38.383 42.3952 37.6675 42.3952 36.9455C42.3952 36.8625 42.3952 36.8433 42.4911 36.8433C42.9638 36.8433 43.443 36.8433 43.9158 36.8433C44.0368 36.8608 44.1601 36.8343 44.2632 36.7686C44.3664 36.703 44.4426 36.6025 44.478 36.4855V36.3002C44.4606 36.1856 44.3999 36.0819 44.3084 36.0106C44.2169 35.9393 44.1015 35.9058 43.9861 35.9169H42.5869C42.44 35.9169 42.4272 35.9169 42.4272 35.7636V34.6455C42.4272 34.473 42.4336 34.473 42.6124 34.473ZM35.9425 32.6586C36.1341 32.9461 36.3194 33.2336 36.5175 33.5402H36C35.9616 33.5402 35.9425 33.5402 35.9425 33.4891C35.9233 33.2144 35.9169 32.9397 35.9425 32.6586ZM38.1019 36H36C35.9169 36 35.8913 36 35.8913 35.8977C35.8913 35.4441 35.8913 34.9841 35.8913 34.5305C35.8913 34.4539 35.8913 34.4283 35.9872 34.4283H36.9902C37.0413 34.4283 37.0797 34.4283 37.1052 34.4794L38.1019 36ZM41.0663 38.1466C40.7916 37.725 40.5169 37.3097 40.2294 36.8689H41.0472C41.0855 36.8689 41.0919 36.8689 41.0919 36.92C41.06 37.3416 41.0663 37.7505 41.0663 38.1466ZM41.0663 35.9041C41.0663 35.9744 41.0663 36 40.9705 36H39.6927C39.6713 36.0035 39.6493 36.0012 39.6291 35.9933C39.6089 35.9854 39.5911 35.9723 39.5777 35.9552C39.2519 35.4505 38.9388 34.9522 38.5747 34.4283H40.9513C41.0408 34.4283 41.0599 34.4283 41.0599 34.5369C41.0599 34.9905 41.06 35.4441 41.0663 35.9041Z" fill="#11C170"/>
</svg>
