<svg width="144" height="48" viewBox="0 0 144 48" fill="none" xmlns="http://www.w3.org/2000/svg">
<g clip-path="url(#clip0_1_927)">
<path d="M132.365 -8.81406e-05H11.6447C11.2047 -8.81406e-05 10.7699 -8.81406e-05 10.3311 0.00231186C9.96369 0.00471186 9.59923 0.0116839 9.22833 0.0175519C8.42254 0.027034 7.61865 0.0979234 6.82365 0.229604C6.02975 0.364151 5.26073 0.617811 4.54259 0.982004C3.82532 1.34928 3.16994 1.82651 2.60021 2.3964C2.02749 2.96468 1.55008 3.62153 1.18635 4.3417C0.821605 5.06044 0.568694 5.83064 0.436345 6.62569C0.302738 7.41973 0.230843 8.22294 0.221305 9.02809C0.210169 9.39601 0.208993 9.76515 0.203125 10.1331V37.8702C0.208993 38.2428 0.210169 38.6038 0.221305 38.9765C0.230846 39.7816 0.302741 40.5848 0.436345 41.3788C0.568328 42.1743 0.821255 42.9449 1.18635 43.6639C1.54992 44.3818 2.02739 45.036 2.60021 45.6011C3.16778 46.1735 3.82359 46.6511 4.54259 47.0155C5.26073 47.3807 6.02967 47.6359 6.82365 47.7725C7.61879 47.9031 8.4226 47.9741 9.22833 47.9847C9.59923 47.9928 9.96369 47.9975 10.3311 47.9975C10.7699 47.9999 11.2047 47.9999 11.6447 47.9999H132.365C132.796 47.9999 133.234 47.9999 133.666 47.9975C134.031 47.9975 134.406 47.9928 134.772 47.9847C135.576 47.9746 136.378 47.9037 137.172 47.7725C137.968 47.6349 138.74 47.3798 139.462 47.0155C140.18 46.6509 140.835 46.1733 141.402 45.6011C141.974 45.0338 142.452 44.3801 142.82 43.6639C143.183 42.9444 143.433 42.1738 143.563 41.3788C143.697 40.5847 143.772 39.7817 143.786 38.9765C143.791 38.6038 143.791 38.2428 143.791 37.8702C143.8 37.4343 143.8 37.0007 143.8 36.5577V11.4433C143.8 11.0038 143.8 10.5679 143.791 10.1331C143.791 9.76515 143.791 9.39601 143.786 9.02804C143.772 8.22282 143.697 7.41979 143.563 6.62564C143.433 5.83105 143.182 5.06092 142.82 4.34166C142.08 2.89815 140.905 1.72314 139.462 0.981896C138.74 0.618593 137.968 0.365 137.172 0.229496C136.379 0.0972352 135.576 0.0263212 134.772 0.0173839C134.406 0.0115279 134.031 0.00449586 133.666 0.00215586C133.234 -0.000244141 132.796 -0.000244141 132.365 -0.000244141V-8.81406e-05Z" fill="#A6A6A6"/>
<path d="M10.3373 46.9498C9.97168 46.9498 9.6149 46.9451 9.25215 46.937C8.50069 46.9272 7.75098 46.8618 7.00918 46.7412C6.31749 46.6221 5.64743 46.4005 5.02109 46.0838C4.4005 45.7696 3.83448 45.3577 3.34469 44.8638C2.84782 44.3758 2.43415 43.8097 2.12008 43.188C1.80255 42.5623 1.5828 41.8917 1.46848 41.1994C1.34503 40.4555 1.27824 39.7034 1.26868 38.9494C1.26107 38.6963 1.25111 37.8537 1.25111 37.8537V10.133C1.25111 10.133 1.26172 9.30332 1.26874 9.05956C1.27789 8.30678 1.3443 7.55579 1.46738 6.81308C1.5819 6.1189 1.80183 5.4463 2.11953 4.81856C2.43245 4.19734 2.84382 3.63084 3.3377 3.14102C3.83102 2.64655 4.39886 2.23253 5.02051 1.91406C5.6454 1.59832 6.3142 1.37828 7.00449 1.26133C7.74873 1.13961 8.50104 1.0738 9.2551 1.06446L10.3379 1.0498H133.66L134.756 1.06504C135.503 1.07392 136.249 1.13914 136.986 1.26015C137.683 1.37857 138.359 1.60014 138.991 1.91757C140.236 2.55939 141.25 3.5748 141.889 4.82149C142.202 5.4449 142.418 6.11201 142.531 6.80019C142.656 7.54899 142.726 8.30589 142.74 9.06484C142.743 9.40468 142.743 9.76972 142.743 10.133C142.753 10.583 142.753 11.0113 142.753 11.4432V36.5576C142.753 36.9935 142.753 37.4189 142.743 37.8478C142.743 38.238 142.743 38.5955 142.739 38.9634C142.725 39.7089 142.656 40.4522 142.534 41.1876C142.422 41.8849 142.203 42.5608 141.886 43.1916C141.569 43.8065 141.158 44.3677 140.667 44.8545C140.177 45.351 139.61 45.7653 138.988 46.0815C138.357 46.4007 137.682 46.6231 136.986 46.7412C136.244 46.8624 135.494 46.9278 134.743 46.937C134.391 46.9451 134.023 46.9498 133.666 46.9498L132.365 46.9522L10.3373 46.9498Z" fill="black"/>
<path d="M29.9245 24.3605C29.9374 23.3589 30.2035 22.3769 30.6979 21.5057C31.1923 20.6346 31.8991 19.9027 32.7524 19.3781C32.2103 18.6039 31.4952 17.9667 30.6638 17.5173C29.8324 17.0678 28.9077 16.8184 27.963 16.7889C25.9479 16.5773 23.9944 17.9947 22.9675 17.9947C21.9208 17.9947 20.3398 16.8099 18.6373 16.8449C17.5361 16.8805 16.4629 17.2007 15.5223 17.7744C14.5816 18.348 13.8056 19.1556 13.2698 20.1183C10.949 24.1364 12.6801 30.0417 14.9033 33.2896C16.0155 34.88 17.3155 36.6566 19.0164 36.5936C20.6809 36.5245 21.3025 35.5322 23.3117 35.5322C25.3022 35.5322 25.8855 36.5936 27.6209 36.5535C29.407 36.5245 30.5323 34.956 31.6055 33.3506C32.4047 32.2173 33.0196 30.9649 33.4276 29.6395C32.39 29.2007 31.5045 28.4661 30.8815 27.5273C30.2586 26.5885 29.9257 25.4872 29.9245 24.3605Z" fill="white"/>
<path d="M26.6468 14.6529C27.6207 13.4838 28.1004 11.9812 27.9843 10.4641C26.4965 10.6204 25.1222 11.3314 24.1352 12.4556C23.6526 13.0048 23.283 13.6438 23.0475 14.3359C22.812 15.028 22.7152 15.7598 22.7627 16.4893C23.5069 16.497 24.2431 16.3357 24.9159 16.0176C25.5887 15.6995 26.1805 15.2328 26.6468 14.6529Z" fill="white"/>
<path d="M50.9644 32.5673H45.2844L43.9203 36.5951H41.5144L46.8945 21.6935H49.3941L54.7742 36.5951H52.3273L50.9644 32.5673ZM45.8726 30.7087H50.375L48.1555 24.172H48.0934L45.8726 30.7087Z" fill="white"/>
<path d="M66.394 31.1632C66.394 34.5394 64.5869 36.7086 61.86 36.7086C61.1692 36.7447 60.4822 36.5856 59.8776 36.2494C59.2731 35.9132 58.7754 35.4136 58.4416 34.8078H58.39V40.189H56.1599V25.7304H58.3186V27.5375H58.3596C58.7087 26.9345 59.2148 26.4375 59.824 26.0993C60.4331 25.761 61.1226 25.5943 61.819 25.6167C64.5763 25.6168 66.394 27.7964 66.394 31.1632ZM64.1018 31.1632C64.1018 28.9636 62.965 27.5175 61.2307 27.5175C59.5268 27.5175 58.3807 28.9941 58.3807 31.1632C58.3807 33.3523 59.5268 34.8183 61.2307 34.8183C62.9651 34.8183 64.1018 33.3828 64.1018 31.1632Z" fill="white"/>
<path d="M78.352 31.1632C78.352 34.5394 76.5449 36.7085 73.818 36.7085C73.1272 36.7447 72.4402 36.5856 71.8357 36.2494C71.2311 35.9132 70.7334 35.4136 70.3996 34.8077H70.348V40.189H68.118V25.7304H70.2765V27.5374H70.3176C70.6667 26.9345 71.1728 26.4375 71.7819 26.0992C72.3911 25.761 73.0805 25.5943 73.7769 25.6167C76.5344 25.6167 78.352 27.7964 78.352 31.1632ZM76.0598 31.1632C76.0598 28.9636 74.9231 27.5175 73.1887 27.5175C71.4848 27.5175 70.3387 28.9941 70.3387 31.1632C70.3387 33.3523 71.4848 34.8183 73.1887 34.8183C74.9231 34.8183 76.0598 33.3828 76.0598 31.1632H76.0598Z" fill="white"/>
<path d="M86.2543 32.4432C86.4196 33.9209 87.8551 34.8912 89.8168 34.8912C91.6965 34.8912 93.0489 33.9209 93.0489 32.5884C93.0489 31.4318 92.2332 30.7392 90.302 30.2646L88.3707 29.7994C85.6344 29.1384 84.3641 27.8587 84.3641 25.7822C84.3641 23.2111 86.6047 21.4451 89.7864 21.4451C92.9352 21.4451 95.0938 23.2111 95.1664 25.7822H92.9152C92.7805 24.2951 91.5512 23.3974 89.7547 23.3974C87.9582 23.3974 86.7289 24.3056 86.7289 25.6275C86.7289 26.681 87.5141 27.3009 89.4348 27.7755L91.0766 28.1786C94.134 28.9017 95.4043 30.1298 95.4043 32.3095C95.4043 35.0974 93.1836 36.8435 89.6515 36.8435C86.3469 36.8435 84.1156 35.1384 83.9715 32.4431L86.2543 32.4432Z" fill="white"/>
<path d="M100.217 23.1597V25.7308H102.283V27.4968H100.217V33.4862C100.217 34.4167 100.63 34.8503 101.538 34.8503C101.784 34.846 102.029 34.8288 102.272 34.7987V36.5542C101.864 36.6305 101.449 36.665 101.033 36.6573C98.8338 36.6573 97.9759 35.8311 97.9759 33.7241V27.4968H96.3963V25.7308H97.9759V23.1597H100.217Z" fill="white"/>
<path d="M103.48 31.1636C103.48 27.7452 105.494 25.5972 108.633 25.5972C111.783 25.5972 113.787 27.7452 113.787 31.1636C113.787 34.5913 111.794 36.73 108.633 36.73C105.474 36.73 103.48 34.5913 103.48 31.1636ZM111.515 31.1636C111.515 28.8187 110.44 27.4347 108.633 27.4347C106.826 27.4347 105.753 28.8292 105.753 31.1636C105.753 33.5179 106.826 34.8913 108.633 34.8913C110.44 34.8913 111.515 33.5179 111.515 31.1636H111.515Z" fill="white"/>
<path d="M115.626 25.7306H117.753V27.5798H117.804C117.948 27.0022 118.287 26.4918 118.762 26.1344C119.238 25.7769 119.823 25.5942 120.418 25.6169C120.675 25.616 120.931 25.6439 121.182 25.7001V27.786C120.857 27.6869 120.519 27.6414 120.18 27.6513C119.856 27.6381 119.533 27.6952 119.233 27.8187C118.933 27.9422 118.664 28.1291 118.443 28.3665C118.222 28.604 118.055 28.8864 117.954 29.1944C117.853 29.5024 117.819 29.8287 117.856 30.1509V36.595H115.626L115.626 25.7306Z" fill="white"/>
<path d="M131.462 33.4042C131.162 35.3765 129.242 36.73 126.784 36.73C123.624 36.73 121.662 34.6124 121.662 31.2151C121.662 27.8073 123.634 25.5972 126.69 25.5972C129.696 25.5972 131.587 27.662 131.587 30.9561V31.7202H123.913V31.855C123.878 32.2548 123.928 32.6576 124.06 33.0366C124.192 33.4156 124.403 33.7622 124.68 34.0532C124.956 34.3443 125.292 34.5732 125.663 34.7248C126.035 34.8763 126.435 34.9471 126.836 34.9323C127.363 34.9817 127.892 34.8596 128.344 34.5843C128.796 34.309 129.147 33.8951 129.345 33.4042L131.462 33.4042ZM123.924 30.1616H129.355C129.375 29.8021 129.321 29.4423 129.195 29.1049C129.07 28.7674 128.876 28.4596 128.625 28.2007C128.375 27.9417 128.074 27.7373 127.741 27.6003C127.408 27.4632 127.05 27.3965 126.69 27.4042C126.327 27.402 125.967 27.4718 125.631 27.6095C125.295 27.7472 124.99 27.9501 124.732 28.2064C124.475 28.4628 124.271 28.7676 124.133 29.1031C123.994 29.4387 123.923 29.7985 123.924 30.1616V30.1616Z" fill="white"/>
<path d="M45.5931 10.4771C46.0606 10.4436 46.5297 10.5142 46.9667 10.6839C47.4036 10.8536 47.7974 11.1182 48.1197 11.4586C48.442 11.7989 48.6848 12.2066 48.8305 12.6521C48.9762 13.0976 49.0211 13.5699 48.9622 14.0349C48.9622 16.3224 47.7259 17.6373 45.5931 17.6373H43.0067V10.4771H45.5931ZM44.1188 16.6247H45.4688C45.8029 16.6447 46.1372 16.5899 46.4475 16.4644C46.7577 16.3388 47.0361 16.1457 47.2623 15.899C47.4885 15.6523 47.6568 15.3583 47.7551 15.0384C47.8533 14.7184 47.8789 14.3806 47.8302 14.0495C47.8754 13.7197 47.8471 13.384 47.7474 13.0664C47.6477 12.7488 47.4789 12.4572 47.2532 12.2125C47.0276 11.9678 46.7505 11.776 46.442 11.6509C46.1335 11.5258 45.8012 11.4705 45.4688 11.489H44.1188V16.6247Z" fill="white"/>
<path d="M50.2183 14.933C50.1843 14.5779 50.2249 14.2197 50.3375 13.8812C50.4501 13.5427 50.6323 13.2315 50.8722 12.9675C51.1121 12.7035 51.4046 12.4926 51.7308 12.3483C52.057 12.204 52.4098 12.1294 52.7665 12.1294C53.1232 12.1294 53.476 12.204 53.8023 12.3483C54.1285 12.4926 54.4209 12.7035 54.6609 12.9675C54.9008 13.2315 55.0829 13.5427 55.1955 13.8812C55.3081 14.2197 55.3487 14.5779 55.3148 14.933C55.3494 15.2885 55.3092 15.6473 55.1969 15.9863C55.0846 16.3254 54.9026 16.6371 54.6626 16.9016C54.4226 17.1661 54.13 17.3775 53.8034 17.5221C53.4769 17.6668 53.1237 17.7415 52.7665 17.7415C52.4094 17.7415 52.0562 17.6668 51.7296 17.5221C51.4031 17.3775 51.1104 17.1661 50.8704 16.9016C50.6304 16.6371 50.4484 16.3254 50.3361 15.9863C50.2238 15.6473 50.1837 15.2885 50.2183 14.933ZM54.2179 14.933C54.2179 13.7618 53.6917 13.0768 52.7683 13.0768C51.8413 13.0768 51.3199 13.7618 51.3199 14.9331C51.3199 16.1137 51.8414 16.7934 52.7683 16.7934C53.6917 16.7934 54.2179 16.109 54.2179 14.933H54.2179Z" fill="white"/>
<path d="M62.0895 17.6372H60.9833L59.8665 13.6575H59.7821L58.67 17.6372H57.5743L56.0848 12.2336H57.1665L58.1345 16.3568H58.2142L59.3251 12.2336H60.3481L61.4591 16.3568H61.5434L62.5067 12.2336H63.5731L62.0895 17.6372Z" fill="white"/>
<path d="M64.8262 12.2336H65.8528V13.092H65.9325C66.0676 12.7837 66.2956 12.5253 66.5847 12.3527C66.8737 12.1802 67.2094 12.1021 67.545 12.1293C67.8079 12.1096 68.0719 12.1492 68.3174 12.2453C68.5629 12.3414 68.7836 12.4916 68.9633 12.6846C69.1429 12.8776 69.2768 13.1086 69.355 13.3603C69.4333 13.6121 69.4538 13.8783 69.4153 14.1391V17.6371H68.3489V14.4069C68.3489 13.5385 67.9715 13.1067 67.1828 13.1067C67.0043 13.0984 66.8261 13.1288 66.6605 13.1958C66.4948 13.2628 66.3456 13.3648 66.223 13.4948C66.1005 13.6249 66.0075 13.7799 65.9505 13.9493C65.8934 14.1186 65.8737 14.2983 65.8926 14.476V17.6372H64.8262L64.8262 12.2336Z" fill="white"/>
<path d="M71.1141 10.1243H72.1805V17.6372H71.1141V10.1243Z" fill="white"/>
<path d="M73.6633 14.933C73.6293 14.5779 73.67 14.2196 73.7826 13.8811C73.8953 13.5426 74.0774 13.2314 74.3173 12.9674C74.5573 12.7034 74.8498 12.4925 75.176 12.3482C75.5023 12.2038 75.8551 12.1293 76.2118 12.1293C76.5686 12.1293 76.9214 12.2038 77.2476 12.3482C77.5739 12.4925 77.8663 12.7034 78.1063 12.9674C78.3462 13.2314 78.5284 13.5426 78.641 13.8811C78.7536 14.2196 78.7943 14.5779 78.7603 14.933C78.7949 15.2885 78.7547 15.6473 78.6424 15.9863C78.5301 16.3253 78.348 16.6371 78.108 16.9016C77.868 17.1661 77.5753 17.3775 77.2487 17.5221C76.9222 17.6667 76.569 17.7414 76.2118 17.7414C75.8547 17.7414 75.5014 17.6667 75.1749 17.5221C74.8483 17.3775 74.5556 17.1661 74.3156 16.9016C74.0756 16.6371 73.8936 16.3253 73.7812 15.9863C73.6689 15.6473 73.6287 15.2885 73.6633 14.933ZM77.6629 14.933C77.6629 13.7617 77.1367 13.0768 76.2133 13.0768C75.2863 13.0768 74.7649 13.7617 74.7649 14.933C74.7649 16.1137 75.2864 16.7934 76.2133 16.7934C77.1367 16.7934 77.6629 16.109 77.6629 14.933H77.6629Z" fill="white"/>
<path d="M79.8828 16.1091C79.8828 15.1364 80.607 14.5757 81.8926 14.496L83.3562 14.4116V13.9452C83.3562 13.3745 82.9789 13.0522 82.25 13.0522C81.6547 13.0522 81.2422 13.2708 81.1238 13.6528H80.0914C80.2004 12.7247 81.0734 12.1294 82.2992 12.1294C83.6539 12.1294 84.418 12.8038 84.418 13.9452V17.6372H83.3914V16.8778H83.307C83.1358 17.1502 82.8953 17.3723 82.6101 17.5213C82.325 17.6704 82.0054 17.7411 81.684 17.7262C81.4571 17.7498 81.2279 17.7256 81.011 17.6552C80.794 17.5847 80.5943 17.4696 80.4246 17.3173C80.2549 17.1649 80.119 16.9787 80.0257 16.7706C79.9324 16.5625 79.8837 16.3371 79.8828 16.1091ZM83.3562 15.6474V15.1956L82.0367 15.28C81.2926 15.3298 80.9551 15.5829 80.9551 16.0593C80.9551 16.5456 81.3769 16.8286 81.9571 16.8286C82.127 16.8458 82.2987 16.8286 82.4619 16.7781C82.6251 16.7276 82.7765 16.6448 82.9071 16.5346C83.0376 16.4244 83.1446 16.289 83.2218 16.1366C83.299 15.9842 83.3447 15.8178 83.3562 15.6474Z" fill="white"/>
<path d="M85.8195 14.9331C85.8195 13.2257 86.6972 12.144 88.0625 12.144C88.4002 12.1285 88.7353 12.2093 89.0288 12.3772C89.3222 12.5451 89.5618 12.793 89.7195 13.092H89.7992V10.1243H90.8656V17.6372H89.8437V16.7834H89.7594C89.5894 17.0804 89.3415 17.3253 89.0424 17.4914C88.7433 17.6576 88.4044 17.7388 88.0625 17.7262C86.6879 17.7263 85.8195 16.6446 85.8195 14.9331ZM86.9211 14.9331C86.9211 16.0792 87.4613 16.7688 88.3649 16.7688C89.2637 16.7688 89.8191 16.0692 89.8191 14.9378C89.8191 13.8116 89.2578 13.102 88.3649 13.102C87.4672 13.102 86.9211 13.7964 86.9211 14.9331H86.9211Z" fill="white"/>
<path d="M95.2777 14.933C95.2437 14.5779 95.2844 14.2197 95.397 13.8812C95.5096 13.5427 95.6917 13.2315 95.9316 12.9675C96.1715 12.7035 96.464 12.4926 96.7902 12.3483C97.1164 12.204 97.4692 12.1294 97.826 12.1294C98.1827 12.1294 98.5355 12.204 98.8617 12.3483C99.1879 12.4926 99.4803 12.7035 99.7203 12.9675C99.9602 13.2315 100.142 13.5427 100.255 13.8812C100.368 14.2197 100.408 14.5779 100.374 14.933C100.409 15.2885 100.369 15.6473 100.256 15.9863C100.144 16.3254 99.962 16.6371 99.7221 16.9016C99.4821 17.1661 99.1894 17.3775 98.8628 17.5221C98.5363 17.6668 98.1831 17.7415 97.826 17.7415C97.4688 17.7415 97.1156 17.6668 96.7891 17.5221C96.4625 17.3775 96.1698 17.1661 95.9298 16.9016C95.6898 16.6371 95.5078 16.3254 95.3955 15.9863C95.2832 15.6473 95.2431 15.2885 95.2777 14.933ZM99.2773 14.933C99.2773 13.7618 98.7511 13.0768 97.8277 13.0768C96.9008 13.0768 96.3793 13.7618 96.3793 14.9331C96.3793 16.1137 96.9008 16.7934 97.8277 16.7934C98.7511 16.7934 99.2773 16.109 99.2773 14.933Z" fill="white"/>
<path d="M101.806 12.2336H102.832V13.092H102.912C103.047 12.7837 103.275 12.5253 103.564 12.3527C103.853 12.1802 104.189 12.1021 104.524 12.1293C104.787 12.1096 105.051 12.1492 105.297 12.2453C105.542 12.3414 105.763 12.4916 105.943 12.6846C106.122 12.8776 106.256 13.1086 106.334 13.3603C106.413 13.6121 106.433 13.8783 106.395 14.1391V17.6371H105.328V14.4069C105.328 13.5385 104.951 13.1067 104.162 13.1067C103.984 13.0984 103.806 13.1288 103.64 13.1958C103.474 13.2628 103.325 13.3648 103.202 13.4948C103.08 13.6249 102.987 13.7799 102.93 13.9493C102.873 14.1186 102.853 14.2983 102.872 14.476V17.6372H101.806V12.2336Z" fill="white"/>
<path d="M112.42 10.8883V12.2582H113.591V13.1565H112.42V15.935C112.42 16.501 112.654 16.7489 113.184 16.7489C113.32 16.7484 113.456 16.7402 113.591 16.7242V17.6125C113.4 17.6468 113.206 17.665 113.011 17.667C111.825 17.667 111.353 17.2498 111.353 16.208V13.1564H110.495V12.2582H111.353V10.8883H112.42Z" fill="white"/>
<path d="M115.048 10.1243H116.105V13.102H116.189C116.331 12.7908 116.565 12.5309 116.86 12.3577C117.155 12.1845 117.496 12.1064 117.837 12.134C118.098 12.1198 118.36 12.1635 118.602 12.2619C118.845 12.3604 119.063 12.5112 119.241 12.7036C119.419 12.896 119.552 13.1253 119.631 13.375C119.71 13.6248 119.733 13.8889 119.698 14.1485V17.6372H118.63V14.4116C118.63 13.5485 118.228 13.1114 117.475 13.1114C117.291 13.0963 117.107 13.1215 116.935 13.1852C116.762 13.2489 116.605 13.3495 116.476 13.4799C116.346 13.6104 116.247 13.7676 116.184 13.9406C116.122 14.1136 116.098 14.2981 116.114 14.4813V17.6371H115.048L115.048 10.1243Z" fill="white"/>
<path d="M125.915 16.1781C125.77 16.6719 125.456 17.0991 125.028 17.3849C124.6 17.6707 124.085 17.7968 123.574 17.7413C123.218 17.7507 122.864 17.6826 122.537 17.5415C122.21 17.4005 121.918 17.19 121.68 16.9246C121.443 16.6593 121.266 16.3454 121.162 16.0048C121.058 15.6642 121.029 15.3051 121.078 14.9523C121.03 14.5984 121.059 14.2385 121.163 13.8969C121.267 13.5553 121.443 13.24 121.679 12.9723C121.916 12.7046 122.207 12.4908 122.533 12.3453C122.859 12.1999 123.212 12.1262 123.569 12.1292C125.073 12.1292 125.98 13.1564 125.98 14.8532V15.2253H122.164V15.2851C122.147 15.4834 122.172 15.683 122.237 15.8711C122.302 16.0592 122.406 16.2317 122.541 16.3774C122.677 16.5231 122.841 16.639 123.024 16.7174C123.207 16.7959 123.404 16.8353 123.603 16.8331C123.858 16.8637 124.117 16.8178 124.346 16.7012C124.574 16.5845 124.764 16.4024 124.889 16.178L125.915 16.1781ZM122.164 14.4367H124.893C124.907 14.2553 124.882 14.0731 124.821 13.9019C124.76 13.7306 124.664 13.574 124.538 13.4422C124.413 13.3104 124.262 13.2062 124.094 13.1364C123.926 13.0666 123.745 13.0327 123.563 13.0369C123.379 13.0345 123.196 13.0692 123.025 13.1387C122.854 13.2082 122.699 13.3113 122.568 13.4417C122.438 13.5722 122.335 13.7274 122.266 13.8983C122.196 14.0692 122.162 14.2522 122.164 14.4367H122.164Z" fill="white"/>
</g>
<defs>
<clipPath id="clip0_1_927">
<rect width="144" height="48" fill="white"/>
</clipPath>
</defs>
</svg>
