<svg width="162" height="48" viewBox="0 0 162 48" fill="none" xmlns="http://www.w3.org/2000/svg">
<g clip-path="url(#clip0_1_900)">
<path d="M156 48H6C2.7 48 0 45.3 0 42V6C0 2.7 2.7 0 6 0H156C159.3 0 162 2.7 162 6V42C162 45.3 159.3 48 156 48Z" fill="black"/>
<path d="M156 0.96C158.784 0.96 161.04 3.216 161.04 6V42C161.04 44.784 158.784 47.04 156 47.04H6C3.216 47.04 0.96 44.784 0.96 42V6C0.96 3.216 3.216 0.96 6 0.96H156ZM156 0H6C2.7 0 0 2.7 0 6V42C0 45.3 2.7 48 6 48H156C159.3 48 162 45.3 162 42V6C162 2.7 159.3 0 156 0Z" fill="#A6A6A6"/>
<path d="M56.905 12.2878C56.905 13.2958 56.605 14.0998 56.005 14.6878C55.333 15.3958 54.445 15.7558 53.365 15.7558C52.321 15.7558 51.445 15.3958 50.713 14.6758C49.981 13.9558 49.621 13.0558 49.621 11.9998C49.621 10.9318 49.981 10.0438 50.713 9.32377C51.445 8.60377 52.321 8.24377 53.365 8.24377C53.881 8.24377 54.373 8.33977 54.841 8.54377C55.309 8.74777 55.681 9.01177 55.969 9.34777L55.333 9.98377C54.853 9.41977 54.205 9.13177 53.365 9.13177C52.609 9.13177 51.949 9.39577 51.397 9.93577C50.845 10.4638 50.569 11.1598 50.569 12.0118C50.569 12.8638 50.845 13.5598 51.397 14.0878C51.949 14.6158 52.609 14.8918 53.365 14.8918C54.169 14.8918 54.841 14.6278 55.381 14.0878C55.729 13.7398 55.933 13.2478 55.981 12.6238H53.365V11.7598H56.857C56.881 11.9398 56.905 12.1198 56.905 12.2878Z" fill="white" stroke="white" stroke-width="0.166647" stroke-miterlimit="10"/>
<path d="M62.4372 9.28778H59.1612V11.5678H62.1132V12.4318H59.1612V14.7118H62.4372V15.5998H58.2372V8.39978H62.4372V9.28778Z" fill="white" stroke="white" stroke-width="0.166647" stroke-miterlimit="10"/>
<path d="M66.3372 15.5999H65.4132V9.2879H63.3972V8.3999H68.3412V9.2879H66.3252V15.5999H66.3372Z" fill="white" stroke="white" stroke-width="0.166647" stroke-miterlimit="10"/>
<path d="M71.9296 15.5998V8.39978H72.8536V15.5998H71.9296Z" fill="white" stroke="white" stroke-width="0.166647" stroke-miterlimit="10"/>
<path d="M76.9565 15.5998H76.0325V9.28778H74.0165V8.39978H78.9605V9.28778H76.9445V15.5998H76.9565Z" fill="white" stroke="white" stroke-width="0.166647" stroke-miterlimit="10"/>
<path d="M88.3329 14.6638C87.6249 15.3958 86.7489 15.7558 85.6929 15.7558C84.6369 15.7558 83.7609 15.3958 83.0529 14.6638C82.3449 13.9318 81.9969 13.0438 81.9969 11.9998C81.9969 10.9558 82.3449 10.0558 83.0529 9.33577C83.7609 8.60377 84.6369 8.24377 85.6929 8.24377C86.7369 8.24377 87.6129 8.60377 88.3329 9.33577C89.0409 10.0678 89.4009 10.9558 89.4009 11.9998C89.3889 13.0558 89.0409 13.9438 88.3329 14.6638ZM83.7369 14.0638C84.2649 14.6038 84.9249 14.8678 85.6929 14.8678C86.4609 14.8678 87.1209 14.6038 87.6489 14.0638C88.1769 13.5238 88.4529 12.8398 88.4529 11.9998C88.4529 11.1598 88.1889 10.4758 87.6489 9.93577C87.1209 9.39577 86.4609 9.13177 85.6929 9.13177C84.9249 9.13177 84.2649 9.39577 83.7369 9.93577C83.2089 10.4758 82.9329 11.1598 82.9329 11.9998C82.9329 12.8398 83.2089 13.5238 83.7369 14.0638Z" fill="white" stroke="white" stroke-width="0.166647" stroke-miterlimit="10"/>
<path d="M90.6971 15.5998V8.39978H91.8251L95.3292 14.0038H95.3651L95.3292 12.6118V8.39978H96.2531V15.5998H95.2932L91.6331 9.73178H91.5971L91.6331 11.1238V15.5998H90.6971Z" fill="white" stroke="white" stroke-width="0.166647" stroke-miterlimit="10"/>
<path d="M81.768 26.1001C78.948 26.1001 76.6441 28.2481 76.6441 31.2001C76.6441 34.1401 78.948 36.3001 81.768 36.3001C84.588 36.3001 86.8921 34.1401 86.8921 31.2001C86.8921 28.2481 84.588 26.1001 81.768 26.1001ZM81.768 34.2961C80.22 34.2961 78.888 33.0241 78.888 31.2001C78.888 29.3641 80.22 28.1041 81.768 28.1041C83.316 28.1041 84.648 29.3641 84.648 31.2001C84.648 33.0241 83.304 34.2961 81.768 34.2961ZM70.584 26.1001C67.764 26.1001 65.4601 28.2481 65.4601 31.2001C65.4601 34.1401 67.764 36.3001 70.584 36.3001C73.404 36.3001 75.708 34.1401 75.708 31.2001C75.708 28.2481 73.404 26.1001 70.584 26.1001ZM70.584 34.2961C69.036 34.2961 67.704 33.0241 67.704 31.2001C67.704 29.3641 69.036 28.1041 70.584 28.1041C72.132 28.1041 73.464 29.3641 73.464 31.2001C73.464 33.0241 72.132 34.2961 70.584 34.2961ZM57.288 27.6721V29.8321H62.472C62.316 31.0441 61.908 31.9441 61.296 32.5561C60.54 33.3121 59.364 34.1401 57.3 34.1401C54.108 34.1401 51.612 31.5721 51.612 28.3801C51.612 25.1881 54.108 22.6201 57.3 22.6201C59.016 22.6201 60.276 23.2921 61.2 24.1681L62.724 22.6441C61.428 21.4081 59.712 20.4601 57.288 20.4601C52.92 20.4601 49.248 24.0121 49.248 28.3921C49.248 32.7601 52.92 36.3241 57.288 36.3241C59.652 36.3241 61.428 35.5561 62.82 34.1041C64.248 32.6761 64.692 30.6601 64.692 29.0401C64.692 28.5361 64.656 28.0681 64.572 27.6841H57.288V27.6721ZM111.66 29.3521C111.24 28.2121 109.944 26.1001 107.292 26.1001C104.664 26.1001 102.48 28.1641 102.48 31.2001C102.48 34.0561 104.64 36.3001 107.544 36.3001C109.884 36.3001 111.24 34.8721 111.792 34.0441L110.052 32.8801C109.476 33.7321 108.684 34.2961 107.544 34.2961C106.404 34.2961 105.588 33.7681 105.072 32.7481L111.9 29.9281L111.66 29.3521ZM104.7 31.0561C104.64 29.0881 106.224 28.0801 107.364 28.0801C108.252 28.0801 109.008 28.5241 109.26 29.1601L104.7 31.0561ZM99.156 36.0001H101.4V21.0001H99.156V36.0001ZM95.484 27.2401H95.4C94.896 26.6401 93.9361 26.1001 92.7121 26.1001C90.1561 26.1001 87.816 28.3441 87.816 31.2241C87.816 34.0801 90.1561 36.3121 92.7121 36.3121C93.924 36.3121 94.896 35.7721 95.4 35.1481H95.472V35.8801C95.472 37.8361 94.428 38.8801 92.748 38.8801C91.38 38.8801 90.528 37.8961 90.18 37.0681L88.224 37.8841C88.788 39.2401 90.276 40.8961 92.748 40.8961C95.376 40.8961 97.5961 39.3481 97.5961 35.5801V26.4121H95.472V27.2401H95.484ZM92.904 34.2961C91.356 34.2961 90.0601 33.0001 90.0601 31.2241C90.0601 29.4241 91.356 28.1161 92.904 28.1161C94.428 28.1161 95.6281 29.4361 95.6281 31.2241C95.64 33.0001 94.44 34.2961 92.904 34.2961ZM122.172 21.0001H116.808V36.0001H119.052V30.3121H122.184C124.668 30.3121 127.104 28.5121 127.104 25.6561C127.104 22.8001 124.644 21.0001 122.172 21.0001ZM122.22 28.2241H119.04V23.0761H122.22C123.9 23.0761 124.848 24.4681 124.848 25.6441C124.848 26.8201 123.9 28.2241 122.22 28.2241ZM136.068 26.0761C134.448 26.0761 132.768 26.7961 132.072 28.3681L134.064 29.1961C134.484 28.3681 135.276 28.0921 136.104 28.0921C137.256 28.0921 138.444 28.7881 138.456 30.0241V30.1801C138.048 29.9521 137.184 29.6041 136.116 29.6041C133.968 29.6041 131.796 30.7801 131.796 32.9761C131.796 34.9801 133.548 36.2761 135.516 36.2761C137.016 36.2761 137.856 35.6041 138.372 34.8121H138.444V35.9761H140.604V30.2281C140.616 27.5641 138.624 26.0761 136.068 26.0761ZM135.792 34.2961C135.06 34.2961 134.04 33.9241 134.04 33.0241C134.04 31.8721 135.312 31.4281 136.416 31.4281C137.4 31.4281 137.868 31.6441 138.456 31.9321C138.288 33.3121 137.088 34.2961 135.792 34.2961ZM148.488 26.4001L145.92 32.9041H145.848L143.184 26.4001H140.772L144.768 35.4961L142.488 40.5481H144.828L150.984 26.4001H148.488ZM128.328 36.0001H130.572V21.0001H128.328V36.0001Z" fill="white"/>
<path d="M12.5276 9.04775C12.1796 9.41975 11.9756 9.99575 11.9756 10.7277V37.2718C11.9756 38.0158 12.1796 38.5918 12.5276 38.9518L12.6116 39.0358L27.4796 24.1797V23.9997V23.8197L12.6116 8.96375L12.5276 9.04775Z" fill="url(#paint0_linear_1_900)"/>
<path d="M32.4355 29.1359L27.4795 24.1799V23.9999V23.8199L32.4355 18.8639L32.5435 18.9239L38.4115 22.2599C40.0915 23.2079 40.0915 24.7679 38.4115 25.7279L32.5435 29.0639L32.4355 29.1359Z" fill="url(#paint1_linear_1_900)"/>
<path d="M32.5443 29.064L27.4803 24L12.5283 38.952C13.0803 39.54 13.9923 39.612 15.0243 39.024L32.5443 29.064Z" fill="url(#paint2_linear_1_900)"/>
<path d="M32.5435 18.936L15.0115 8.97598C13.9795 8.38798 13.0675 8.45999 12.5155 9.04799L27.4795 24L32.5435 18.936Z" fill="url(#paint3_linear_1_900)"/>
<path opacity="0.2" d="M32.4352 28.9558L15.0112 38.8558C14.0392 39.4078 13.1632 39.3718 12.6112 38.8678L12.5272 38.9518L12.6112 39.0358C13.1752 39.5398 14.0392 39.5758 15.0112 39.0238L32.5432 29.0638L32.4352 28.9558Z" fill="black"/>
<path opacity="0.12" d="M12.5276 38.7839C12.1796 38.4119 11.9756 37.8359 11.9756 37.1039V37.2839C11.9756 38.0279 12.1796 38.6039 12.5276 38.9639L12.6116 38.8799L12.5276 38.7839Z" fill="black"/>
<path opacity="0.12" d="M38.412 25.56L32.424 28.956L32.532 29.064L38.4 25.728C39.24 25.248 39.66 24.624 39.66 24C39.6 24.564 39.18 25.128 38.412 25.56Z" fill="black"/>
<path opacity="0.25" d="M15.0119 9.14393L38.4119 22.4399C39.1679 22.8719 39.5999 23.4239 39.6719 23.9999C39.6719 23.3759 39.2519 22.7399 38.4119 22.2719L15.0119 8.97592C13.3319 8.02792 11.9639 8.81993 11.9639 10.7399V10.9199C11.9639 8.98793 13.3439 8.19593 15.0119 9.14393Z" fill="white"/>
</g>
<defs>
<linearGradient id="paint0_linear_1_900" x1="26.1592" y1="10.4514" x2="6.02034" y2="30.5903" gradientUnits="userSpaceOnUse">
<stop stop-color="#00A0FF"/>
<stop offset="0.00657445" stop-color="#00A1FF"/>
<stop offset="0.2601" stop-color="#00BEFF"/>
<stop offset="0.5122" stop-color="#00D2FF"/>
<stop offset="0.7604" stop-color="#00DFFF"/>
<stop offset="1" stop-color="#00E3FF"/>
</linearGradient>
<linearGradient id="paint1_linear_1_900" x1="40.6008" y1="24.0016" x2="11.5645" y2="24.0016" gradientUnits="userSpaceOnUse">
<stop stop-color="#FFE000"/>
<stop offset="0.4087" stop-color="#FFBD00"/>
<stop offset="0.7754" stop-color="#FFA500"/>
<stop offset="1" stop-color="#FF9C00"/>
</linearGradient>
<linearGradient id="paint2_linear_1_900" x1="29.7927" y1="26.7553" x2="2.48275" y2="54.0653" gradientUnits="userSpaceOnUse">
<stop stop-color="#FF3A44"/>
<stop offset="1" stop-color="#C31162"/>
</linearGradient>
<linearGradient id="paint3_linear_1_900" x1="8.75623" y1="0.211426" x2="20.9514" y2="12.4064" gradientUnits="userSpaceOnUse">
<stop stop-color="#32A071"/>
<stop offset="0.0685" stop-color="#2DA771"/>
<stop offset="0.4762" stop-color="#15CF74"/>
<stop offset="0.8009" stop-color="#06E775"/>
<stop offset="1" stop-color="#00F076"/>
</linearGradient>
<clipPath id="clip0_1_900">
<rect width="162" height="48" fill="white"/>
</clipPath>
</defs>
</svg>
