<svg width="124" height="124" viewBox="0 0 124 124" fill="none" xmlns="http://www.w3.org/2000/svg">
<circle opacity="0.35" cx="62" cy="62" r="62" fill="#D5F3E5"/>
<path d="M97.4444 59.47C97.2464 55.9681 96.4957 52.5196 95.22 49.2523C93.0265 43.5298 89.3833 38.4757 84.6478 34.5856C81.68 32.1164 78.3219 30.1586 74.7111 28.7923C71.4747 27.5043 68.0462 26.7649 64.5667 26.6045C60.9052 26.3481 57.2259 26.6156 53.64 27.3989C47.0685 28.998 41.0847 32.4265 36.3819 37.2872C31.6792 42.1478 28.4501 48.2416 27.0689 54.8623C26.819 56.331 26.6477 57.812 26.5555 59.2989V59.8611C26.6411 59.9467 26.5555 60.0567 26.5555 60.1545C26.5555 60.2523 26.5555 60.4356 26.5555 60.5456V61.3767C26.6655 61.8305 26.6655 62.304 26.5555 62.7578V63.4545C26.6411 63.54 26.5555 63.65 26.5555 63.76C26.5555 63.87 26.5555 64.0289 26.5555 64.1511V64.8356C26.5711 64.8957 26.5711 64.9588 26.5555 65.0189C26.6418 67.7699 27.1531 70.4909 28.0711 73.0856C30.104 79.4013 33.8788 85.0148 38.9611 89.28C43.4365 93.0657 48.7764 95.6894 54.5078 96.9189C55.9066 97.1831 57.3181 97.3748 58.7367 97.4934H59.4211C59.5433 97.3834 59.6778 97.4934 59.8122 97.4323C59.9467 97.3711 60.0322 97.4323 60.1178 97.4934H63.7111C63.7936 97.438 63.8941 97.4162 63.9922 97.4323C64.0903 97.4149 64.1913 97.4368 64.2733 97.4934H64.6889C65.4589 97.3711 66.2411 97.4323 67.0111 97.3345C75.2828 96.1361 82.8705 92.0697 88.4489 85.8456C91.0534 82.9077 93.1739 79.5742 94.7311 75.97C96.9147 70.7583 97.8441 65.1066 97.4444 59.47ZM74.5767 31.3589C78.6513 33.0358 82.3558 35.4986 85.4789 38.6067C85.9555 39.0834 85.8211 39.2178 85.3322 39.4745C83.3944 40.4819 81.3844 41.3439 79.3189 42.0534C78.8666 42.2123 78.7444 42.0534 78.5733 41.6989C77.1129 37.8359 74.889 34.3068 72.0344 31.3223C71.6311 30.9189 71.2033 30.54 70.69 30.1C71.9986 30.4049 73.2785 30.822 74.5155 31.3467L74.5767 31.3589ZM63.1 36.8956V29.6967C63.1 28.8778 63.1 28.8778 63.9311 29.0489C66.0553 29.5068 68.0204 30.5188 69.6267 31.9823C72.5442 34.7 74.8089 38.0427 76.2511 41.76C76.74 42.8845 76.7155 42.8723 75.53 43.1656C71.6322 44.1089 67.6464 44.6414 63.6378 44.7545C63.1489 44.7545 63.0878 44.6078 63.0878 44.1923C63.0511 41.7234 63.0389 39.3034 63.0389 36.8834L63.1 36.8956ZM53.8355 32.4711C55.5412 30.758 57.6917 29.5557 60.0444 29C60.6555 28.8656 60.8511 29 60.8389 29.66C60.8389 32.1045 60.8389 34.4511 60.8389 36.8467C60.8389 39.2423 60.8389 41.7356 60.8389 44.1067C60.8389 44.6078 60.7044 44.6811 60.2278 44.6689C56.037 44.562 51.8715 43.9839 47.81 42.9456C47.5533 42.8723 47.1255 42.9456 47.37 42.3956C48.7733 38.6653 50.9568 35.2776 53.7744 32.4589L53.8355 32.4711ZM38.3378 38.7778C42.2291 34.8594 47.0278 31.9626 52.3078 30.3445C52.3958 30.2963 52.4946 30.2711 52.595 30.2711C52.6954 30.2711 52.7941 30.2963 52.8822 30.3445L51.9533 31.2367C49.1003 34.1873 46.8794 37.6891 45.4267 41.5278C45.2067 42.0656 45.0111 42.2123 44.4489 42.0045C42.3955 41.2648 40.3947 40.3869 38.46 39.3767C38.0689 39.1689 37.9955 39.0589 38.3378 38.7778ZM36.0155 41.3811C36.3455 40.9778 36.5533 40.8678 37.0544 41.1611C39.2071 42.4006 41.485 43.4084 43.85 44.1678C44.2289 44.29 44.3878 44.4 44.2411 44.8645C42.6418 49.8538 41.7812 55.0504 41.6867 60.2889C41.6867 60.8756 41.4789 60.9856 40.9289 60.9734C39.0222 60.9734 37.1033 60.9734 35.1967 60.9734C33.29 60.9734 31.2733 60.9734 29.3178 60.9734C28.9022 60.9734 28.7189 60.9734 28.7433 60.4234C29.1108 53.452 31.6541 46.771 36.0155 41.32V41.3811ZM36.9444 83.0345C36.5655 83.2545 36.3455 83.3156 36.0033 82.8878C31.615 77.406 29.0738 70.6764 28.7433 63.6623C28.7433 63.2467 28.8533 63.1611 29.2322 63.1734H35.2455C37.1522 63.1734 39.0711 63.1734 40.9778 63.1734C41.5155 63.1734 41.6744 63.32 41.6867 63.8456C41.7756 68.5989 42.4865 73.3201 43.8011 77.8889C43.96 78.4878 44.4244 79.2334 44.2167 79.6245C44.0089 80.0156 43.1289 80.1011 42.5544 80.3089C40.6145 81.0417 38.7382 81.9329 36.9444 82.9734V83.0345ZM37.9344 85.0023C40.1101 83.7629 42.4078 82.7513 44.7911 81.9834C45.28 81.8245 45.2189 82.24 45.3044 82.4356C46.404 85.2423 47.8668 87.8926 49.6555 90.3189C50.696 91.7143 51.8889 92.9893 53.2122 94.12C47.3588 92.5555 42.0642 89.3745 37.9344 84.9411V85.0023ZM60.0567 95.1711C57.686 94.6508 55.5118 93.4684 53.7867 91.7611C50.9233 88.8893 48.721 85.4273 47.3333 81.6167C47.1744 81.2256 47.3333 81.1645 47.6389 81.0789C50.6713 80.3077 53.7615 79.7845 56.8789 79.5145C57.9789 79.4289 59.0911 79.4289 60.1911 79.3189C60.7778 79.3189 60.8511 79.49 60.8511 79.9911C60.8511 82.4356 60.8511 84.88 60.8511 87.3245C60.8511 89.7689 60.8511 92.1156 60.8511 94.5111C60.8633 95.2323 60.57 95.22 60.0567 95.11V95.1711ZM58.5411 77.2045C54.6221 77.4078 50.7349 78.0181 46.9422 79.0256C46.49 79.1478 46.4167 79.0256 46.2944 78.6345C44.9571 74.2683 44.1728 69.7515 43.96 65.19C43.9525 65.1704 43.9525 65.1486 43.96 65.1289C43.96 64.6767 43.96 64.2367 43.8989 63.7845V63.6378C43.8989 62.5745 43.8989 61.4623 43.8989 60.6067C43.8989 60.3867 43.8989 60.1789 43.8989 59.9956C43.8989 59.47 43.8989 59.14 43.8989 59.14C44.1098 54.5004 44.9023 49.9056 46.2578 45.4634C46.3678 45.0845 46.4411 44.9011 46.93 45.0356C50.7202 46.0527 54.6089 46.6592 58.5289 46.8445C58.5289 46.8445 61.5967 46.9423 63.9311 46.8445C64.5055 46.8445 65.0311 46.8445 65.4589 46.8445C69.3407 46.6403 73.191 46.0341 76.9478 45.0356C77.3267 44.9378 77.4489 45.0356 77.5589 45.3778C78.9498 49.844 79.7711 54.468 80.0033 59.14C80.0033 59.47 80.0033 59.7878 80.0033 60.1178C80.0033 60.2645 80.0033 60.4234 80.0033 60.5945C80.0033 61.8167 80.0033 63.7112 80.0033 65.1289C79.9939 65.2857 79.9693 65.4413 79.93 65.5934C79.6851 69.9843 78.9136 74.3298 77.6322 78.5367C77.4855 79.0378 77.3267 79.1111 76.85 78.9767C73.1403 77.9974 69.3394 77.4035 65.5078 77.2045H65.0433C64.6522 77.2045 64.2489 77.2045 63.8211 77.2045C61.4744 77.1067 58.5411 77.2045 58.5411 77.2045ZM69.5411 92.2134C67.9077 93.6809 65.9118 94.6851 63.76 95.1223C63.2833 95.22 63.0511 95.1956 63.0511 94.5723C63.0511 92.1278 63.0511 89.6834 63.0511 87.2389C63.0511 84.7945 63.0511 82.35 63.0511 79.9056C63.0511 79.49 63.1367 79.38 63.5767 79.38C67.8116 79.4878 72.0215 80.0658 76.1289 81.1034C76.5567 81.2134 76.7278 81.2989 76.52 81.8123C75.0221 85.7777 72.6199 89.339 69.5044 92.2134H69.5411ZM70.9222 93.8756C72.1494 92.7632 73.2668 91.5353 74.2589 90.2089C76.0405 87.8019 77.4915 85.1669 78.5733 82.3745C78.7689 81.8734 78.9644 81.8 79.4655 81.9711C81.7177 82.7588 83.8974 83.7403 85.98 84.9045C82.9244 88.6323 73.8555 94.0345 70.8855 93.8756H70.9222ZM87.8989 82.8756C87.6178 83.2178 87.4589 83.3156 87.0311 83.0589C84.8429 81.7892 82.5234 80.7606 80.1133 79.9911C79.6489 79.8445 79.5633 79.6734 79.71 79.2334C81.248 74.3041 82.0712 69.1797 82.1544 64.0167C82.1544 63.4178 82.3011 63.1978 82.9611 63.2223C84.8433 63.2223 86.7378 63.2223 88.6322 63.2223H94.5844C94.9878 63.2223 95.1222 63.2223 95.0978 63.7356C94.7388 70.6839 92.208 77.3443 87.8622 82.7778L87.8989 82.8756ZM94.6333 60.9734C92.6289 60.9734 90.6244 60.9734 88.62 60.9734C86.6155 60.9734 84.7944 60.9734 82.8755 60.9734C82.3378 60.9734 82.1789 60.8267 82.1789 60.3012C82.0793 55.5536 81.3728 50.8383 80.0767 46.27C79.8933 45.6223 79.3311 44.84 79.6367 44.3389C79.9422 43.8378 80.8589 43.85 81.4333 43.6178C83.3275 42.913 85.1591 42.0503 86.9089 41.0389C86.9704 40.983 87.0441 40.9421 87.1241 40.9195C87.2042 40.8968 87.2884 40.8931 87.3701 40.9085C87.4518 40.9239 87.5289 40.958 87.5952 41.0082C87.6615 41.0584 87.7152 41.1233 87.7522 41.1978C92.1795 46.682 94.7477 53.4322 95.0855 60.4723C95.1344 60.8878 95 60.9734 94.6333 60.9734Z" fill="#058054"/>
<path d="M26.5555 61.3767C26.6578 61.5926 26.7108 61.8284 26.7108 62.0673C26.7108 62.3061 26.6578 62.542 26.5555 62.7578V61.3767Z" fill="#058054"/>
<path d="M26.6167 60.1299C26.6167 60.2888 26.69 60.4477 26.5067 60.5455V60.1299C26.5067 60.1299 26.5555 60.0688 26.6167 60.1299Z" fill="#058054"/>
<path d="M26.6167 63.7356C26.6167 63.8822 26.7267 64.0656 26.5067 64.1511V63.7356C26.5555 63.6622 26.5555 63.6745 26.6167 63.7356Z" fill="#058054"/>
<path d="M59.4333 97.4445C59.5189 97.2245 59.7022 97.3345 59.8489 97.3345C59.9956 97.3345 59.8489 97.3345 59.8489 97.4078C59.8489 97.4078 59.8489 97.4812 59.8489 97.4078L59.4333 97.4445Z" fill="#058054"/>
<path d="M26.6167 60.13H26.5555V59.8611C26.6778 59.8855 26.6289 60.0078 26.6167 60.13Z" fill="#058054"/>
<path d="M26.6167 63.7356H26.5555V63.4545C26.6411 63.5156 26.6411 63.6134 26.6167 63.7356Z" fill="#058054"/>
<path d="M59.8489 97.4445C59.9711 97.4445 60.0689 97.4445 60.13 97.5545L59.8489 97.4445Z" fill="#058054"/>
<path d="M63.7233 97.4444C63.7497 97.3928 63.7944 97.3529 63.8487 97.3325C63.9029 97.3122 63.9629 97.3129 64.0167 97.3345C64.0167 97.3345 64.0167 97.3344 64.0167 97.4078L63.7233 97.4444Z" fill="#058054"/>
<path d="M64.0044 97.4445C63.9985 97.408 63.9985 97.3709 64.0044 97.3345C64.1144 97.3345 64.2367 97.3345 64.2733 97.4445H64.0044Z" fill="#058054"/>
<path d="M43.8867 59.9833C43.8867 60.1666 43.8867 60.3744 43.8867 60.5944C43.8807 60.558 43.8807 60.5208 43.8867 60.4844C43.8622 60.3133 43.8744 60.1544 43.8867 59.9833Z" fill="#058054"/>
<path d="M65.0189 77.18C64.6278 77.18 64.2245 77.18 63.7967 77.18C64.2611 77.1433 64.6645 77.1678 65.0189 77.18Z" fill="#058054"/>
<path d="M80.0156 60.1056C80.0156 59.7756 80.0156 59.4578 80.0156 59.1278C80.0156 59.1278 80.0033 59.5556 80.0156 60.1056Z" fill="#058054"/>
<path d="M58.8589 63.4666L54.9111 67.5244V74.2222H51.77V50.34H54.9111V63.4666L67.6956 50.34H71.5456L60.9734 61.2544L72.23 74.2222H68.2089L58.8589 63.4666Z" fill="#058054"/>
</svg>
