<svg width="124" height="124" viewBox="0 0 124 124" fill="none" xmlns="http://www.w3.org/2000/svg">
<circle opacity="0.35" cx="62" cy="62" r="62" fill="#D5F3E5"/>
<path d="M51.4278 31.1389C49.0759 31.1243 46.7728 31.8089 44.8107 33.1057C42.8486 34.4026 41.3161 36.2531 40.4077 38.4225C39.4993 40.5919 39.2559 42.9822 39.7085 45.2902C40.1611 47.5981 41.2892 49.7195 42.9497 51.3852C44.6101 53.0508 46.7281 54.1855 49.0346 54.6452C51.3411 55.105 53.7322 54.869 55.9044 53.9674C58.0766 53.0657 59.9319 51.5389 61.2348 49.5809C62.5377 47.6229 63.2294 45.3218 63.2222 42.97C63.2062 39.8434 61.9596 36.8489 59.7523 34.6347C57.5449 32.4204 54.5542 31.1645 51.4278 31.1389ZM51.33 52.5033C49.4507 52.5009 47.6144 51.9409 46.0535 50.8943C44.4926 49.8477 43.2773 48.3615 42.5615 46.6239C41.8457 44.8862 41.6615 42.9753 42.0323 41.1329C42.4031 39.2906 43.3122 37.5996 44.6444 36.2742C45.9767 34.9488 47.6723 34.0484 49.5166 33.6871C51.3608 33.3258 53.2708 33.5198 55.0047 34.2446C56.7386 34.9694 58.2185 36.1923 59.2571 37.7586C60.2956 39.3248 60.8461 41.164 60.8389 43.0433C60.8292 45.5577 59.8227 47.9657 58.0401 49.7391C56.2575 51.5125 53.8444 52.5066 51.33 52.5033ZM51.4278 31.1389C49.0759 31.1243 46.7728 31.8089 44.8107 33.1057C42.8486 34.4026 41.3161 36.2531 40.4077 38.4225C39.4993 40.5919 39.2559 42.9822 39.7085 45.2902C40.1611 47.5981 41.2892 49.7195 42.9497 51.3852C44.6101 53.0508 46.7281 54.1855 49.0346 54.6452C51.3411 55.105 53.7322 54.869 55.9044 53.9674C58.0766 53.0657 59.9319 51.5389 61.2348 49.5809C62.5377 47.6229 63.2294 45.3218 63.2222 42.97C63.2062 39.8434 61.9596 36.8489 59.7523 34.6347C57.5449 32.4204 54.5542 31.1645 51.4278 31.1389ZM51.33 52.5033C49.4507 52.5009 47.6144 51.9409 46.0535 50.8943C44.4926 49.8477 43.2773 48.3615 42.5615 46.6239C41.8457 44.8862 41.6615 42.9753 42.0323 41.1329C42.4031 39.2906 43.3122 37.5996 44.6444 36.2742C45.9767 34.9488 47.6723 34.0484 49.5166 33.6871C51.3608 33.3258 53.2708 33.5198 55.0047 34.2446C56.7386 34.9694 58.2185 36.1923 59.2571 37.7586C60.2956 39.3248 60.8461 41.164 60.8389 43.0433C60.8292 45.5577 59.8227 47.9657 58.0401 49.7391C56.2575 51.5125 53.8444 52.5066 51.33 52.5033ZM97.6033 64.4444C97.6122 63.5954 97.3913 62.7599 96.9639 62.0263C96.5364 61.2927 95.9185 60.6884 95.1756 60.2774C94.4326 59.8665 93.5923 59.6642 92.7438 59.692C91.8952 59.7199 91.07 59.9768 90.3555 60.4355C89.94 60.6922 89.7444 60.68 89.4266 60.3011C88.7196 59.36 87.6759 58.7288 86.5141 58.5397C85.3522 58.3506 84.1623 58.6183 83.1933 59.2866C82.7411 59.5677 82.5944 59.4577 82.3255 59.1155C81.8535 58.5059 81.2386 58.022 80.5352 57.7065C79.8317 57.391 79.0614 57.2537 78.2922 57.3066C77.594 57.4099 76.912 57.603 76.2633 57.8811V57.0133C76.2633 50.8044 76.2633 44.6037 76.2633 38.4111C76.2959 37.2747 75.9149 36.165 75.1911 35.2883C74.4673 34.4117 73.4498 33.8275 72.3278 33.6444C71.2383 33.4805 70.1249 33.6689 69.15 34.1822V30.3689C69.1974 29.8321 69.126 29.2915 68.9408 28.7855C68.7556 28.2795 68.4611 27.8206 68.0784 27.4413C67.6956 27.0621 67.234 26.7718 66.7263 26.5913C66.2186 26.4107 65.6774 26.3442 65.1411 26.3966H37.5555C37.0125 26.3425 36.4642 26.4102 35.9507 26.595C35.4372 26.7797 34.9714 27.0767 34.5873 27.4643C34.2031 27.852 33.9104 28.3204 33.7304 28.8356C33.5503 29.3508 33.4876 29.8997 33.5467 30.4422V52.4422C33.5467 53.6644 33.5467 53.6644 32.3244 53.6644C30.9325 53.6474 29.581 54.132 28.5172 55.0298C27.4533 55.9276 26.7483 57.1783 26.5311 58.5533C26.2622 60.7356 26.2376 62.9411 26.4578 65.1289C26.6533 68.0377 26.9955 70.9222 27.2889 73.8189C27.5822 76.7155 27.8878 79.5755 28.1078 82.4477C28.4931 85.4851 28.7134 88.541 28.7678 91.6022C28.7678 93.1055 28.7678 94.6088 28.7678 96.1244C28.7678 97.2 29.1711 97.5911 30.2467 97.5911H55.7789C56.8544 97.5911 57.27 97.2 57.27 96.1244C57.27 94.1811 57.27 92.2255 57.27 90.27C57.2459 89.9285 57.3362 89.5888 57.5267 89.3044C58.8222 87.4711 60.1055 85.6377 61.4011 83.78C62.2713 83.3321 63.2744 83.2148 64.2244 83.45C64.2603 83.4875 64.2857 83.5339 64.2978 83.5844C64.9077 84.9232 65.3194 86.3436 65.52 87.8011C65.52 90.5511 65.52 93.2888 65.52 96.0388C65.52 97.2611 65.9111 97.5911 67.06 97.6033H90.1844C91.2967 97.6033 91.6878 97.2122 91.6878 96.0877C91.6878 93.3092 91.6878 90.5429 91.6878 87.7889C91.6826 87.3722 91.753 86.9581 91.8955 86.5666C93.2522 82.8022 94.6089 79.05 95.9289 75.2733C96.5794 73.7175 97.0866 72.1056 97.4444 70.4577C97.6538 68.4605 97.707 66.4499 97.6033 64.4444ZM54.9111 94.5966C54.9111 95.0489 54.8255 95.2444 54.3 95.2444C46.7955 95.2444 39.2829 95.2444 31.7622 95.2444C31.2611 95.2444 31.1389 95.0611 31.1511 94.5966C31.1511 93.4314 31.1511 92.2703 31.1511 91.1133C31.1511 90.5633 31.3344 90.4777 31.8233 90.4777C35.5878 90.4777 39.34 90.4777 43.1044 90.4777C46.8689 90.4777 50.4378 90.4777 54.1044 90.4777C54.8133 90.4777 54.9722 90.6977 54.9478 91.3455C54.8622 92.4089 54.8867 93.5089 54.9111 94.5966ZM55.6933 87.8011C55.6162 87.9108 55.5105 87.9974 55.3877 88.0513C55.2649 88.1051 55.1296 88.1243 54.9967 88.1066H31.5789C31.1511 88.1066 31.0411 87.9477 31.0044 87.5444C30.6378 83.6333 30.2222 79.71 29.8555 75.7866C29.5744 72.9266 29.4033 70.0544 29.0611 67.2311C28.8277 64.794 28.7379 62.3453 28.7922 59.8977C28.7703 59.407 28.8495 58.9169 29.0251 58.4581C29.2006 57.9993 29.4687 57.5815 29.8126 57.2307C30.1565 56.8799 30.5689 56.6036 31.0241 56.419C31.4794 56.2345 31.9678 56.1455 32.4589 56.1577H40.4644C41.4077 56.1577 42.3124 56.5325 42.9794 57.1995C43.6464 57.8665 44.0211 58.7711 44.0211 59.7144C44.0211 60.6577 43.6464 61.5623 42.9794 62.2294C42.3124 62.8964 41.4077 63.2711 40.4644 63.2711H34.94C33.9622 63.2711 33.5466 63.6744 33.5344 64.6644C33.5344 69.7244 33.5344 74.7885 33.5344 79.8566C33.5328 80.3274 33.6243 80.7938 33.8037 81.229C33.9831 81.6642 34.2469 82.0596 34.5797 82.3925C34.9126 82.7253 35.308 82.989 35.7432 83.1684C36.1784 83.3478 36.6448 83.4394 37.1155 83.4377C44.0089 83.4377 50.89 83.4377 57.7955 83.4377H58.7733C57.6855 84.9289 56.6955 86.3711 55.6933 87.8011ZM37.4333 80.9811C36.3089 80.9811 35.9178 80.59 35.9055 79.4777C35.9055 78.61 35.9055 77.7422 35.9055 76.8744C35.8444 76.2388 36.1744 76.2389 36.6511 76.2389H54.0678C54.9355 76.2389 55.8155 76.2389 56.6711 76.2389C57.0867 76.2389 57.2822 76.1655 57.2944 75.6766C57.2944 73.8555 57.2944 73.8555 55.4978 73.8555C49.24 73.8555 42.9944 73.8555 36.7366 73.8555C36.0278 73.8555 35.8933 73.6477 35.9055 72.9877C35.9055 70.7633 35.9055 68.5389 35.9055 66.3266C35.9055 65.6422 36.1133 65.52 36.7366 65.52C38.44 65.626 40.1492 65.5851 41.8455 65.3977C43.2731 65.1235 44.5497 64.3333 45.4317 63.1778C46.3137 62.0224 46.7394 60.5826 46.6276 59.1333C46.5158 57.684 45.8742 56.3266 44.8254 55.3201C43.7765 54.3136 42.3938 53.7286 40.9411 53.6766C39.4989 53.6766 38.0689 53.6766 36.6266 53.6766C36.1011 53.6766 35.9178 53.5911 35.9178 52.9922C35.9178 45.4063 35.9178 37.8203 35.9178 30.2344C35.9178 29.1589 36.3333 28.7433 37.3966 28.7433H65.2755C66.3633 28.7433 66.7667 29.1589 66.7667 30.2222C66.7667 38.0363 66.7667 45.8463 66.7667 53.6522C66.7667 54.1411 66.7666 54.2877 66.18 54.0555C65.4605 53.7477 64.6754 53.6247 63.8963 53.6976C63.1171 53.7706 62.3685 54.0372 61.7187 54.4733C61.0689 54.9093 60.5384 55.501 60.1755 56.1943C59.8127 56.8877 59.629 57.6608 59.6411 58.4433C59.6411 62.0122 59.6411 65.5689 59.6411 69.1255C59.7349 70.5579 60.0739 71.9635 60.6433 73.2811C61.507 75.7255 62.3789 78.17 63.2589 80.6144C63.2589 80.7 63.2589 80.7977 63.3444 80.9689L37.4333 80.9811ZM70.9589 95.2444C70.1522 95.2444 69.3211 95.2444 68.5144 95.2444C68.1111 95.2444 67.94 95.1711 67.9522 94.7189C67.9522 92.69 67.9522 90.6611 67.9522 88.6077C67.9522 88.2411 68.0255 88.0577 68.4411 88.07C69.2966 88.07 70.1644 88.07 71.0322 88.07C71.4478 88.07 71.5333 88.2411 71.5211 88.6077C71.5211 89.61 71.5211 90.6244 71.5211 91.6389C71.5211 92.6533 71.5211 93.6311 71.5211 94.6089C71.5333 95.0611 71.4478 95.2689 70.9589 95.2444ZM77.4611 94.6822C77.4611 95.11 77.3389 95.2566 76.9111 95.2322C76.08 95.2322 75.2366 95.2322 74.3933 95.2322C74.0144 95.2322 73.88 95.1222 73.88 94.7311C73.88 92.6777 73.88 90.6366 73.88 88.62C73.88 88.2777 74.0022 88.1433 74.3444 88.1433C75.2163 88.1433 76.0841 88.1433 76.9478 88.1433C77.3389 88.1433 77.4733 88.2655 77.4611 88.6566C77.4611 89.6955 77.4611 90.7344 77.4611 91.7733C77.4611 92.8122 77.4244 93.7044 77.4611 94.6822ZM83.3889 94.5844C83.3889 95.1222 83.23 95.2689 82.7289 95.2444C81.9344 95.2444 81.14 95.2444 80.2844 95.2444C79.93 95.2444 79.7467 95.2444 79.7467 94.7677C79.7467 92.7144 79.7467 90.6611 79.7467 88.6566C79.7467 88.3389 79.8078 88.1555 80.1989 88.1555C81.0789 88.1555 81.9711 88.1555 82.8511 88.1555C83.2178 88.1555 83.3155 88.3022 83.3155 88.6444C83.3155 89.6833 83.3155 90.7222 83.3155 91.7611C83.3155 92.8 83.3522 93.6311 83.3889 94.5844ZM89.3166 91.7244C89.3166 92.7144 89.3166 93.7044 89.3166 94.6822C89.3166 95.11 89.2066 95.2566 88.7789 95.2322C87.9355 95.2322 87.1044 95.2322 86.2611 95.2322C85.87 95.2322 85.7478 95.1222 85.76 94.7311V88.62C85.76 88.2777 85.8578 88.1433 86.2244 88.1433C87.08 88.1433 87.9478 88.1433 88.8155 88.1433C89.1944 88.1433 89.3289 88.2655 89.3166 88.6566C89.3044 89.6466 89.3166 90.6855 89.3166 91.7244ZM95.2444 69.3333C95.0951 70.6622 94.7319 71.9581 94.1689 73.1711C92.7755 77.1433 91.3211 81.1033 89.9278 85.0877C89.7444 85.5766 89.5366 85.7722 88.9989 85.76C82.0892 85.76 75.1878 85.76 68.2944 85.76C68.0823 85.7956 67.8647 85.7463 67.6886 85.6228C67.5125 85.4993 67.3921 85.3115 67.3533 85.1C65.7522 80.5655 64.1144 76.0433 62.4644 71.5089C62.1423 70.6277 61.9769 69.697 61.9755 68.7589C61.9755 65.3489 61.9755 61.9389 61.9755 58.5289C61.9642 58.0341 62.1072 57.5481 62.3846 57.1383C62.6619 56.7285 63.06 56.4152 63.5235 56.2419C63.987 56.0686 64.493 56.0439 64.9712 56.1712C65.4494 56.2984 65.8762 56.5714 66.1922 56.9522C66.5657 57.4228 66.7528 58.0146 66.7178 58.6144C66.7178 61.4744 66.7178 64.3466 66.7178 67.17C66.7178 67.7444 66.8767 67.9155 67.4633 67.9155C69.1011 67.9155 69.1011 67.9155 69.1011 66.29V38.3744C69.0911 37.8637 69.2414 37.3628 69.5308 36.9419C69.8201 36.521 70.2341 36.2013 70.7144 36.0277C71.171 35.8664 71.6663 35.8503 72.1324 35.9816C72.5985 36.1129 73.0125 36.3852 73.3178 36.7611C73.7109 37.274 73.9022 37.9132 73.8555 38.5577V66.8889C73.8555 68.1111 73.6844 67.9766 74.9433 67.9889C76.2022 68.0011 76.2266 67.9888 76.2266 66.7055C76.2266 65.2144 76.2266 63.7233 76.2266 62.2566C76.1929 61.925 76.2291 61.59 76.333 61.2733C76.4368 60.9566 76.6059 60.6651 76.8293 60.4178C77.0528 60.1705 77.3256 59.9728 77.6302 59.8375C77.9348 59.7022 78.2645 59.6322 78.5978 59.6322C78.9311 59.6322 79.2607 59.7022 79.5653 59.8375C79.8699 59.9728 80.1427 60.1705 80.3662 60.4178C80.5897 60.6651 80.7588 60.9566 80.8626 61.2733C80.9664 61.59 81.0026 61.925 80.9689 62.2566C80.9689 63.9555 80.9689 65.6666 80.9689 67.3655C80.9689 67.8055 81.0789 67.9644 81.5433 67.9766C83.34 67.9766 83.34 67.9766 83.34 66.2411C83.34 65.2389 83.34 64.2489 83.34 63.2711C83.3284 62.9531 83.3813 62.6362 83.4955 62.3392C83.6096 62.0422 83.7826 61.7714 84.0041 61.5431C84.2256 61.3147 84.491 61.1335 84.7844 61.0104C85.0777 60.8873 85.393 60.8248 85.7111 60.8266C86.3466 60.8457 86.9497 61.1116 87.3924 61.568C87.835 62.0244 88.0825 62.6353 88.0822 63.2711C88.0822 64.9944 88.0822 66.73 88.0822 68.4533C88.0822 68.9422 88.1678 69.1622 88.73 69.1622C90.4655 69.1622 90.4655 69.1622 90.4655 67.4266C90.4655 66.4366 90.4655 65.4466 90.4655 64.4566C90.4421 64.1301 90.4862 63.8023 90.595 63.4935C90.7039 63.1848 90.8752 62.9018 91.0982 62.6622C91.3213 62.4226 91.5913 62.2315 91.8914 62.1008C92.1916 61.9702 92.5154 61.9027 92.8428 61.9027C93.1701 61.9027 93.494 61.9702 93.7941 62.1008C94.0942 62.2315 94.3643 62.4226 94.5873 62.6622C94.8103 62.9018 94.9816 63.1848 95.0905 63.4935C95.1993 63.8023 95.2434 64.1301 95.22 64.4566C95.2689 66.0577 95.2689 67.6833 95.2444 69.3333ZM63.2222 42.97C63.2149 40.6228 62.5118 38.3304 61.2017 36.3828C59.8917 34.4352 58.0335 32.9198 55.8622 32.0283C53.6908 31.1368 51.3039 30.9091 49.0032 31.3742C46.7025 31.8392 44.5914 32.976 42.9368 34.6409C41.2822 36.3057 40.1585 38.4238 39.7076 40.7274C39.2568 43.0309 39.4992 45.4164 40.4042 47.5821C41.3091 49.7479 42.8359 51.5967 44.7916 52.8947C46.7472 54.1927 49.0439 54.8816 51.3911 54.8744C54.5356 54.855 57.5448 53.5923 59.7614 51.3619C61.9781 49.1314 63.2223 46.1146 63.2222 42.97ZM51.3544 52.5033C49.4751 52.5009 47.6388 51.9409 46.0779 50.8943C44.517 49.8477 43.3017 48.3615 42.5859 46.6239C41.8701 44.8862 41.6859 42.9753 42.0567 41.1329C42.4275 39.2906 43.3366 37.5996 44.6689 36.2742C46.0012 34.9488 47.6968 34.0484 49.541 33.6871C51.3853 33.3258 53.2952 33.5198 55.0292 34.2446C56.7631 34.9694 58.243 36.1923 59.2815 37.7586C60.3201 39.3248 60.8706 41.164 60.8633 43.0433C60.8585 44.2904 60.6081 45.5244 60.1264 46.6747C59.6447 47.8251 58.9412 48.8693 58.0559 49.7477C57.1706 50.6262 56.121 51.3217 54.967 51.7945C53.813 52.2673 52.5771 52.5081 51.33 52.5033H51.3544Z" fill="#058054"/>
<path d="M93.3622 38.2645H86.9944C84.8189 38.2645 82.6433 38.2645 80.4678 38.2645C80.0278 38.2645 79.8078 38.2034 79.8078 37.6656C79.8078 35.8811 79.8078 35.8811 81.5555 35.8811H93.57L91.5044 33.8889C90.7711 33.1434 90.7467 33.3267 91.5044 32.5445C92.5067 31.53 92.5189 31.5422 93.5333 32.5445L97.0411 36.0522C97.8355 36.8467 97.8233 37.4089 97.0411 38.2034C95.6844 39.5722 94.3033 40.9289 92.9589 42.31C92.6411 42.6278 92.4578 42.6278 92.1278 42.31C90.9056 41.0878 90.82 41.0878 92.1278 39.7556C92.5555 39.3278 93.0078 38.9122 93.46 38.5334L93.3622 38.2645Z" fill="#058054"/>
<path d="M82.6678 45.39C87.1411 45.39 91.37 45.39 95.5989 45.39C96.2467 45.39 96.4789 45.5366 96.4544 46.2333C96.4544 47.7855 96.4544 47.7855 94.9144 47.7855H82.6922C83.4989 48.5922 84.1589 49.3011 84.8678 49.9488C85.2711 50.3277 85.3689 50.56 84.8678 51C83.6456 52.1611 83.6456 52.2222 82.4233 51L79.0744 47.6388C78.9055 47.5275 78.7669 47.376 78.6709 47.1979C78.575 47.0198 78.5247 46.8206 78.5247 46.6183C78.5247 46.416 78.575 46.2168 78.6709 46.0387C78.7669 45.8606 78.9055 45.7091 79.0744 45.5977C80.4433 44.2044 81.8367 42.8355 83.2056 41.4422C83.5356 41.1 83.7433 41.0877 84.0978 41.4422C85.32 42.6644 85.32 42.6644 84.0978 43.9477L82.6678 45.39Z" fill="#058054"/>
<path d="M51.4278 31.1389C49.0759 31.1244 46.7728 31.809 44.8107 33.1058C42.8486 34.4026 41.3161 36.2531 40.4077 38.4225C39.4993 40.5919 39.2559 42.9823 39.7085 45.2902C40.1611 47.5982 41.2892 49.7196 42.9497 51.3852C44.6101 53.0508 46.7281 54.1855 49.0346 54.6453C51.3411 55.105 53.7322 54.8691 55.9044 53.9674C58.0766 53.0657 59.9319 51.539 61.2348 49.5809C62.5377 47.6229 63.2294 45.3219 63.2222 42.97C63.2062 39.8435 61.9596 36.849 59.7522 34.6347C57.5448 32.4204 54.5542 31.1646 51.4278 31.1389ZM51.33 52.5033C49.4507 52.5009 47.6144 51.9409 46.0535 50.8943C44.4926 49.8477 43.2773 48.3615 42.5615 46.6239C41.8457 44.8863 41.6615 42.9753 42.0323 41.133C42.4031 39.2906 43.3122 37.5997 44.6444 36.2742C45.9767 34.9488 47.6723 34.0485 49.5166 33.6872C51.3608 33.3259 53.2708 33.5199 55.0047 34.2447C56.7386 34.9694 58.2185 36.1923 59.2571 37.7586C60.2956 39.3249 60.8461 41.1641 60.8389 43.0433C60.8292 45.5578 59.8227 47.9657 58.0401 49.7391C56.2575 51.5125 53.8444 52.5066 51.33 52.5033Z" fill="#058054"/>
<path d="M51.4278 31.1389C49.0759 31.1244 46.7728 31.809 44.8107 33.1058C42.8486 34.4026 41.3161 36.2531 40.4077 38.4225C39.4993 40.5919 39.2559 42.9823 39.7085 45.2902C40.1611 47.5982 41.2892 49.7196 42.9497 51.3852C44.6101 53.0508 46.7281 54.1855 49.0346 54.6453C51.3411 55.105 53.7322 54.8691 55.9044 53.9674C58.0766 53.0657 59.9319 51.539 61.2348 49.5809C62.5377 47.6229 63.2294 45.3219 63.2222 42.97C63.2062 39.8435 61.9596 36.849 59.7522 34.6347C57.5448 32.4204 54.5542 31.1646 51.4278 31.1389ZM51.33 52.5033C49.4507 52.5009 47.6144 51.9409 46.0535 50.8943C44.4926 49.8477 43.2773 48.3615 42.5615 46.6239C41.8457 44.8863 41.6615 42.9753 42.0323 41.133C42.4031 39.2906 43.3122 37.5997 44.6444 36.2742C45.9767 34.9488 47.6723 34.0485 49.5166 33.6872C51.3608 33.3259 53.2708 33.5199 55.0047 34.2447C56.7386 34.9694 58.2185 36.1923 59.2571 37.7586C60.2956 39.3249 60.8461 41.1641 60.8389 43.0433C60.8292 45.5578 59.8227 47.9657 58.0401 49.7391C56.2575 51.5125 53.8444 52.5066 51.33 52.5033Z" fill="#058054"/>
<path d="M55.8889 41.5156H57.3922C57.5197 41.5298 57.6477 41.4947 57.75 41.4174C57.8523 41.3401 57.9211 41.2265 57.9422 41.1V40.8922C57.9052 40.764 57.8227 40.6536 57.7103 40.5816C57.5979 40.5097 57.4631 40.481 57.3311 40.5011H55.7667C55.6689 40.5011 55.6444 40.5011 55.6444 40.3667V38.1667C55.6625 37.996 55.6625 37.824 55.6444 37.6533C55.6153 37.4981 55.5314 37.3585 55.4081 37.2598C55.2847 37.1611 55.1301 37.1099 54.9722 37.1156C54.8218 37.1022 54.6716 37.1428 54.5484 37.2302C54.4252 37.3175 54.3372 37.4459 54.3 37.5922C54.2456 37.7829 54.2208 37.9807 54.2267 38.1789V40.3789C54.2267 40.4522 54.2267 40.5011 54.1167 40.5011C53.0655 40.5011 52.0022 40.5011 50.9511 40.5011C50.8778 40.5011 50.8411 40.5011 50.7922 40.4033L50.3522 39.7189C49.8755 39.0222 49.4233 38.3133 48.9589 37.6045C48.8587 37.4283 48.7068 37.2871 48.5238 37.2C48.3408 37.1129 48.1355 37.084 47.9356 37.1174C47.7357 37.1507 47.5508 37.2446 47.4059 37.3863C47.2611 37.5281 47.1632 37.7109 47.1255 37.91C47.1069 38.1051 47.1069 38.3016 47.1255 38.4967C47.1255 39.12 47.1255 39.7189 47.1255 40.3667C47.1255 40.4767 47.1255 40.5011 46.9911 40.5011H45.28C45.1745 40.4992 45.0709 40.5298 44.9834 40.5889C44.8959 40.6479 44.8288 40.7325 44.7911 40.8311C44.7649 40.9069 44.7578 40.988 44.7703 41.0672C44.7829 41.1464 44.8147 41.2213 44.863 41.2853C44.9113 41.3493 44.9746 41.4004 45.0473 41.4342C45.12 41.4679 45.1999 41.4833 45.28 41.4789C45.83 41.4789 46.38 41.4789 46.93 41.4789C47.0155 41.4789 47.04 41.4789 47.0278 41.5889C47.0278 42.09 47.0278 42.5789 47.0278 43.08C47.0278 43.19 47.0278 43.2022 46.8933 43.2022H45.3044C45.1826 43.195 45.0619 43.2295 44.9622 43.3C44.8816 43.361 44.8219 43.4454 44.7912 43.5417C44.7606 43.638 44.7605 43.7415 44.7911 43.8378C44.8205 43.9378 44.8818 44.0253 44.9657 44.0871C45.0496 44.1489 45.1514 44.1816 45.2555 44.18H46.9178C47.0155 44.18 47.04 44.18 47.04 44.3022C47.04 45.1456 47.04 45.9889 47.04 46.8322C47.0219 46.9988 47.0219 47.1668 47.04 47.3333C47.0682 47.4888 47.1493 47.6298 47.2696 47.7323C47.3899 47.8348 47.542 47.8925 47.7 47.8956C47.8535 47.9113 48.0078 47.8737 48.1368 47.7891C48.2659 47.7046 48.362 47.5781 48.4089 47.4311C48.4798 47.2399 48.509 47.0357 48.4944 46.8322V44.29C48.4944 44.1922 48.4944 44.1678 48.6167 44.1678H51.4889C51.5207 44.1658 51.5524 44.1728 51.5805 44.1879C51.6086 44.203 51.6319 44.2257 51.6478 44.2533C51.8678 44.6078 52.1 44.95 52.32 45.2922C52.7844 45.9889 53.2 46.71 53.7133 47.3578C53.8245 47.518 53.9723 47.6493 54.1445 47.7407C54.3168 47.8322 54.5084 47.8811 54.7033 47.8833C54.8062 47.8988 54.9111 47.8937 55.012 47.8681C55.1128 47.8426 55.2075 47.7972 55.2906 47.7346C55.3737 47.672 55.4435 47.5935 55.4958 47.5036C55.5482 47.4137 55.5821 47.3143 55.5955 47.2111C55.6137 47.0242 55.6137 46.8359 55.5955 46.6489V44.2778C55.5955 44.1922 55.5955 44.1678 55.6933 44.1678C56.2189 44.1678 56.7444 44.1678 57.2578 44.1678C57.3913 44.1884 57.5278 44.1602 57.6423 44.0884C57.7568 44.0166 57.8416 43.9059 57.8811 43.7767V43.5811C57.8602 43.456 57.7937 43.343 57.6944 43.264C57.595 43.185 57.47 43.1456 57.3433 43.1533H55.8889C55.73 43.1533 55.7178 43.1533 55.7178 42.9822V41.6989C55.6811 41.5156 55.6811 41.5156 55.8889 41.5156ZM48.5555 39.5233L49.1911 40.4889H48.5555H48.4944C48.5556 40.1345 48.5555 39.8289 48.5555 39.5233ZM50.9267 43.19H48.6533C48.5555 43.19 48.5311 43.19 48.5311 43.08V41.5767C48.5311 41.4911 48.5311 41.4667 48.6289 41.4667C48.9955 41.4667 49.3744 41.4667 49.7411 41.4667C49.7651 41.465 49.7891 41.4698 49.8106 41.4805C49.8321 41.4913 49.8503 41.5076 49.8633 41.5278L50.9267 43.1533V43.19ZM54.1778 45.5489L53.2611 44.1556H54.1533C54.1533 44.1556 54.1533 44.1556 54.1533 44.2167L54.1778 45.5489ZM54.1778 43.1045C54.1778 43.1778 54.1778 43.2022 54.08 43.2022H52.6867C52.6255 43.2022 52.5889 43.2022 52.5522 43.2022L51.4522 41.5278H54.0678C54.1656 41.5278 54.1778 41.5278 54.1778 41.65V43.1045Z" fill="#058054"/>
</svg>
