<svg width="57" height="54" viewBox="0 0 57 54" fill="none" xmlns="http://www.w3.org/2000/svg">
<path d="M40.3333 31.9999C41.7778 31.9999 42.9722 31.5277 43.9167 30.5833C44.8611 29.6388 45.3333 28.4444 45.3333 26.9999C45.3333 25.5555 44.8611 24.361 43.9167 23.4166C42.9722 22.4721 41.7778 21.9999 40.3333 21.9999C38.8889 21.9999 37.6944 22.4721 36.75 23.4166C35.8055 24.361 35.3333 25.5555 35.3333 26.9999C35.3333 28.4444 35.8055 29.6388 36.75 30.5833C37.6944 31.5277 38.8889 31.9999 40.3333 31.9999ZM5.74998 53.6666C4.19442 53.6666 2.90331 53.1533 1.87665 52.1266C0.847757 51.0977 0.333313 49.8055 0.333313 48.2499V5.74992C0.333313 4.19436 0.847757 2.90325 1.87665 1.87658C2.90331 0.847696 4.19442 0.333252 5.74998 0.333252H48.25C49.8055 0.333252 51.0978 0.847696 52.1266 1.87658C53.1533 2.90325 53.6666 4.19436 53.6666 5.74992V15.4999H50.3333V5.74992C50.3333 5.13881 50.1389 4.63881 49.75 4.24992C49.3611 3.86103 48.8611 3.66659 48.25 3.66659H5.74998C5.13887 3.66659 4.63887 3.86103 4.24998 4.24992C3.86109 4.63881 3.66665 5.13881 3.66665 5.74992V48.2499C3.66665 48.861 3.86109 49.361 4.24998 49.7499C4.63887 50.1388 5.13887 50.3333 5.74998 50.3333H48.25C48.8611 50.3333 49.3611 50.1388 49.75 49.7499C50.1389 49.361 50.3333 48.861 50.3333 48.2499V38.4999H53.6666V48.2499C53.6666 49.8055 53.1533 51.0977 52.1266 52.1266C51.0978 53.1533 49.8055 53.6666 48.25 53.6666H5.74998ZM32.4166 40.3333C30.8611 40.3333 29.57 39.8188 28.5433 38.7899C27.5144 37.7632 27 36.4721 27 34.9166V19.0833C27 17.5277 27.5144 16.2355 28.5433 15.2066C29.57 14.1799 30.8611 13.6666 32.4166 13.6666H51.5833C53.1389 13.6666 54.4311 14.1799 55.46 15.2066C56.4866 16.2355 57 17.5277 57 19.0833V34.9166C57 36.4721 56.4866 37.7632 55.46 38.7899C54.4311 39.8188 53.1389 40.3333 51.5833 40.3333H32.4166ZM51.5833 36.9999C52.1944 36.9999 52.6944 36.8055 53.0833 36.4166C53.4722 36.0277 53.6666 35.5277 53.6666 34.9166V19.0833C53.6666 18.4721 53.4722 17.9721 53.0833 17.5833C52.6944 17.1944 52.1944 16.9999 51.5833 16.9999H32.4166C31.8055 16.9999 31.3055 17.1944 30.9166 17.5833C30.5278 17.9721 30.3333 18.4721 30.3333 19.0833V34.9166C30.3333 35.5277 30.5278 36.0277 30.9166 36.4166C31.3055 36.8055 31.8055 36.9999 32.4166 36.9999H51.5833Z" fill="#F88347"/>
</svg>
