<svg width="72" height="72" viewBox="0 0 72 72" fill="none" xmlns="http://www.w3.org/2000/svg">
<rect width="72" height="72" rx="36" fill="#1C2B1D"/>
<path d="M44.5167 45.8452V45.9283C44.5032 45.9017 44.4925 45.8739 44.4847 45.8452H44.5167Z" fill="#11C170"/>
<path d="M49.0655 45.3596V52.6813C49.1214 53.3283 48.9356 53.9731 48.5438 54.4911C48.1521 55.0091 47.5823 55.3636 46.9444 55.486C46.9444 55.486 46.9125 55.5243 46.8933 55.5435H24.4683C24.4305 55.5122 24.3898 55.4844 24.3469 55.4604C23.7514 55.3102 23.23 54.9504 22.878 54.4471C22.526 53.9438 22.3671 53.3305 22.4303 52.7196C22.4303 52.4577 22.4303 52.2021 22.4303 51.9466C22.4303 51.691 22.3472 51.6399 22.1172 51.6399C21.6612 51.6632 21.204 51.6503 20.75 51.6016C20.1531 51.52 19.6028 51.2342 19.1928 50.7928C18.7828 50.3513 18.5384 49.7815 18.5011 49.1802C18.4806 49.0905 18.4797 48.9975 18.4985 48.9075C18.5172 48.8175 18.5552 48.7325 18.6098 48.6585C18.6644 48.5845 18.7343 48.5232 18.8148 48.4787C18.8953 48.4342 18.9844 48.4076 19.0761 48.4007C19.1672 48.3878 19.26 48.3948 19.3481 48.4211C19.4363 48.4474 19.5177 48.4924 19.5869 48.553C19.656 48.6137 19.7113 48.6886 19.7488 48.7726C19.7864 48.8565 19.8053 48.9476 19.8044 49.0396C19.8114 49.3232 19.9124 49.5963 20.0917 49.8161C20.271 50.0359 20.5183 50.1898 20.7947 50.2535C21.0497 50.3386 21.3216 50.3605 21.5869 50.3174H21.9319H42.5553C42.8692 50.3197 43.173 50.2063 43.4086 49.9989C43.6443 49.7915 43.7954 49.5046 43.833 49.1929C43.898 48.3811 43.915 47.5662 43.8842 46.7524C43.8842 46.1774 43.9608 46.0752 44.523 45.9027C45.0597 46.0752 45.1619 46.1966 45.1619 46.7652C45.1619 47.551 45.1619 48.3432 45.1619 49.1291C45.1615 49.544 45.0465 49.9508 44.8297 50.3046C44.5774 50.7365 44.2089 51.0889 43.7661 51.3216C43.3233 51.5543 42.8241 51.6579 42.3253 51.6207H25.4714H25.005H23.9636C23.7975 51.6207 23.7017 51.6591 23.7081 51.8571C23.7081 52.2277 23.7081 52.6046 23.7081 52.9816C23.7209 53.2662 23.8284 53.5383 24.0136 53.7548C24.1988 53.9712 24.4511 54.1196 24.7303 54.1763C24.9748 54.1955 25.2205 54.1955 25.465 54.1763H46.2672C46.47 54.2053 46.6768 54.1866 46.8711 54.1217C47.0654 54.0567 47.2419 53.9473 47.3864 53.8021C47.531 53.6569 47.6397 53.48 47.7038 53.2854C47.7679 53.0908 47.7857 52.884 47.7558 52.6813V45.3724C47.7558 44.7782 47.8453 44.6504 48.3947 44.4524C48.9378 44.6121 49.0655 44.7718 49.0655 45.3596Z" fill="#11C170"/>
<path d="M25.005 26.9343C25.005 27.324 24.7239 27.5732 24.2383 27.5732C23.4717 27.5732 22.7114 27.5732 21.9575 27.5732C21.7974 27.5888 21.6362 27.5587 21.4926 27.4863C21.3489 27.4139 21.2288 27.3022 21.1461 27.1643C21.6087 27.4213 22.1434 27.5179 22.6667 27.439C23.1969 27.439 23.7272 27.439 24.2511 27.439C24.6536 27.439 24.89 27.2473 24.89 26.9598C24.89 26.6723 24.66 26.4232 24.2894 26.3657C24.1086 26.3528 23.9272 26.3528 23.7464 26.3657C22.1555 26.3657 22.3728 26.5382 22.36 24.9537C22.36 23.8421 22.36 22.7304 22.36 21.6251C22.3687 21.432 22.3515 21.2386 22.3089 21.0501C22.3139 20.9414 22.2853 20.8338 22.227 20.7418C22.1687 20.6499 22.0836 20.5781 21.9831 20.5363C21.8826 20.4944 21.7717 20.4845 21.6654 20.5078C21.5591 20.5312 21.4626 20.5867 21.3889 20.6668C21.3122 20.7243 21.2355 20.8073 21.1205 20.7946C21.1908 20.6397 21.3157 20.5163 21.4713 20.4479C21.627 20.3796 21.8023 20.371 21.9639 20.424C22.3408 20.5582 22.4111 20.8904 22.4111 21.2482C22.4111 22.7687 22.4111 24.2893 22.4111 25.8098C22.4111 26.1676 22.5133 26.2571 22.8519 26.2315C23.3055 26.2315 23.7783 26.2315 24.2383 26.2315C24.6983 26.2315 25.0242 26.5254 25.005 26.9343Z" fill="#11C170"/>
<path d="M30.1353 21.4716C29.0875 20.0277 27.3881 20.0341 26.3786 21.5035C25.8824 22.2459 25.6403 23.1291 25.6886 24.0208C25.6588 24.845 25.8817 25.6587 26.3275 26.3527C26.5012 26.6991 26.7643 26.9927 27.0897 27.2032C27.4151 27.4136 27.7908 27.5332 28.178 27.5494C28.5651 27.5657 28.9496 27.4782 29.2915 27.2958C29.6334 27.1135 29.9203 26.843 30.1225 26.5124C30.6081 25.762 30.8675 24.8877 30.8698 23.9939C30.8721 23.1001 30.6171 22.2245 30.1353 21.4716ZM29.0875 25.7074C29.0177 25.8643 28.9039 25.9976 28.7599 26.0912C28.6159 26.1847 28.4478 26.2345 28.2761 26.2345C28.1044 26.2345 27.9363 26.1847 27.7923 26.0912C27.6483 25.9976 27.5345 25.8643 27.4647 25.7074C27.1363 25.1803 26.9621 24.5716 26.9621 23.9505C26.9621 23.3294 27.1363 22.7207 27.4647 22.1935C27.5361 22.0449 27.6481 21.9194 27.7877 21.8316C27.9273 21.7437 28.0888 21.6971 28.2538 21.6971C28.4187 21.6971 28.5803 21.7437 28.7198 21.8316C28.8594 21.9194 28.9714 22.0449 29.0428 22.1935C29.3949 22.7205 29.5777 23.3424 29.5667 23.976C29.5759 24.5871 29.4096 25.188 29.0875 25.7074Z" fill="#11C170"/>
<path d="M30.8636 34.7223C30.8779 34.8674 30.8382 35.0128 30.7522 35.1306C30.6662 35.2484 30.5398 35.3305 30.3972 35.3611C30.2594 35.3956 30.1175 35.4106 29.9756 35.4059H22.0278C21.861 35.4238 21.6925 35.3958 21.5404 35.3248C21.3884 35.2539 21.2587 35.1427 21.1653 35.0034C21.7202 35.2734 22.3426 35.3735 22.9542 35.2909H29.6945C29.9091 35.3049 30.1246 35.2855 30.3333 35.2334C30.4431 35.208 30.5411 35.1462 30.6112 35.058C30.6814 34.9698 30.7195 34.8605 30.7195 34.7478C30.7195 34.6351 30.6814 34.5258 30.6112 34.4376C30.5411 34.3494 30.4431 34.2876 30.3333 34.2622C30.1836 34.2218 30.0281 34.2067 29.8733 34.2175C27.2837 34.2175 24.6941 34.2175 22.1045 34.2175C21.7735 34.245 21.4528 34.3453 21.1653 34.5114C21.2434 34.3725 21.3593 34.2586 21.4995 34.1828C21.6397 34.107 21.7985 34.0726 21.9575 34.0834C24.6408 34.0834 27.3242 34.0834 30.0075 34.0834C30.1158 34.0725 30.225 34.0725 30.3333 34.0834C30.4833 34.1092 30.6192 34.1878 30.7164 34.3049C30.8136 34.4221 30.8658 34.57 30.8636 34.7223Z" fill="#11C170"/>
<path d="M30.8636 31.4766C30.8636 31.86 30.5442 32.1155 30.0586 32.1155H21.932C21.7772 32.1228 21.6233 32.0895 21.4855 32.0189C21.3476 31.9482 21.2306 31.8428 21.1461 31.713C21.7163 31.9853 22.3536 32.0852 22.9797 32.0005H29.6945C29.9085 32.0135 30.1232 31.9985 30.3333 31.9558C30.6017 31.8791 30.787 31.7194 30.7678 31.4319C30.7621 31.3082 30.7116 31.1908 30.6258 31.1015C30.5401 31.0122 30.4248 30.9571 30.3014 30.9464C30.1733 30.9199 30.0424 30.9091 29.9117 30.9144C27.3561 30.9144 24.7622 30.9144 22.1875 30.9144C21.8435 30.9428 21.5088 31.0406 21.2036 31.2019C21.2887 31.0652 21.4105 30.955 21.555 30.8838C21.6995 30.8127 21.8611 30.7834 22.0214 30.7994C24.7111 30.7994 27.4072 30.7994 30.1033 30.7994C30.5506 30.8058 30.8764 31.0805 30.8636 31.4766Z" fill="#11C170"/>
<path d="M30.87 37.9805C30.87 38.3702 30.5506 38.6194 30.0586 38.6194H21.9383C21.7834 38.6279 21.629 38.5952 21.4909 38.5245C21.3529 38.4537 21.2361 38.3476 21.1525 38.2169C21.7065 38.4899 22.3298 38.5901 22.9414 38.5044H29.6944C29.9088 38.521 30.1244 38.5038 30.3333 38.4533C30.4417 38.4291 30.5388 38.3695 30.6094 38.2838C30.68 38.1982 30.72 38.0914 30.7231 37.9805C30.7258 37.8635 30.6878 37.7491 30.6155 37.6571C30.5433 37.565 30.4412 37.5009 30.3269 37.4758C30.1772 37.4353 30.0217 37.4202 29.8669 37.431C27.2794 37.431 24.6856 37.431 22.0981 37.431C21.7677 37.4615 21.4476 37.5616 21.1589 37.7249C21.2416 37.587 21.3617 37.4753 21.5053 37.4029C21.649 37.3305 21.8102 37.3004 21.9703 37.316C24.6664 37.316 27.3625 37.316 30.0586 37.316C30.5506 37.316 30.8764 37.5844 30.87 37.9805Z" fill="#11C170"/>
<path d="M30.87 41.2324C30.87 41.6221 30.5506 41.8713 30.0586 41.8713H21.8936C21.7468 41.8727 21.6019 41.8372 21.4724 41.768C21.3429 41.6987 21.2329 41.5981 21.1525 41.4752C21.8102 41.7656 22.5364 41.8653 23.2481 41.7627H29.6944C29.8891 41.7721 30.0841 41.7592 30.2758 41.7243C30.5506 41.654 30.7614 41.5007 30.7358 41.194C30.7294 41.0635 30.6738 40.9401 30.5802 40.8489C30.4865 40.7576 30.3618 40.7052 30.2311 40.7021C30.1163 40.6926 30.0009 40.6926 29.8861 40.7021C27.2986 40.7021 24.7047 40.7021 22.1172 40.7021C21.7873 40.7304 21.4672 40.8284 21.1781 40.9896C21.2596 40.8506 21.3795 40.738 21.5234 40.6655C21.6674 40.5929 21.8292 40.5635 21.9894 40.5807H30.0394C30.5506 40.5743 30.8764 40.8363 30.87 41.2324Z" fill="#11C170"/>
<path d="M34.7608 46.4266C34.7562 46.5191 34.7326 46.6097 34.6916 46.6927C34.6506 46.7758 34.593 46.8495 34.5223 46.9094C34.4516 46.9693 34.3695 47.014 34.2808 47.0409C34.1922 47.0677 34.099 47.0761 34.0069 47.0655H33.0039C32.7931 47.0655 32.5886 47.0655 32.365 47.0655C31.9902 47.1164 31.6088 47.0497 31.2735 46.8746C30.9382 46.6995 30.6655 46.4247 30.4931 46.088C30.2886 45.743 30.1289 45.7494 29.8989 46.088C29.6689 46.4266 29.4581 46.7269 29.2281 47.0847C29.0657 47.3339 28.8318 47.5283 28.557 47.6423C28.2823 47.7563 27.9795 47.7847 27.6883 47.7236C27.3983 47.684 27.126 47.5608 26.9048 47.3691C26.6836 47.1773 26.5229 46.9253 26.4425 46.6438C26.3594 46.4266 26.4425 46.1008 26.1039 46.0433C25.7653 45.9858 25.7717 46.3244 25.6247 46.4841C25.4781 46.6561 25.2959 46.7942 25.0908 46.8891C24.8856 46.9839 24.6624 47.0332 24.4364 47.0336C23.7975 47.0336 23.1586 47.0336 22.5197 47.0336C22.428 47.0423 22.3355 47.0326 22.2477 47.0051C22.1598 46.9775 22.0783 46.9326 22.0081 46.8731C21.9378 46.8135 21.8802 46.7405 21.8386 46.6584C21.797 46.5762 21.7722 46.4866 21.7658 46.3947C21.773 46.3019 21.7987 46.2116 21.8414 46.1289C21.8841 46.0463 21.9429 45.973 22.0143 45.9134C22.0858 45.8539 22.1685 45.8092 22.2575 45.7822C22.3465 45.7551 22.44 45.7461 22.5325 45.7558C23.1203 45.7558 23.7144 45.7558 24.3086 45.7558C24.3979 45.7634 24.4873 45.7443 24.5658 45.7011C24.6442 45.6579 24.7081 45.5925 24.7494 45.513C24.8949 45.242 25.1217 45.0235 25.398 44.8883C25.6742 44.753 25.9859 44.7078 26.2892 44.7591C26.6068 44.7979 26.9046 44.9342 27.1415 45.1493C27.3783 45.3645 27.5426 45.6478 27.6117 45.9602C27.6117 46.0433 27.65 46.1327 27.682 46.2158C27.7969 46.5097 28.0142 46.548 28.1994 46.2925C28.3847 46.0369 28.6339 45.6536 28.8383 45.3341C28.9727 45.0919 29.1695 44.89 29.4082 44.7494C29.6469 44.6088 29.9189 44.5347 30.196 44.5347C30.473 44.5347 30.745 44.6088 30.9837 44.7494C31.2225 44.89 31.4192 45.0919 31.5536 45.3341C31.628 45.4814 31.7455 45.6025 31.8905 45.6812C32.0354 45.76 32.201 45.7927 32.365 45.775C32.9081 45.7366 33.4511 45.775 33.9942 45.775C34.0879 45.7644 34.1827 45.7731 34.2729 45.8006C34.3631 45.8281 34.4467 45.8738 34.5186 45.9349C34.5904 45.9959 34.649 46.0711 34.6906 46.1556C34.7323 46.2402 34.7562 46.3324 34.7608 46.4266Z" fill="#11C170"/>
<path d="M36.62 34.7221C36.62 35.1183 36.3389 35.361 35.8725 35.361C35.4061 35.361 35.1058 35.361 34.7161 35.361C34.3264 35.361 33.943 35.361 33.5597 35.361C33.4681 35.3749 33.3747 35.3688 33.2857 35.3429C33.1968 35.3171 33.1145 35.2723 33.0446 35.2115C32.9747 35.1507 32.9189 35.0755 32.881 34.991C32.843 34.9065 32.8239 34.8148 32.825 34.7221C32.825 34.3196 33.1061 34.0833 33.5725 34.0833H35.8853C36.358 34.0833 36.6264 34.3133 36.62 34.7221Z" fill="#11C170"/>
<path d="M36.6328 26.5571C36.0067 24.6873 35.3848 22.8133 34.7672 20.9349C34.7407 20.7793 34.6575 20.6389 34.5336 20.541C34.4097 20.4431 34.254 20.3945 34.0964 20.4046C33.9451 20.4022 33.7979 20.4535 33.6809 20.5494C33.5639 20.6453 33.4847 20.7797 33.4575 20.9285L31.5408 26.6785C31.5063 26.7595 31.4888 26.8468 31.4896 26.9349C31.4904 27.023 31.5093 27.11 31.5453 27.1904C31.5813 27.2708 31.6336 27.3429 31.6988 27.4021C31.764 27.4613 31.8407 27.5065 31.9242 27.5346C32.0055 27.5685 32.0933 27.584 32.1813 27.5801C32.2693 27.5763 32.3553 27.5531 32.4334 27.5122C32.5114 27.4714 32.5795 27.4139 32.6328 27.3438C32.6861 27.2737 32.7234 27.1927 32.7419 27.1066C32.8697 26.2952 33.3425 26.1419 34.0197 26.2569C34.1112 26.2632 34.203 26.2632 34.2944 26.2569C35.0867 26.2569 35.0867 26.2569 35.3678 27.0171C35.3955 27.1181 35.4409 27.2133 35.5019 27.2982C35.5763 27.4134 35.6879 27.4996 35.818 27.5426C35.9482 27.5856 36.0892 27.5828 36.2175 27.5346C36.3732 27.5022 36.5112 27.4129 36.6046 27.2841C36.6979 27.1553 36.7399 26.9963 36.7222 26.8382C36.6839 26.7807 36.6647 26.6721 36.6328 26.5571ZM34.4797 24.9663H34.4031C33.4767 24.9982 33.4767 24.9982 33.7642 24.123C33.8664 23.8099 33.9686 23.4841 34.1092 23.1071C34.3008 23.6885 34.4797 24.206 34.6586 24.7299C34.7161 24.9088 34.6458 24.9791 34.4797 24.9663Z" fill="#11C170"/>
<path d="M36.7606 37.9166C36.7658 38.0084 36.7521 38.1003 36.7204 38.1866C36.6886 38.2729 36.6395 38.3517 36.576 38.4183C36.5125 38.4848 36.436 38.5375 36.3512 38.5732C36.2665 38.6089 36.1753 38.6268 36.0833 38.6257C35.2208 38.6257 34.3519 38.6257 33.5278 38.6257C33.3583 38.6257 33.1958 38.5584 33.076 38.4386C32.9562 38.3188 32.8889 38.1563 32.8889 37.9869C32.8888 37.9002 32.9063 37.8144 32.9404 37.7348C32.9745 37.6551 33.0244 37.5832 33.0872 37.5234C33.1499 37.4637 33.2242 37.4173 33.3054 37.3871C33.3866 37.357 33.4732 37.3436 33.5597 37.348C33.9878 37.348 34.4094 37.348 34.8375 37.348C35.2656 37.348 35.6872 37.348 36.1153 37.348C36.2717 37.3545 36.4211 37.4146 36.5385 37.5181C36.656 37.6216 36.7344 37.7622 36.7606 37.9166Z" fill="#11C170"/>
<path d="M40.1786 31.4768C40.1786 31.8665 39.8528 32.1157 39.3672 32.1157H33.6172C33.1189 32.1157 32.8314 31.8665 32.825 31.4768C32.8186 31.0871 33.1125 30.8379 33.6108 30.8379H39.3608C39.8783 30.8059 40.185 31.0615 40.1786 31.4768Z" fill="#11C170"/>
<path d="M41.9994 17.7853H21.6317C21.7591 17.7427 21.8945 17.7296 22.0278 17.7469H41.7055C41.805 17.7427 41.9044 17.7556 41.9994 17.7853Z" fill="#11C170"/>
<path d="M42.5169 20.8009C42.4211 20.8009 42.3572 20.7051 42.2805 20.6604C41.8142 20.3601 41.3989 20.5645 41.3797 21.1268C41.3797 21.9765 41.3797 22.8326 41.3797 23.6823C41.3797 23.874 41.4628 24.1679 41.2711 24.2381V21.6251C41.2711 21.4845 41.2711 21.3376 41.2711 21.197C41.2339 21.0363 41.2603 20.8673 41.3449 20.7256C41.4294 20.5839 41.5656 20.4804 41.7247 20.4368C41.8783 20.3858 42.0456 20.3951 42.1926 20.4627C42.3397 20.5303 42.4556 20.6512 42.5169 20.8009Z" fill="#11C170"/>
<path d="M37.9106 41.3282C37.8614 41.5027 37.7511 41.6537 37.5997 41.7534C37.4483 41.8531 37.2661 41.895 37.0864 41.8713H33.6172C33.1253 41.8713 32.825 41.6094 32.8186 41.2324C32.8122 40.8555 33.0933 40.5935 33.5981 40.5935H37.112C37.3468 40.5839 37.576 40.6665 37.7508 40.8235H37.6806C37.3842 40.698 37.0626 40.6433 36.7414 40.6638H33.86C33.7258 40.6638 33.5789 40.6638 33.4447 40.6638C33.3258 40.6661 33.2118 40.7113 33.1237 40.7912C33.0356 40.8711 32.9794 40.9802 32.9656 41.0982C32.9504 41.2214 32.9784 41.346 33.0448 41.4509C33.1112 41.5557 33.2119 41.6343 33.3297 41.6733C33.4588 41.7279 33.5987 41.752 33.7386 41.7435H36.9331C37.0877 41.7596 37.2439 41.735 37.3862 41.6723C37.5285 41.6095 37.652 41.5108 37.7445 41.3858C37.7923 41.3493 37.8505 41.3292 37.9106 41.3282Z" fill="#11C170"/>
<path d="M42.5106 27.1513C42.0633 27.7199 41.6033 27.6752 41.2328 27.0491L39.6036 24.1038C39.5312 23.9548 39.4265 23.8238 39.297 23.7205V24.0399C39.297 24.9599 39.297 25.8735 39.297 26.7871C39.3066 26.879 39.2976 26.9718 39.2704 27.0601C39.2431 27.1483 39.1983 27.2302 39.1386 27.3006C39.0789 27.3711 39.0055 27.4287 38.923 27.47C38.8404 27.5113 38.7503 27.5355 38.6581 27.541C38.2683 27.541 38.0192 27.2535 38.0192 26.7871V21.1394C37.9969 20.9837 38.0328 20.8253 38.12 20.6944C38.2073 20.5636 38.3397 20.4695 38.492 20.4302C38.648 20.3804 38.8172 20.3924 38.9646 20.4637C39.112 20.535 39.2264 20.6603 39.2842 20.8135C39.8592 21.8528 40.4363 22.8899 41.0156 23.9249L41.0539 24.008C41.0539 24.0399 41.0539 24.0655 41.0986 24.091C41.114 24.1211 41.1334 24.149 41.1561 24.1741C41.1836 24.2066 41.2159 24.2346 41.252 24.2571C40.99 24.3338 40.9453 24.008 40.8431 23.8291C40.3064 22.9027 39.7889 21.9444 39.2778 21.018C39.2103 20.8784 39.1146 20.7544 38.9967 20.6538C38.925 20.5929 38.8381 20.5526 38.7453 20.5374C38.6525 20.5221 38.5573 20.5325 38.4699 20.5673C38.3825 20.6021 38.3063 20.6601 38.2494 20.735C38.1925 20.8099 38.1571 20.8989 38.147 20.9924C38.1342 21.1071 38.1342 21.2228 38.147 21.3374V26.5699C38.1382 26.7113 38.149 26.8531 38.1789 26.9916C38.1969 27.1023 38.2513 27.2038 38.3334 27.2802C38.4156 27.3565 38.5208 27.4033 38.6325 27.4132C38.7448 27.4129 38.8544 27.3785 38.9468 27.3146C39.0391 27.2508 39.11 27.1604 39.15 27.0555C39.2112 26.8969 39.2353 26.7264 39.2203 26.5571V24.206C39.2074 24.0892 39.2074 23.9714 39.2203 23.8546C39.2203 23.778 39.2522 23.6885 39.3417 23.6821C39.4311 23.6757 39.4758 23.7332 39.527 23.7971C39.5939 23.8742 39.6498 23.9602 39.6931 24.0527C40.1978 24.9791 40.7153 25.9055 41.2328 26.8319C41.6225 27.5155 41.795 27.5602 42.4403 27.1513H42.4914H42.5106Z" fill="#11C170"/>
<path d="M42.5489 45.5834H42.4978C42.0318 45.9083 41.5956 46.2739 41.1944 46.6759C41.0494 46.8125 40.8787 46.9189 40.6923 46.9891C40.5059 47.0593 40.3074 47.0918 40.1083 47.0848H36.9139C36.3836 47.0848 36.0961 46.8548 36.0961 46.4459C36.0961 46.0371 36.3772 45.8071 36.9075 45.8071H37.9489L38.0128 45.7751C37.8914 45.9221 37.7061 45.8837 37.5464 45.8965C37.2761 45.8806 37.0052 45.8806 36.735 45.8965C36.6039 45.9061 36.4812 45.9647 36.3912 46.0605C36.3013 46.1564 36.2507 46.2826 36.2494 46.414C36.2487 46.5452 36.2966 46.6721 36.3839 46.77C36.4712 46.868 36.5918 46.9301 36.7222 46.9443C36.8114 46.954 36.9014 46.954 36.9905 46.9443H40.2297C40.5536 46.933 40.8633 46.8087 41.105 46.5929C41.4453 46.2763 41.8036 45.9798 42.1783 45.7048C42.2997 45.6218 42.4147 45.5068 42.5744 45.5515L42.5489 45.5834Z" fill="#11C170"/>
<path d="M57.0581 22.5258C56.8168 22.4782 56.5665 22.5215 56.3553 22.6472L54.9689 25.2794C53.8572 27.3878 52.7392 29.4897 51.6275 31.6044C51.5317 31.7833 51.4422 31.8153 51.2697 31.7067C51.0972 31.5981 50.7842 31.4192 50.5414 31.2786L47.775 29.8283C47.2 29.5281 46.6442 29.1894 46.0692 28.9211C45.82 28.7933 45.8072 28.6656 45.9286 28.4356C47.2064 26.11 48.4139 23.7653 49.6533 21.4078C50.3369 20.13 51.0269 18.8522 51.7042 17.5744C51.7042 17.5169 51.7553 17.4594 51.7872 17.4019C51.8246 17.3256 51.8465 17.2426 51.8518 17.1578C51.857 17.073 51.8456 16.988 51.818 16.9076C51.7904 16.8272 51.7472 16.753 51.691 16.6893C51.6347 16.6256 51.5665 16.5736 51.4901 16.5363C51.4138 16.4989 51.3308 16.477 51.246 16.4717C51.1612 16.4664 51.0761 16.4779 50.9958 16.5055C50.9154 16.5331 50.8412 16.5762 50.7775 16.6325C50.7138 16.6887 50.6618 16.757 50.6244 16.8333L50.4583 17.14C48.5033 20.8328 46.5419 24.5213 44.5742 28.2056C43.5519 30.2756 41.9356 31.86 40.2808 33.3933C39.5461 34.0833 38.7603 34.7222 37.9617 35.3611C37.7366 35.5231 37.583 35.7659 37.533 36.0386C37.4829 36.3114 37.5404 36.5929 37.6933 36.8242C38.5713 38.2697 39.1128 39.8943 39.2778 41.5775C39.4237 42.8843 39.4065 44.2041 39.2267 45.5067C39.2267 45.6856 39.1308 45.7814 38.9328 45.775C38.6069 45.775 38.2939 45.775 37.9617 45.775L37.8978 45.8069H36.8564C36.3261 45.8069 36.0386 46.0497 36.045 46.4458C36.0514 46.8419 36.3325 47.0847 36.8628 47.0847H40.0572C40.2563 47.0917 40.4548 47.0591 40.6412 46.989C40.8276 46.9188 40.9983 46.8124 41.1433 46.6758C41.554 46.2836 41.9987 45.9287 42.4722 45.6153H42.5233C43.1299 45.1288 43.7927 44.7169 44.4975 44.3886C45.6853 43.705 47.0052 43.2824 48.3692 43.1492C48.7428 43.0819 49.1207 43.0414 49.5 43.0278C49.7437 42.9871 49.9661 42.864 50.1301 42.6792C50.294 42.4943 50.3896 42.2588 50.4008 42.0119C50.5031 40.6639 50.6372 39.3158 50.8736 37.9806C51.1144 36.2415 51.6276 34.5511 52.3942 32.9717C53.5953 30.693 54.8049 28.4143 56.0231 26.1356C56.4831 25.2837 56.9409 24.4191 57.3967 23.5417C57.4629 23.4584 57.5072 23.36 57.5258 23.2553C57.5443 23.1505 57.5364 23.0429 57.5027 22.942C57.4691 22.8411 57.4108 22.7502 57.3332 22.6775C57.2555 22.6048 57.161 22.5527 57.0581 22.5258ZM50.8225 33.2017C50.0168 35.2994 49.5072 37.4992 49.3083 39.7375C49.2381 40.3125 49.1933 40.8939 49.1422 41.4689C49.1422 41.6222 49.0975 41.7308 48.9058 41.7436C46.4667 41.9597 44.128 42.8171 42.1272 44.2289C42.0697 44.2928 42.0122 44.4078 41.9356 44.3311C41.8589 44.2544 41.9675 44.1842 42.0186 44.1267C42.6192 42.9767 43.2112 41.8309 43.7947 40.6894C43.8969 40.4914 44.0183 40.5361 44.1781 40.5553C44.7879 40.6464 45.4105 40.5211 45.9376 40.201C46.4647 39.881 46.863 39.3864 47.0635 38.8032C47.2639 38.2201 47.2537 37.5851 47.0347 37.0086C46.8157 36.4322 46.4018 35.9506 45.8647 35.6476C45.3276 35.3446 44.7014 35.2392 44.0947 35.3499C43.488 35.4605 42.9393 35.7801 42.5438 36.2532C42.1482 36.7263 41.9309 37.323 41.9295 37.9397C41.9281 38.5563 42.1427 39.154 42.5361 39.6289C42.616 39.6982 42.6674 39.7947 42.6804 39.8997C42.6934 40.0047 42.667 40.1108 42.6064 40.1975C42.0378 41.2261 41.5011 42.2675 40.9517 43.3089C40.9096 43.4434 40.8242 43.5602 40.7089 43.6411C40.7089 43.0917 40.7089 42.5742 40.6578 42.0503C40.5323 40.1648 39.9982 38.3292 39.0925 36.6708C38.9072 36.3386 38.9775 36.1981 39.2394 35.9808C41.1385 34.5326 42.8547 32.8593 44.3506 30.9975C44.572 30.7164 44.785 30.4225 44.9894 30.1158C45.0032 30.0804 45.0251 30.0488 45.0534 30.0234C45.0816 29.998 45.1155 29.9796 45.1521 29.9696C45.1888 29.9597 45.2273 29.9585 45.2645 29.9661C45.3017 29.9738 45.3366 29.99 45.3664 30.0136C47.151 30.9719 48.9356 31.9218 50.7203 32.8631C50.8928 32.9589 50.8928 33.0483 50.8225 33.2017ZM43.2006 37.9806C43.2006 37.6332 43.3385 37.3001 43.5842 37.0544C43.8298 36.8088 44.1629 36.6708 44.5103 36.6708C44.8576 36.6708 45.1908 36.8088 45.4364 37.0544C45.682 37.3001 45.82 37.6332 45.82 37.9806C45.8044 38.3144 45.6648 38.6305 45.4285 38.8668C45.1921 39.1032 44.8761 39.2428 44.5422 39.2583C44.3691 39.267 44.1961 39.2404 44.0336 39.18C43.8711 39.1197 43.7226 39.027 43.5971 38.9074C43.4716 38.7879 43.3717 38.6441 43.3036 38.4848C43.2354 38.3254 43.2003 38.1539 43.2006 37.9806Z" fill="#11C170"/>
<path d="M44.5167 45.8452V45.9283C44.5032 45.9017 44.4925 45.8739 44.4847 45.8452H44.5167Z" fill="#11C170"/>
<path d="M45.1492 24.1806C45.17 24.3417 45.1334 24.505 45.0458 24.6417C44.9581 24.7784 44.8251 24.8799 44.67 24.9281C44.0311 24.9281 43.8778 24.7429 43.8778 24.1104V19.3442C43.9083 19.1341 43.8896 18.9198 43.8233 18.7181C43.757 18.5164 43.6449 18.3329 43.4957 18.1818C43.3465 18.0308 43.1643 17.9164 42.9634 17.8476C42.7626 17.7788 42.5485 17.7575 42.3381 17.7854H21.5231C21.2872 17.7454 21.045 17.7674 20.8203 17.8492C20.5559 17.9093 20.3175 18.0518 20.1395 18.2562C19.9615 18.4606 19.8531 18.7164 19.83 18.9865C19.83 19.127 19.83 19.274 19.83 19.4081V43.4815C19.8427 43.6239 19.8427 43.7671 19.83 43.9095C19.818 44.0517 19.7552 44.1848 19.6532 44.2845C19.5511 44.3842 19.4166 44.4439 19.2742 44.4526C19.1264 44.4739 18.9758 44.4427 18.8486 44.3645C18.7213 44.2863 18.6255 44.166 18.5778 44.0245C18.5339 43.8754 18.5187 43.7193 18.5331 43.5645V19.2867C18.5079 18.9141 18.5624 18.5404 18.6929 18.1905C18.8233 17.8405 19.0267 17.5224 19.2896 17.2571C19.5524 16.9918 19.8687 16.7855 20.2175 16.6519C20.5662 16.5182 20.9394 16.4603 21.3122 16.482H42.3956C42.7613 16.4588 43.1278 16.5135 43.4707 16.6425C43.8137 16.7715 44.1254 16.9719 44.3851 17.2304C44.6448 17.4889 44.8467 17.7997 44.9773 18.142C45.1079 18.4844 45.1643 18.8506 45.1428 19.2165C45.1492 20.8712 45.1428 22.5259 45.1492 24.1806Z" fill="#11C170"/>
<path d="M37.7892 40.8171C37.8848 40.9697 37.9296 41.1486 37.917 41.3282C37.8603 41.2583 37.8191 41.1772 37.7959 41.0902C37.7728 41.0032 37.7683 40.9124 37.7828 40.8235L37.7892 40.8171Z" fill="#11C170"/>
<path d="M42.5681 21.4526V26.5126C42.5681 26.7234 42.5297 26.9407 42.5106 27.1515C42.449 27.0596 42.4261 26.9471 42.4467 26.8384C42.4467 24.9346 42.4467 23.0307 42.4467 21.1268C42.4467 21.0182 42.4467 20.8968 42.517 20.8137C42.5361 21.0182 42.5681 21.229 42.5681 21.4526Z" fill="#11C170"/>
<path d="M30.8636 34.7223C30.8779 34.8674 30.8382 35.0128 30.7522 35.1306C30.6662 35.2484 30.5398 35.3305 30.3972 35.3611C30.2594 35.3956 30.1175 35.4106 29.9756 35.4059H22.0278C21.861 35.4238 21.6925 35.3958 21.5404 35.3248C21.3884 35.2539 21.2587 35.1427 21.1653 35.0034C21.1653 34.8309 21.1653 34.6648 21.1653 34.4986C21.2451 34.3621 21.3617 34.2507 21.5018 34.1773C21.6419 34.1039 21.7998 34.0713 21.9575 34.0834C24.6408 34.0834 27.3242 34.0834 30.0075 34.0834C30.1158 34.0725 30.225 34.0725 30.3333 34.0834C30.4833 34.1092 30.6192 34.1878 30.7164 34.3049C30.8136 34.4221 30.8658 34.57 30.8636 34.7223Z" fill="#11C170"/>
<path d="M30.87 37.9806C30.87 38.3703 30.5506 38.6195 30.0586 38.6195H21.9383C21.7834 38.6281 21.629 38.5953 21.4909 38.5246C21.3529 38.4539 21.2361 38.3477 21.1525 38.217C21.1525 38.0509 21.1525 37.8784 21.1525 37.7059C21.2352 37.5679 21.3553 37.4563 21.4989 37.3839C21.6426 37.3115 21.8038 37.2814 21.9639 37.297C24.66 37.297 27.3561 37.297 30.0522 37.297C30.5506 37.3162 30.8764 37.5845 30.87 37.9806Z" fill="#11C170"/>
<path d="M30.8636 31.4767C30.8636 31.86 30.5442 32.1156 30.0586 32.1156H21.932C21.7772 32.1228 21.6233 32.0895 21.4855 32.0189C21.3476 31.9483 21.2306 31.8429 21.1461 31.7131V31.1956C21.2312 31.0588 21.353 30.9486 21.4975 30.8775C21.642 30.8063 21.8036 30.7771 21.9639 30.7931C24.6536 30.7931 27.3497 30.7931 30.0458 30.7931C30.5506 30.8058 30.8764 31.0806 30.8636 31.4767Z" fill="#11C170"/>
<path d="M30.87 41.2325C30.87 41.6223 30.5506 41.8714 30.0586 41.8714H21.8936C21.7468 41.8729 21.6019 41.8374 21.4724 41.7681C21.3429 41.6989 21.2329 41.5982 21.1525 41.4753C21.1525 41.3028 21.1525 41.1303 21.1525 40.9642C21.234 40.8252 21.3539 40.7126 21.4979 40.6401C21.6418 40.5675 21.8036 40.5381 21.9639 40.5553H30.0394C30.5506 40.5745 30.8764 40.8364 30.87 41.2325Z" fill="#11C170"/>
<path d="M25.005 26.9341C25.005 27.3238 24.7239 27.573 24.2383 27.573C23.4717 27.573 22.7114 27.573 21.9575 27.573C21.7974 27.5886 21.6362 27.5585 21.4926 27.4861C21.3489 27.4137 21.2288 27.3021 21.1461 27.1641C21.1461 25.0494 21.1461 22.9347 21.1461 20.8199C21.2164 20.6651 21.3413 20.5417 21.4969 20.4733C21.6525 20.4049 21.8279 20.3964 21.9895 20.4494C22.3664 20.5836 22.4367 20.9158 22.4367 21.2736C22.4367 22.7941 22.4367 24.3147 22.4367 25.8352C22.4367 26.193 22.5389 26.2824 22.8775 26.2569C23.3311 26.2569 23.8039 26.2569 24.2639 26.2569C24.7239 26.2569 25.0242 26.5252 25.005 26.9341Z" fill="#11C170"/>
<path d="M19.1911 47.0783C19.0217 47.0783 18.8592 47.011 18.7393 46.8912C18.6195 46.7714 18.5522 46.6089 18.5522 46.4394C18.5522 46.27 18.6195 46.1075 18.7393 45.9877C18.8592 45.8678 19.0217 45.8005 19.1911 45.8005C19.3605 45.8005 19.5231 45.8678 19.6429 45.9877C19.7627 46.1075 19.83 46.27 19.83 46.4394C19.83 46.6089 19.7627 46.7714 19.6429 46.8912C19.5231 47.011 19.3605 47.0783 19.1911 47.0783Z" fill="#11C170"/>
<path d="M42.5489 45.5833H42.4978C42.5082 45.5806 42.5192 45.5806 42.5297 45.5833H42.5489Z" fill="#11C170"/>
<path d="M44.5167 45.8452V45.9283C44.5032 45.9017 44.4925 45.8739 44.4847 45.8452H44.5167Z" fill="#11C170"/>
<path d="M42.5681 21.4524V26.5124C42.5681 26.7232 42.5297 26.9405 42.5106 27.1513C42.0633 27.7199 41.6033 27.6752 41.2328 27.0491L39.6036 24.1038C39.5312 23.9548 39.4265 23.8238 39.297 23.7205V24.0399C39.297 24.9599 39.297 25.8735 39.297 26.7871C39.3066 26.879 39.2976 26.9718 39.2704 27.0601C39.2431 27.1483 39.1983 27.2302 39.1386 27.3006C39.0789 27.3711 39.0055 27.4287 38.923 27.47C38.8404 27.5113 38.7503 27.5355 38.6581 27.541C38.2683 27.541 38.0192 27.2535 38.0192 26.7871V21.1394C37.9969 20.9837 38.0328 20.8253 38.12 20.6944C38.2073 20.5636 38.3397 20.4695 38.492 20.4302C38.648 20.3804 38.8172 20.3924 38.9646 20.4637C39.112 20.535 39.2264 20.6603 39.2842 20.8135C39.8592 21.8528 40.4363 22.8899 41.0156 23.9249L41.0539 24.008C41.0539 24.0399 41.0539 24.0655 41.0986 24.091C41.114 24.1211 41.1334 24.149 41.1561 24.1741C41.1836 24.2066 41.2159 24.2346 41.252 24.2571V21.6249C41.252 21.4844 41.252 21.3374 41.252 21.1969C41.2147 21.0361 41.2412 20.8671 41.3257 20.7254C41.4103 20.5837 41.5464 20.4802 41.7056 20.4366C41.8608 20.3819 42.0312 20.3892 42.1812 20.4571C42.3311 20.5249 42.4491 20.648 42.5106 20.8007C42.5361 21.018 42.5681 21.2288 42.5681 21.4524Z" fill="#11C170"/>
<path d="M30.1353 21.4716C29.0875 20.0277 27.3881 20.0341 26.3786 21.5035C25.8824 22.2459 25.6403 23.1291 25.6886 24.0208C25.6588 24.845 25.8817 25.6587 26.3275 26.3527C26.5012 26.6991 26.7643 26.9927 27.0897 27.2032C27.4151 27.4136 27.7908 27.5332 28.178 27.5494C28.5651 27.5657 28.9496 27.4782 29.2915 27.2958C29.6334 27.1135 29.9203 26.843 30.1225 26.5124C30.6081 25.762 30.8675 24.8877 30.8698 23.9939C30.8721 23.1001 30.6171 22.2245 30.1353 21.4716ZM29.0875 25.7074C29.0177 25.8643 28.9039 25.9976 28.7599 26.0912C28.6159 26.1847 28.4478 26.2345 28.2761 26.2345C28.1044 26.2345 27.9363 26.1847 27.7923 26.0912C27.6483 25.9976 27.5345 25.8643 27.4647 25.7074C27.1363 25.1803 26.9621 24.5716 26.9621 23.9505C26.9621 23.3294 27.1363 22.7207 27.4647 22.1935C27.5361 22.0449 27.6481 21.9194 27.7877 21.8316C27.9273 21.7437 28.0888 21.6971 28.2538 21.6971C28.4187 21.6971 28.5803 21.7437 28.7198 21.8316C28.8594 21.9194 28.9714 22.0449 29.0428 22.1935C29.3949 22.7205 29.5777 23.3424 29.5667 23.976C29.5759 24.5871 29.4096 25.188 29.0875 25.7074Z" fill="#11C170"/>
<path d="M34.7608 46.4266C34.7562 46.5191 34.7326 46.6097 34.6916 46.6927C34.6506 46.7758 34.593 46.8495 34.5223 46.9094C34.4516 46.9693 34.3695 47.014 34.2808 47.0409C34.1922 47.0677 34.099 47.0761 34.0069 47.0655H33.0039C32.7931 47.0655 32.5886 47.0655 32.365 47.0655C31.9902 47.1164 31.6088 47.0497 31.2735 46.8746C30.9382 46.6995 30.6655 46.4247 30.4931 46.088C30.2886 45.743 30.1289 45.7494 29.8989 46.088C29.6689 46.4266 29.4581 46.7269 29.2281 47.0847C29.0657 47.3339 28.8318 47.5283 28.557 47.6423C28.2823 47.7563 27.9795 47.7847 27.6883 47.7236C27.3983 47.684 27.126 47.5608 26.9048 47.3691C26.6836 47.1773 26.5229 46.9253 26.4425 46.6438C26.3594 46.4266 26.4425 46.1008 26.1039 46.0433C25.7653 45.9858 25.7717 46.3244 25.6247 46.4841C25.4781 46.6561 25.2959 46.7942 25.0908 46.8891C24.8856 46.9839 24.6624 47.0332 24.4364 47.0336C23.7975 47.0336 23.1586 47.0336 22.5197 47.0336C22.428 47.0423 22.3355 47.0326 22.2477 47.0051C22.1598 46.9775 22.0783 46.9326 22.0081 46.8731C21.9378 46.8135 21.8802 46.7405 21.8386 46.6584C21.797 46.5762 21.7722 46.4866 21.7658 46.3947C21.773 46.3019 21.7987 46.2116 21.8414 46.1289C21.8841 46.0463 21.9429 45.973 22.0143 45.9134C22.0858 45.8539 22.1685 45.8092 22.2575 45.7822C22.3465 45.7551 22.44 45.7461 22.5325 45.7558C23.1203 45.7558 23.7144 45.7558 24.3086 45.7558C24.3979 45.7634 24.4873 45.7443 24.5658 45.7011C24.6442 45.6579 24.7081 45.5925 24.7494 45.513C24.8949 45.242 25.1217 45.0235 25.398 44.8883C25.6742 44.753 25.9859 44.7078 26.2892 44.7591C26.6068 44.7979 26.9046 44.9342 27.1415 45.1493C27.3783 45.3645 27.5426 45.6478 27.6117 45.9602C27.6117 46.0433 27.65 46.1327 27.682 46.2158C27.7969 46.5097 28.0142 46.548 28.1994 46.2925C28.3847 46.0369 28.6339 45.6536 28.8383 45.3341C28.9727 45.0919 29.1695 44.89 29.4082 44.7494C29.6469 44.6088 29.9189 44.5347 30.196 44.5347C30.473 44.5347 30.745 44.6088 30.9837 44.7494C31.2225 44.89 31.4192 45.0919 31.5536 45.3341C31.628 45.4814 31.7455 45.6025 31.8905 45.6812C32.0354 45.76 32.201 45.7927 32.365 45.775C32.9081 45.7366 33.4511 45.775 33.9942 45.775C34.0879 45.7644 34.1827 45.7731 34.2729 45.8006C34.3631 45.8281 34.4467 45.8738 34.5186 45.9349C34.5904 45.9959 34.649 46.0711 34.6906 46.1556C34.7323 46.2402 34.7562 46.3324 34.7608 46.4266Z" fill="#11C170"/>
<path d="M36.6328 26.5571C36.0067 24.6873 35.3848 22.8133 34.7672 20.9349C34.7407 20.7793 34.6575 20.6389 34.5336 20.541C34.4097 20.4431 34.254 20.3945 34.0964 20.4046C33.9451 20.4022 33.7979 20.4535 33.6809 20.5494C33.5639 20.6453 33.4847 20.7797 33.4575 20.9285L31.5408 26.6785C31.5063 26.7595 31.4888 26.8468 31.4896 26.9349C31.4904 27.023 31.5093 27.11 31.5453 27.1904C31.5813 27.2708 31.6336 27.3429 31.6988 27.4021C31.764 27.4613 31.8407 27.5065 31.9242 27.5346C32.0055 27.5685 32.0933 27.584 32.1813 27.5801C32.2693 27.5763 32.3553 27.5531 32.4334 27.5122C32.5114 27.4714 32.5795 27.4139 32.6328 27.3438C32.6861 27.2737 32.7234 27.1927 32.7419 27.1066C32.8697 26.2952 33.3425 26.1419 34.0197 26.2569C34.1112 26.2632 34.203 26.2632 34.2944 26.2569C35.0867 26.2569 35.0867 26.2569 35.3678 27.0171C35.3955 27.1181 35.4409 27.2133 35.5019 27.2982C35.5763 27.4134 35.6879 27.4996 35.818 27.5426C35.9482 27.5856 36.0892 27.5828 36.2175 27.5346C36.3732 27.5022 36.5112 27.4129 36.6046 27.2841C36.6979 27.1553 36.7399 26.9963 36.7222 26.8382C36.6839 26.7807 36.6647 26.6721 36.6328 26.5571ZM34.4797 24.9663H34.4031C33.4767 24.9982 33.4767 24.9982 33.7642 24.123C33.8664 23.8099 33.9686 23.4841 34.1092 23.1071C34.3008 23.6885 34.4797 24.206 34.6586 24.7299C34.7161 24.9088 34.6458 24.9791 34.4797 24.9663Z" fill="#11C170"/>
<path d="M40.1786 31.4768C40.1786 31.8665 39.8528 32.1157 39.3672 32.1157H33.6172C33.1189 32.1157 32.8314 31.8665 32.825 31.4768C32.8186 31.0871 33.1125 30.8379 33.6108 30.8379H39.3608C39.8783 30.8059 40.185 31.0615 40.1786 31.4768Z" fill="#11C170"/>
<path d="M37.917 41.3282C37.8678 41.5027 37.7575 41.6537 37.6061 41.7534C37.4547 41.8531 37.2725 41.895 37.0928 41.8713H33.6172C33.1253 41.8713 32.825 41.6094 32.8186 41.2324C32.8122 40.8555 33.0933 40.5935 33.5981 40.5935H37.112C37.3468 40.5839 37.576 40.6665 37.7508 40.8235C37.8587 40.9697 37.917 41.1466 37.917 41.3282Z" fill="#11C170"/>
<path d="M36.7606 37.9166C36.7658 38.0084 36.7521 38.1003 36.7204 38.1866C36.6886 38.2729 36.6395 38.3517 36.576 38.4183C36.5125 38.4848 36.436 38.5375 36.3512 38.5732C36.2665 38.6089 36.1753 38.6268 36.0833 38.6257C35.2208 38.6257 34.3519 38.6257 33.5278 38.6257C33.3583 38.6257 33.1958 38.5584 33.076 38.4386C32.9562 38.3188 32.8889 38.1563 32.8889 37.9869C32.8888 37.9002 32.9063 37.8144 32.9404 37.7348C32.9745 37.6551 33.0244 37.5832 33.0872 37.5234C33.1499 37.4637 33.2242 37.4173 33.3054 37.3871C33.3866 37.357 33.4732 37.3436 33.5597 37.348C33.9878 37.348 34.4094 37.348 34.8375 37.348C35.2656 37.348 35.6872 37.348 36.1153 37.348C36.2717 37.3545 36.4211 37.4146 36.5385 37.5181C36.656 37.6216 36.7344 37.7622 36.7606 37.9166Z" fill="#11C170"/>
<path d="M36.62 34.7221C36.62 35.1183 36.3389 35.361 35.8725 35.361C35.4061 35.361 35.1058 35.361 34.7161 35.361C34.3264 35.361 33.943 35.361 33.5597 35.361C33.4681 35.3749 33.3747 35.3688 33.2857 35.3429C33.1968 35.3171 33.1145 35.2723 33.0446 35.2115C32.9747 35.1507 32.9189 35.0755 32.881 34.991C32.843 34.9065 32.8239 34.8148 32.825 34.7221C32.825 34.3196 33.1061 34.0833 33.5725 34.0833H35.8853C36.358 34.0833 36.6264 34.3133 36.62 34.7221Z" fill="#11C170"/>
</svg>
