<svg width="81" height="81" viewBox="0 0 81 81" fill="none" xmlns="http://www.w3.org/2000/svg">
<mask id="mask0_157_1329" style="mask-type:alpha" maskUnits="userSpaceOnUse" x="0" y="0" width="81" height="81">
<rect x="0.5" y="0.5" width="80" height="80" fill="#D9D9D9"/>
</mask>
<g mask="url(#mask0_157_1329)">
<path d="M45.4996 41.9165C43.6107 41.9165 42.0274 41.2776 40.7496 39.9998C39.4718 38.7221 38.8329 37.1387 38.8329 35.2498C38.8329 33.3609 39.4718 31.7776 40.7496 30.4998C42.0274 29.2221 43.6107 28.5832 45.4996 28.5832C47.3885 28.5832 48.9718 29.2221 50.2496 30.4998C51.5274 31.7776 52.1662 33.3609 52.1662 35.2498C52.1662 37.1387 51.5274 38.7221 50.2496 39.9998C48.9718 41.2776 47.3885 41.9165 45.4996 41.9165ZM24.8329 52.5832C23.3885 52.5832 22.1385 52.0554 21.0829 50.9998C20.0274 49.9443 19.4996 48.6665 19.4996 47.1665V23.3332C19.4996 21.8332 20.0274 20.5554 21.0829 19.4998C22.1385 18.4443 23.3885 17.9165 24.8329 17.9165H66.1662C67.6107 17.9165 68.8607 18.4443 69.9162 19.4998C70.9718 20.5554 71.4996 21.8332 71.4996 23.3332V47.1665C71.4996 48.6665 70.9718 49.9443 69.9162 50.9998C68.8607 52.0554 67.6107 52.5832 66.1662 52.5832H24.8329ZM28.1662 49.2498H62.8329C62.8329 47.7498 63.3607 46.4721 64.4162 45.4165C65.4718 44.3609 66.7218 43.8332 68.1662 43.8332V26.6665C66.6662 26.6665 65.4029 26.1387 64.3762 25.0832C63.3474 24.0276 62.8329 22.7498 62.8329 21.2498H28.1662C28.1662 22.7498 27.6385 24.0276 26.5829 25.0832C25.5274 26.1387 24.2774 26.6665 22.8329 26.6665V43.8332C24.3329 43.8332 25.5973 44.3609 26.6262 45.4165C27.6529 46.4721 28.1662 47.7498 28.1662 49.2498ZM61.6662 62.5832H14.8329C13.3885 62.5832 12.1385 62.0554 11.0829 60.9998C10.0274 59.9443 9.49957 58.6665 9.49957 57.1665V27.8332H12.8329V57.1665C12.8329 57.6665 13.0418 58.1387 13.4596 58.5832C13.8751 59.0276 14.3329 59.2498 14.8329 59.2498H61.6662V62.5832ZM24.8329 49.2498H22.8329V21.2498H24.8329C24.2774 21.2498 23.8051 21.4576 23.4162 21.8732C23.0274 22.2909 22.8329 22.7776 22.8329 23.3332V47.1665C22.8329 47.7221 23.0274 48.2087 23.4162 48.6265C23.8051 49.0421 24.2774 49.2498 24.8329 49.2498Z" fill="#058054"/>
</g>
</svg>
