<svg width="114" height="114" viewBox="0 0 114 114" fill="none" xmlns="http://www.w3.org/2000/svg">
<path d="M102.735 53.7355C102.479 49.2169 101.511 44.7671 99.8645 40.5513C97.0342 33.1674 92.3334 26.646 86.223 21.6265C82.3936 18.4405 78.0605 15.9142 73.4015 14.1512C69.2255 12.4893 64.8016 11.5353 60.3119 11.3283C55.5874 10.9975 50.8399 11.3427 46.2129 12.3534C37.7336 14.4167 30.0125 18.8406 23.9445 25.1124C17.8765 31.3842 13.7099 39.2471 11.9276 47.79C11.6052 49.6851 11.3841 51.596 11.2653 53.5147V54.2401C11.3757 54.3505 11.2653 54.4925 11.2653 54.6186C11.2653 54.7448 11.2653 54.9814 11.2653 55.1233V56.1957C11.4071 56.7813 11.4071 57.3922 11.2653 57.9778V58.8767C11.3757 58.9871 11.2653 59.129 11.2653 59.271C11.2653 59.4129 11.2653 59.6179 11.2653 59.7756V60.6588C11.2853 60.7364 11.2853 60.8178 11.2653 60.8953C11.3766 64.4449 12.0363 67.956 13.2208 71.3039C15.844 79.4533 20.7147 86.6965 27.2724 92.2C33.0472 97.0847 39.9373 100.47 47.3326 102.057C49.1375 102.397 50.9589 102.645 52.7893 102.798H53.6724C53.8301 102.656 54.0036 102.798 54.1771 102.719C54.3506 102.64 54.461 102.719 54.5714 102.798H59.2079C59.3144 102.726 59.4441 102.698 59.5706 102.719C59.6972 102.697 59.8275 102.725 59.9334 102.798H60.4696C61.4631 102.64 62.4724 102.719 63.466 102.593C74.1391 101.047 83.9298 95.7995 91.1276 87.7684C94.4883 83.9776 97.2245 79.6763 99.2337 75.0258C102.051 68.3009 103.251 61.0085 102.735 53.7355ZM73.228 17.4631C78.4855 19.6268 83.2656 22.8045 87.2954 26.815C87.9104 27.4301 87.7369 27.6036 87.1061 27.9348C84.6057 29.2346 82.0122 30.3469 79.347 31.2624C78.7635 31.4674 78.6058 31.2624 78.385 30.805C76.5005 25.8205 73.631 21.2667 69.9477 17.4158C69.4273 16.8953 68.8753 16.4064 68.2129 15.8387C69.9015 16.2321 71.553 16.7703 73.1491 17.4473L73.228 17.4631ZM58.4194 24.6072V15.3183C58.4194 14.2616 58.4194 14.2616 59.4918 14.4824C62.2327 15.0732 64.7683 16.3791 66.8409 18.2674C70.6055 21.7741 73.5277 26.0873 75.3886 30.8839C76.0194 32.3348 75.9878 32.319 74.4581 32.6975C69.4287 33.9146 64.2858 34.6018 59.1133 34.7477C58.4825 34.7477 58.4036 34.5584 58.4036 34.0222C58.3563 30.8366 58.3405 27.714 58.3405 24.5914L58.4194 24.6072ZM46.4653 18.8982C48.6661 16.6877 51.441 15.1364 54.4767 14.4193C55.2653 14.2459 55.5176 14.4193 55.5018 15.271C55.5018 18.4251 55.5018 21.453 55.5018 24.5441C55.5018 27.6351 55.5018 30.8523 55.5018 33.9118C55.5018 34.5584 55.3283 34.653 54.7133 34.6373C49.3058 34.4993 43.931 33.7534 38.6903 32.4136C38.3592 32.319 37.8072 32.4136 38.1226 31.7039C39.9334 26.8907 42.7507 22.5195 46.3864 18.8824L46.4653 18.8982ZM26.4681 27.0358C31.4892 21.9798 37.6811 18.242 44.4939 16.1541C44.6076 16.092 44.735 16.0594 44.8645 16.0594C44.9941 16.0594 45.1215 16.092 45.2352 16.1541L44.0366 17.3054C40.3552 21.1126 37.4896 25.6311 35.6151 30.5842C35.3312 31.2781 35.0789 31.4674 34.3534 31.1993C31.704 30.2448 29.1222 29.112 26.6258 27.8086C26.1212 27.5405 26.0265 27.3986 26.4681 27.0358ZM23.4717 30.395C23.8975 29.8745 24.1656 29.7326 24.8122 30.1111C27.5898 31.7104 30.529 33.0108 33.5807 33.9907C34.0696 34.1484 34.2746 34.2903 34.0853 34.8896C32.0217 41.3275 30.9112 48.0327 30.7893 54.7921C30.7893 55.5491 30.5212 55.691 29.8115 55.6753C27.3513 55.6753 24.8753 55.6753 22.4151 55.6753C19.9549 55.6753 17.3527 55.6753 14.8294 55.6753C14.2932 55.6753 14.0567 55.6753 14.0882 54.9656C14.5624 45.9702 17.844 37.3497 23.4717 30.3161V30.395ZM24.6703 84.1412C24.1814 84.4251 23.8975 84.5039 23.4559 83.952C17.7937 76.8787 14.5146 68.1952 14.0882 59.1448C14.0882 58.6086 14.2301 58.4982 14.719 58.514H22.4782C24.9384 58.514 27.4144 58.514 29.8746 58.514C30.5685 58.514 30.7735 58.7032 30.7893 59.3814C30.9041 65.5147 31.8213 71.6066 33.5176 77.5018C33.7226 78.2745 34.3219 79.2365 34.0538 79.7412C33.7857 80.2459 32.6502 80.3563 31.909 80.6244C29.4059 81.5699 26.9848 82.7198 24.6703 84.0624V84.1412ZM25.9477 86.6803C28.7551 85.0812 31.7198 83.7758 34.795 82.7849C35.4258 82.5799 35.347 83.1161 35.4574 83.3685C36.8761 86.99 38.7637 90.4098 41.0717 93.5405C42.4142 95.341 43.9535 96.9861 45.661 98.4452C38.1082 96.4264 31.2765 92.3219 25.9477 86.6014V86.6803ZM54.4925 99.8014C51.4336 99.1301 48.6281 97.6043 46.4022 95.4014C42.7075 91.6958 39.8658 87.2287 38.0753 82.3118C37.8703 81.8072 38.0753 81.7283 38.4696 81.6179C42.3824 80.6227 46.3698 79.9476 50.3921 79.5993C51.8115 79.4889 53.2466 79.4889 54.666 79.3469C55.423 79.3469 55.5176 79.5677 55.5176 80.2143C55.5176 83.3685 55.5176 86.5226 55.5176 89.6767C55.5176 92.8308 55.5176 95.8588 55.5176 98.9498C55.5334 99.8803 55.1549 99.8645 54.4925 99.7226V99.8014ZM52.5369 76.6186C47.4802 76.881 42.4645 77.6685 37.5706 78.9685C36.9871 79.1262 36.8925 78.9685 36.7348 78.4638C35.0092 72.83 33.9972 67.0019 33.7226 61.1161C33.7129 61.0907 33.7129 61.0627 33.7226 61.0373C33.7226 60.4538 33.7226 59.886 33.6438 59.3025V59.1133C33.6438 57.7412 33.6438 56.3061 33.6438 55.2021C33.6438 54.9183 33.6438 54.6502 33.6438 54.4136C33.6438 53.7355 33.6438 53.3097 33.6438 53.3097C33.916 47.3231 34.9385 41.3943 36.6875 35.6624C36.8294 35.1735 36.924 34.9369 37.5549 35.1104C42.4455 36.4228 47.4631 37.2054 52.5212 37.4444C52.5212 37.4444 56.4796 37.5706 59.4918 37.4444C60.233 37.4444 60.9111 37.4444 61.4631 37.4444C66.472 37.181 71.44 36.3988 76.2875 35.1104C76.7764 34.9842 76.9341 35.1104 77.076 35.552C78.8707 41.3148 79.9305 47.2813 80.2301 53.3097C80.2301 53.7355 80.2301 54.1455 80.2301 54.5713C80.2301 54.7606 80.2301 54.9656 80.2301 55.1864C80.2301 56.7634 80.2301 59.2079 80.2301 61.0373C80.2179 61.2396 80.1862 61.4403 80.1355 61.6366C79.8195 67.3022 78.8241 72.9094 77.1706 78.3376C76.9814 78.9842 76.7764 79.0788 76.1613 78.9054C71.3746 77.6417 66.4702 76.8754 61.5262 76.6186H60.9269C60.4223 76.6186 59.9018 76.6186 59.3498 76.6186C56.3219 76.4925 52.5369 76.6186 52.5369 76.6186ZM66.7305 95.9849C64.6229 97.8785 62.0475 99.1743 59.271 99.7383C58.6559 99.8645 58.3563 99.833 58.3563 99.0287C58.3563 95.8745 58.3563 92.7204 58.3563 89.5663C58.3563 86.4122 58.3563 83.2581 58.3563 80.1039C58.3563 79.5677 58.4667 79.4258 59.0344 79.4258C64.4989 79.5648 69.9311 80.3106 75.2309 81.6495C75.7828 81.7914 76.0036 81.9018 75.7355 82.5641C73.8027 87.6808 70.7032 92.2761 66.6832 95.9849H66.7305ZM68.5126 98.1297C70.0961 96.6944 71.5379 95.11 72.8179 93.3986C75.1168 90.2927 76.9891 86.8928 78.385 83.2896C78.6373 82.643 78.8896 82.5484 79.5362 82.7692C82.4423 83.7855 85.2547 85.0519 87.942 86.5541C83.9993 91.3642 72.2975 98.3348 68.4653 98.1297H68.5126ZM90.4179 83.9362C90.0552 84.3778 89.8502 84.5039 89.2982 84.1728C86.4747 82.5344 83.4818 81.2071 80.3721 80.2143C79.7728 80.0251 79.6624 79.8043 79.8516 79.2365C81.8362 72.8762 82.8984 66.2641 83.0058 59.6021C83.0058 58.8294 83.195 58.5455 84.0466 58.5771C86.4753 58.5771 88.9197 58.5771 91.3642 58.5771H99.0445C99.5649 58.5771 99.7384 58.5771 99.7068 59.2394C99.2436 68.205 95.9781 76.7991 90.3706 83.81L90.4179 83.9362ZM99.1076 55.6753C96.5212 55.6753 93.9348 55.6753 91.3484 55.6753C88.762 55.6753 86.4122 55.6753 83.9362 55.6753C83.2423 55.6753 83.0373 55.486 83.0373 54.8079C82.9088 48.682 81.9972 42.5978 80.3248 36.7032C80.0882 35.8674 79.3627 34.8581 79.757 34.2115C80.1513 33.5649 81.3341 33.5806 82.0753 33.281C84.5194 32.3716 86.8828 31.2585 89.1405 29.9534C89.22 29.8812 89.315 29.8285 89.4183 29.7993C89.5216 29.7701 89.6302 29.7652 89.7356 29.7851C89.8411 29.8049 89.9405 29.849 90.0261 29.9138C90.1116 29.9786 90.181 30.0623 90.2287 30.1584C95.9413 37.2348 99.2551 45.9447 99.6911 55.0287C99.7542 55.5649 99.5807 55.6753 99.1076 55.6753Z" fill="#058054"/>
<path d="M11.2653 56.1957C11.3972 56.4742 11.4656 56.7786 11.4656 57.0867C11.4656 57.3949 11.3972 57.6992 11.2653 57.9778V56.1957Z" fill="#058054"/>
<path d="M11.3441 54.5871C11.3441 54.7921 11.4387 54.9971 11.2021 55.1233V54.5871C11.2021 54.5871 11.2652 54.5082 11.3441 54.5871Z" fill="#058054"/>
<path d="M11.3441 59.2394C11.3441 59.4287 11.486 59.6652 11.2021 59.7756V59.2394C11.2652 59.1448 11.2652 59.1606 11.3441 59.2394Z" fill="#058054"/>
<path d="M53.6882 102.735C53.7986 102.451 54.0351 102.593 54.2244 102.593C54.4136 102.593 54.2244 102.593 54.2244 102.687C54.2244 102.687 54.2244 102.782 54.2244 102.687L53.6882 102.735Z" fill="#058054"/>
<path d="M11.3441 54.5871H11.2653V54.2401C11.423 54.2717 11.3599 54.4294 11.3441 54.5871Z" fill="#058054"/>
<path d="M11.3441 59.2394H11.2653V58.8767C11.3757 58.9555 11.3757 59.0817 11.3441 59.2394Z" fill="#058054"/>
<path d="M54.2244 102.735C54.3821 102.735 54.5083 102.735 54.5872 102.877L54.2244 102.735Z" fill="#058054"/>
<path d="M59.2237 102.735C59.2577 102.668 59.3154 102.617 59.3854 102.59C59.4554 102.564 59.5328 102.565 59.6022 102.593C59.6022 102.593 59.6022 102.593 59.6022 102.687L59.2237 102.735Z" fill="#058054"/>
<path d="M59.5864 102.735C59.5788 102.688 59.5788 102.64 59.5864 102.593C59.7284 102.593 59.8861 102.593 59.9334 102.735H59.5864Z" fill="#058054"/>
<path d="M33.628 54.3978C33.628 54.6344 33.628 54.9025 33.628 55.1864C33.6203 55.1394 33.6203 55.0914 33.628 55.0444C33.5964 54.8236 33.6122 54.6186 33.628 54.3978Z" fill="#058054"/>
<path d="M60.8954 76.5871C60.3907 76.5871 59.8703 76.5871 59.3183 76.5871C59.9176 76.5398 60.438 76.5713 60.8954 76.5871Z" fill="#058054"/>
<path d="M80.2459 54.5556C80.2459 54.1298 80.2459 53.7197 80.2459 53.2939C80.2459 53.2939 80.2301 53.8459 80.2459 54.5556Z" fill="#058054"/>
<path d="M52.947 58.8925L47.8531 64.1283V72.7706H43.8V41.9548H47.8531V58.8925L64.3492 41.9548H69.3169L55.6753 56.038L70.2001 72.7706H65.0115L52.947 58.8925Z" fill="#058054"/>
</svg>
