<svg width="72" height="72" viewBox="0 0 72 72" fill="none" xmlns="http://www.w3.org/2000/svg">
<rect width="72" height="72" rx="36" fill="#1C2B1D"/>
<path d="M30.4735 19.868C29.2442 19.8604 28.0402 20.2183 27.0146 20.8961C25.989 21.574 25.1879 22.5413 24.7131 23.6753C24.2382 24.8093 24.111 26.0588 24.3476 27.2653C24.5841 28.4717 25.1738 29.5806 26.0418 30.4513C26.9098 31.3219 28.0169 31.9151 29.2226 32.1554C30.4282 32.3957 31.6781 32.2724 32.8136 31.8011C33.9491 31.3297 34.9189 30.5316 35.5999 29.5081C36.281 28.4846 36.6426 27.2818 36.6388 26.0524C36.6305 24.4181 35.9788 22.8528 34.825 21.6953C33.6711 20.5379 32.1078 19.8814 30.4735 19.868ZM30.4224 31.0358C29.4401 31.0345 28.4802 30.7418 27.6642 30.1947C26.8483 29.6476 26.2131 28.8707 25.8389 27.9624C25.4647 27.0541 25.3684 26.0552 25.5623 25.0922C25.7561 24.1291 26.2313 23.2452 26.9277 22.5524C27.6241 21.8595 28.5105 21.3889 29.4745 21.2C30.4385 21.0112 31.4369 21.1126 32.3433 21.4914C33.2497 21.8703 34.0233 22.5096 34.5661 23.3283C35.109 24.147 35.3968 25.1084 35.393 26.0908C35.3879 27.4051 34.8618 28.6638 33.93 29.5908C32.9982 30.5178 31.7368 31.0375 30.4224 31.0358ZM30.4735 19.868C29.2442 19.8604 28.0402 20.2183 27.0146 20.8961C25.989 21.574 25.1879 22.5413 24.7131 23.6753C24.2382 24.8093 24.111 26.0588 24.3476 27.2653C24.5841 28.4717 25.1738 29.5806 26.0418 30.4513C26.9098 31.3219 28.0169 31.9151 29.2226 32.1554C30.4282 32.3957 31.6781 32.2724 32.8136 31.8011C33.9491 31.3297 34.9189 30.5316 35.5999 29.5081C36.281 28.4846 36.6426 27.2818 36.6388 26.0524C36.6305 24.4181 35.9788 22.8528 34.825 21.6953C33.6711 20.5379 32.1078 19.8814 30.4735 19.868ZM30.4224 31.0358C29.4401 31.0345 28.4802 30.7418 27.6642 30.1947C26.8483 29.6476 26.2131 28.8707 25.8389 27.9624C25.4647 27.0541 25.3684 26.0552 25.5623 25.0922C25.7561 24.1291 26.2313 23.2452 26.9277 22.5524C27.6241 21.8595 28.5105 21.3889 29.4745 21.2C30.4385 21.0112 31.4369 21.1126 32.3433 21.4914C33.2497 21.8703 34.0233 22.5096 34.5661 23.3283C35.109 24.147 35.3968 25.1084 35.393 26.0908C35.3879 27.4051 34.8618 28.6638 33.93 29.5908C32.9982 30.5178 31.7368 31.0375 30.4224 31.0358ZM54.6108 37.2777C54.6154 36.8339 54.4999 36.3971 54.2765 36.0137C54.0531 35.6302 53.7301 35.3143 53.3417 35.0995C52.9534 34.8847 52.5141 34.779 52.0705 34.7935C51.627 34.8081 51.1956 34.9424 50.8222 35.1821C50.6049 35.3163 50.5027 35.3099 50.3366 35.1119C49.967 34.6199 49.4214 34.29 48.8141 34.1912C48.2068 34.0923 47.5848 34.2322 47.0783 34.5816C46.8419 34.7285 46.7652 34.671 46.6247 34.4922C46.3779 34.1735 46.0565 33.9205 45.6888 33.7556C45.3211 33.5907 44.9184 33.5189 44.5163 33.5466C44.1513 33.6006 43.7949 33.7015 43.4558 33.8469V33.3933C43.4558 30.1477 43.4558 26.9064 43.4558 23.6694C43.4728 23.0753 43.2736 22.4953 42.8953 22.037C42.5169 21.5788 41.9851 21.2734 41.3985 21.1777C40.829 21.092 40.247 21.1905 39.7374 21.4588V19.4655C39.7622 19.1849 39.7249 18.9023 39.6281 18.6378C39.5313 18.3733 39.3773 18.1334 39.1773 17.9352C38.9772 17.7369 38.7359 17.5852 38.4705 17.4908C38.2051 17.3964 37.9222 17.3617 37.6419 17.3891H23.2222C22.9383 17.3608 22.6517 17.3962 22.3833 17.4928C22.1148 17.5893 21.8713 17.7446 21.6706 17.9472C21.4698 18.1498 21.3167 18.3947 21.2226 18.664C21.1285 18.9333 21.0957 19.2202 21.1266 19.5038V31.0038C21.1266 31.6427 21.1266 31.6427 20.4877 31.6427C19.7601 31.6338 19.0536 31.8872 18.4975 32.3564C17.9415 32.8257 17.5729 33.4795 17.4594 34.1983C17.3188 35.339 17.306 36.4919 17.421 37.6355C17.5233 39.156 17.7021 40.6638 17.8555 42.178C18.0088 43.6921 18.1685 45.1871 18.2835 46.6885C18.4849 48.2762 18.6001 49.8737 18.6285 51.4738C18.6285 52.2597 18.6285 53.0455 18.6285 53.8377C18.6285 54.3999 18.8394 54.6044 19.4016 54.6044H32.748C33.3102 54.6044 33.5274 54.3999 33.5274 53.8377C33.5274 52.8219 33.5274 51.7997 33.5274 50.7774C33.5148 50.599 33.562 50.4214 33.6616 50.2727C34.3388 49.3144 35.0096 48.356 35.6869 47.3849C36.1418 47.1508 36.6661 47.0895 37.1627 47.2124C37.1815 47.232 37.1947 47.2563 37.201 47.2827C37.5199 47.9825 37.7351 48.725 37.8399 49.4869C37.8399 50.9244 37.8399 52.3555 37.8399 53.793C37.8399 54.4319 38.0444 54.6044 38.6449 54.6108H50.7327C51.3141 54.6108 51.5185 54.4063 51.5185 53.8185C51.5185 52.3661 51.5185 50.9201 51.5185 49.4805C51.5158 49.2627 51.5526 49.0462 51.6272 48.8416C52.3363 46.8738 53.0455 44.9124 53.7355 42.9383C54.0755 42.125 54.3407 41.2824 54.5277 40.421C54.6372 39.377 54.6649 38.326 54.6108 37.2777ZM32.2944 53.0391C32.2944 53.2755 32.2497 53.3777 31.9749 53.3777C28.0522 53.3777 24.1251 53.3777 20.1938 53.3777C19.9319 53.3777 19.868 53.2819 19.8744 53.0391C19.8744 52.43 19.8744 51.8231 19.8744 51.2183C19.8744 50.9308 19.9702 50.886 20.2258 50.886C22.1935 50.886 24.1549 50.886 26.1227 50.886C28.0905 50.886 29.956 50.886 31.8727 50.886C32.2433 50.886 32.3263 51.001 32.3135 51.3396C32.2688 51.8955 32.2816 52.4705 32.2944 53.0391ZM32.7033 49.4869C32.663 49.5443 32.6077 49.5895 32.5435 49.6176C32.4793 49.6458 32.4086 49.6558 32.3391 49.6466H20.098C19.8744 49.6466 19.8169 49.5635 19.7977 49.3527C19.606 47.3083 19.3888 45.2574 19.1971 43.2066C19.0502 41.7116 18.9608 40.2102 18.7819 38.7344C18.6599 37.4605 18.6129 36.1805 18.6413 34.901C18.6298 34.6445 18.6713 34.3884 18.763 34.1485C18.8548 33.9087 18.9949 33.6903 19.1747 33.5069C19.3545 33.3235 19.57 33.1791 19.808 33.0826C20.046 32.9861 20.3013 32.9396 20.558 32.946H24.7427C25.2358 32.946 25.7087 33.1419 26.0573 33.4906C26.406 33.8392 26.6019 34.3121 26.6019 34.8052C26.6019 35.2983 26.406 35.7712 26.0573 36.1198C25.7087 36.4685 25.2358 36.6644 24.7427 36.6644H21.8549C21.3438 36.6644 21.1266 36.8752 21.1202 37.3927C21.1202 40.0377 21.1202 42.6848 21.1202 45.3341C21.1194 45.5802 21.1672 45.824 21.261 46.0515C21.3548 46.2789 21.4926 46.4856 21.6666 46.6596C21.8406 46.8336 22.0473 46.9715 22.2748 47.0653C22.5023 47.159 22.7461 47.2069 22.9922 47.206C26.5955 47.206 30.1924 47.206 33.8022 47.206H34.3133C33.7447 47.9855 33.2272 48.7394 32.7033 49.4869ZM23.1583 45.9219C22.5705 45.9219 22.366 45.7174 22.3596 45.136C22.3596 44.6824 22.3596 44.2288 22.3596 43.7752C22.3277 43.443 22.5002 43.443 22.7494 43.443H31.8535C32.3072 43.443 32.7672 43.443 33.2144 43.443C33.4316 43.443 33.5338 43.4046 33.5402 43.1491C33.5402 42.1971 33.5402 42.1972 32.601 42.1972C29.3299 42.1972 26.0652 42.1972 22.7941 42.1972C22.4235 42.1972 22.3533 42.0885 22.3596 41.7435C22.3596 40.5808 22.3596 39.418 22.3596 38.2616C22.3596 37.9038 22.4683 37.8399 22.7941 37.8399C23.6845 37.8954 24.578 37.874 25.4647 37.776C26.2109 37.6327 26.8782 37.2196 27.3392 36.6156C27.8003 36.0116 28.0228 35.259 27.9644 34.5014C27.9059 33.7438 27.5705 33.0343 27.0223 32.5082C26.474 31.9821 25.7512 31.6763 24.9919 31.6491C24.238 31.6491 23.4905 31.6491 22.7366 31.6491C22.4619 31.6491 22.366 31.6044 22.366 31.2913C22.366 27.3259 22.366 23.3606 22.366 19.3952C22.366 18.833 22.5833 18.6158 23.1391 18.6158H37.7122C38.2808 18.6158 38.4916 18.833 38.4916 19.3888C38.4916 23.4734 38.4916 27.5559 38.4916 31.6363C38.4916 31.8919 38.4916 31.9685 38.1849 31.8472C37.8088 31.6862 37.3985 31.6219 36.9912 31.6601C36.5839 31.6982 36.1926 31.8376 35.8529 32.0655C35.5132 32.2935 35.2359 32.6027 35.0462 32.9652C34.8566 33.3276 34.7605 33.7317 34.7669 34.1408C34.7669 36.0063 34.7669 37.8655 34.7669 39.7247C34.8159 40.4734 34.9931 41.2081 35.2908 41.8969C35.7422 43.1747 36.198 44.4524 36.658 45.7302C36.658 45.7749 36.658 45.826 36.7027 45.9155L23.1583 45.9219ZM40.683 53.3777C40.2613 53.3777 39.8269 53.3777 39.4052 53.3777C39.1944 53.3777 39.1049 53.3394 39.1113 53.103C39.1113 52.0424 39.1113 50.9819 39.1113 49.9085C39.1113 49.7169 39.1497 49.621 39.3669 49.6274C39.8141 49.6274 40.2677 49.6274 40.7213 49.6274C40.9385 49.6274 40.9833 49.7169 40.9769 49.9085C40.9769 50.4324 40.9769 50.9627 40.9769 51.493C40.9769 52.0233 40.9769 52.5344 40.9769 53.0455C40.9833 53.2819 40.9385 53.3905 40.683 53.3777ZM44.0819 53.0838C44.0819 53.3074 44.018 53.3841 43.7944 53.3713C43.3599 53.3713 42.9191 53.3713 42.4783 53.3713C42.2802 53.3713 42.2099 53.3138 42.2099 53.1094C42.2099 52.036 42.2099 50.9691 42.2099 49.9149C42.2099 49.736 42.2738 49.6658 42.4527 49.6658C42.9084 49.6658 43.3621 49.6658 43.8135 49.6658C44.018 49.6658 44.0883 49.7296 44.0819 49.9341C44.0819 50.4771 44.0819 51.0202 44.0819 51.5633C44.0819 52.1063 44.0627 52.5727 44.0819 53.0838ZM47.1805 53.0327C47.1805 53.3138 47.0974 53.3905 46.8355 53.3777C46.4202 53.3777 46.0049 53.3777 45.5577 53.3777C45.3724 53.3777 45.2766 53.3777 45.2766 53.1285C45.2766 52.0552 45.2766 50.9819 45.2766 49.9341C45.2766 49.768 45.3085 49.6721 45.513 49.6721C45.973 49.6721 46.4394 49.6721 46.8994 49.6721C47.091 49.6721 47.1422 49.7488 47.1422 49.9277C47.1422 50.4708 47.1422 51.0138 47.1422 51.5569C47.1422 52.0999 47.1613 52.5344 47.1805 53.0327ZM50.2791 51.5377C50.2791 52.0552 50.2791 52.5727 50.2791 53.0838C50.2791 53.3074 50.2216 53.3841 49.998 53.3713C49.5572 53.3713 49.1227 53.3713 48.6819 53.3713C48.4774 53.3713 48.4135 53.3138 48.4199 53.1094V49.9149C48.4199 49.736 48.471 49.6658 48.6627 49.6658C49.1099 49.6658 49.5635 49.6658 50.0172 49.6658C50.2152 49.6658 50.2855 49.7296 50.2791 49.9341C50.2727 50.4516 50.2791 50.9947 50.2791 51.5377ZM53.3777 39.8333C53.2996 40.5279 53.1098 41.2053 52.8155 41.8394C52.0872 43.9158 51.3269 45.9858 50.5985 48.0685C50.5027 48.3241 50.3941 48.4263 50.113 48.4199C46.5011 48.4199 42.8935 48.4199 39.2902 48.4199C39.1793 48.4385 39.0656 48.4128 38.9735 48.3482C38.8815 48.2837 38.8185 48.1855 38.7983 48.0749C37.9613 45.7046 37.1052 43.3408 36.2427 40.9705C36.0743 40.5099 35.9878 40.0234 35.9872 39.533C35.9872 37.7505 35.9872 35.968 35.9872 34.1855C35.9812 33.9269 36.056 33.6728 36.201 33.4586C36.346 33.2444 36.554 33.0806 36.7963 32.99C37.0386 32.8995 37.3031 32.8865 37.5531 32.9531C37.803 33.0196 38.0261 33.1623 38.1913 33.3613C38.3866 33.6073 38.4844 33.9167 38.466 34.2302C38.466 35.7252 38.466 37.2266 38.466 38.7024C38.466 39.0027 38.5491 39.0921 38.8558 39.0921C39.7119 39.0921 39.7119 39.0921 39.7119 38.2424V23.6502C39.7067 23.3833 39.7852 23.1214 39.9365 22.9014C40.0877 22.6814 40.3041 22.5143 40.5552 22.4235C40.7939 22.3392 41.0528 22.3308 41.2964 22.3994C41.54 22.4681 41.7565 22.6104 41.916 22.8069C42.1215 23.075 42.2215 23.4091 42.1972 23.746V38.5555C42.1972 39.1944 42.1077 39.1241 42.7658 39.1305C43.4238 39.1369 43.4366 39.1305 43.4366 38.4596C43.4366 37.6802 43.4366 36.9008 43.4366 36.1341C43.419 35.9608 43.4379 35.7856 43.4922 35.6201C43.5464 35.4545 43.6348 35.3022 43.7516 35.1729C43.8684 35.0436 44.0111 34.9403 44.1703 34.8695C44.3295 34.7988 44.5018 34.7623 44.676 34.7623C44.8503 34.7623 45.0226 34.7988 45.1818 34.8695C45.341 34.9403 45.4836 35.0436 45.6005 35.1729C45.7173 35.3022 45.8056 35.4545 45.8599 35.6201C45.9142 35.7856 45.9331 35.9608 45.9155 36.1341C45.9155 37.0222 45.9155 37.9166 45.9155 38.8046C45.9155 39.0347 45.973 39.1177 46.2158 39.1241C47.1549 39.1241 47.1549 39.1241 47.1549 38.2169C47.1549 37.693 47.1549 37.1755 47.1549 36.6644C47.1489 36.4982 47.1765 36.3325 47.2362 36.1773C47.2959 36.022 47.3863 35.8805 47.5021 35.7611C47.6179 35.6417 47.7566 35.547 47.91 35.4827C48.0633 35.4183 48.2281 35.3856 48.3944 35.3866C48.7266 35.3966 49.0418 35.5356 49.2732 35.7741C49.5046 36.0127 49.634 36.332 49.6338 36.6644C49.6338 37.5652 49.6338 38.4724 49.6338 39.3733C49.6338 39.6288 49.6785 39.7438 49.9724 39.7438C50.8797 39.7438 50.8797 39.7438 50.8797 38.8366C50.8797 38.3191 50.8797 37.8016 50.8797 37.2841C50.8674 37.1134 50.8904 36.942 50.9473 36.7807C51.0042 36.6193 51.0938 36.4714 51.2104 36.3461C51.327 36.2209 51.4681 36.121 51.625 36.0527C51.7819 35.9844 51.9512 35.9491 52.1223 35.9491C52.2934 35.9491 52.4627 35.9844 52.6196 36.0527C52.7765 36.121 52.9176 36.2209 53.0342 36.3461C53.1508 36.4714 53.2403 36.6193 53.2972 36.7807C53.3541 36.942 53.3772 37.1134 53.3649 37.2841C53.3905 38.121 53.3905 38.9708 53.3777 39.8333ZM36.6388 26.0524C36.635 24.8255 36.2675 23.6272 35.5827 22.6091C34.8979 21.5911 33.9265 20.799 32.7915 20.3329C31.6565 19.8669 30.4088 19.7479 29.2062 19.991C28.0035 20.2341 26.9 20.8283 26.0351 21.6986C25.1702 22.5688 24.5828 23.676 24.3471 24.8802C24.1115 26.0843 24.2382 27.3312 24.7112 28.4633C25.1842 29.5954 25.9824 30.5618 27.0046 31.2404C28.0269 31.9189 29.2274 32.279 30.4544 32.2752C32.0981 32.2651 33.6711 31.605 34.8298 30.4391C35.9885 29.2732 36.6388 27.6962 36.6388 26.0524ZM30.4352 31.0358C29.4528 31.0345 28.4929 30.7418 27.677 30.1947C26.8611 29.6476 26.2258 28.8707 25.8517 27.9624C25.4775 27.0541 25.3812 26.0552 25.575 25.0922C25.7689 24.1291 26.2441 23.2452 26.9405 22.5524C27.6369 21.8595 28.5232 21.3889 29.4873 21.2C30.4513 21.0112 31.4497 21.1126 32.3561 21.4914C33.2625 21.8703 34.036 22.5096 34.5789 23.3283C35.1218 24.147 35.4096 25.1084 35.4058 26.0908C35.4032 26.7427 35.2724 27.3877 35.0206 27.989C34.7688 28.5903 34.401 29.1362 33.9382 29.5954C33.4755 30.0545 32.9268 30.4181 32.3236 30.6652C31.7204 30.9124 31.0743 31.0383 30.4224 31.0358H30.4352Z" fill="#11C170"/>
<path d="M52.3938 23.5928H49.0652C47.928 23.5928 46.7908 23.5928 45.6535 23.5928C45.4235 23.5928 45.3085 23.5609 45.3085 23.2798C45.3085 22.347 45.3085 22.347 46.2221 22.347H52.5024L51.4227 21.3056C51.0394 20.9159 51.0266 21.0117 51.4227 20.6028C51.9466 20.0726 51.953 20.0789 52.4833 20.6028L54.3169 22.4364C54.7321 22.8517 54.7258 23.1456 54.3169 23.5609C53.6077 24.2764 52.8858 24.9856 52.183 25.7076C52.0169 25.8737 51.921 25.8737 51.7485 25.7076C51.1096 25.0687 51.0649 25.0687 51.7485 24.3723C51.9721 24.1487 52.2085 23.9314 52.4449 23.7334L52.3938 23.5928Z" fill="#11C170"/>
<path d="M46.8036 27.3176C49.1419 27.3176 51.3524 27.3176 53.563 27.3176C53.9016 27.3176 54.023 27.3943 54.0102 27.7584C54.0102 28.5698 54.0102 28.5698 53.2052 28.5698H46.8163C47.238 28.9915 47.583 29.3621 47.9536 29.7007C48.1644 29.8987 48.2155 30.0201 47.9536 30.2501C47.3147 30.8571 47.3147 30.889 46.6758 30.2501L44.9252 28.4932C44.8369 28.435 44.7644 28.3558 44.7143 28.2627C44.6641 28.1696 44.6379 28.0655 44.6379 27.9597C44.6379 27.8539 44.6641 27.7498 44.7143 27.6567C44.7644 27.5636 44.8369 27.4844 44.9252 27.4262C45.6408 26.6979 46.3691 25.9823 47.0847 25.254C47.2572 25.0751 47.3658 25.0687 47.5511 25.254C48.1899 25.8929 48.1899 25.8929 47.5511 26.5637L46.8036 27.3176Z" fill="#11C170"/>
<path d="M30.4735 19.868C29.2442 19.8604 28.0403 20.2183 27.0146 20.8962C25.989 21.5741 25.1879 22.5414 24.7131 23.6754C24.2382 24.8094 24.111 26.0589 24.3476 27.2653C24.5842 28.4717 25.1739 29.5807 26.0418 30.4513C26.9098 31.322 28.0169 31.9151 29.2226 32.1555C30.4283 32.3958 31.6782 32.2725 32.8136 31.8011C33.9491 31.3298 34.9189 30.5317 35.5999 29.5082C36.281 28.4847 36.6426 27.2819 36.6388 26.0525C36.6305 24.4182 35.9789 22.8528 34.825 21.6954C33.6711 20.5379 32.1078 19.8815 30.4735 19.868ZM30.4224 31.0358C29.4401 31.0345 28.4802 30.7418 27.6643 30.1947C26.8483 29.6477 26.2131 28.8708 25.8389 27.9625C25.4647 27.0542 25.3685 26.0553 25.5623 25.0922C25.7561 24.1292 26.2313 23.2453 26.9277 22.5524C27.6241 21.8596 28.5105 21.3889 29.4745 21.2001C30.4386 21.0112 31.4369 21.1126 32.3433 21.4915C33.2497 21.8704 34.0233 22.5096 34.5662 23.3283C35.109 24.1471 35.3968 25.1085 35.393 26.0908C35.3879 27.4052 34.8618 28.6639 33.93 29.5909C32.9982 30.5179 31.7368 31.0375 30.4224 31.0358Z" fill="#11C170"/>
<path d="M30.4735 19.868C29.2442 19.8604 28.0403 20.2183 27.0146 20.8962C25.989 21.5741 25.1879 22.5414 24.7131 23.6754C24.2382 24.8094 24.111 26.0589 24.3476 27.2653C24.5842 28.4717 25.1739 29.5807 26.0418 30.4513C26.9098 31.322 28.0169 31.9151 29.2226 32.1555C30.4283 32.3958 31.6782 32.2725 32.8136 31.8011C33.9491 31.3298 34.9189 30.5317 35.5999 29.5082C36.281 28.4847 36.6426 27.2819 36.6388 26.0525C36.6305 24.4182 35.9789 22.8528 34.825 21.6954C33.6711 20.5379 32.1078 19.8815 30.4735 19.868ZM30.4224 31.0358C29.4401 31.0345 28.4802 30.7418 27.6643 30.1947C26.8483 29.6477 26.2131 28.8708 25.8389 27.9625C25.4647 27.0542 25.3685 26.0553 25.5623 25.0922C25.7561 24.1292 26.2313 23.2453 26.9277 22.5524C27.6241 21.8596 28.5105 21.3889 29.4745 21.2001C30.4386 21.0112 31.4369 21.1126 32.3433 21.4915C33.2497 21.8704 34.0233 22.5096 34.5662 23.3283C35.109 24.1471 35.3968 25.1085 35.393 26.0908C35.3879 27.4052 34.8618 28.6639 33.93 29.5909C32.9982 30.5179 31.7368 31.0375 30.4224 31.0358Z" fill="#11C170"/>
<path d="M32.8055 25.2922H33.5913C33.658 25.2996 33.7249 25.2813 33.7784 25.2409C33.8319 25.2005 33.8678 25.1411 33.8788 25.075V24.9664C33.8595 24.8993 33.8164 24.8416 33.7576 24.804C33.6988 24.7664 33.6284 24.7514 33.5594 24.7619H32.7416C32.6905 24.7619 32.6777 24.7619 32.6777 24.6916V23.5416C32.6871 23.4524 32.6871 23.3625 32.6777 23.2733C32.6625 23.1922 32.6186 23.1192 32.5542 23.0676C32.4897 23.016 32.4089 22.9892 32.3263 22.9922C32.2477 22.9852 32.1692 23.0065 32.1048 23.0521C32.0404 23.0978 31.9944 23.1649 31.9749 23.2414C31.9465 23.341 31.9336 23.4444 31.9366 23.548V24.698C31.9366 24.7364 31.9366 24.7619 31.8791 24.7619C31.3297 24.7619 30.7738 24.7619 30.2244 24.7619C30.1861 24.7619 30.1669 24.7619 30.1413 24.7108L29.9113 24.353C29.6622 23.9889 29.4258 23.6183 29.183 23.2477C29.1306 23.1557 29.0512 23.0819 28.9556 23.0363C28.8599 22.9908 28.7526 22.9757 28.6481 22.9931C28.5436 23.0105 28.4469 23.0596 28.3712 23.1337C28.2955 23.2078 28.2443 23.3034 28.2247 23.4075C28.2149 23.5095 28.2149 23.6121 28.2247 23.7141C28.2247 24.04 28.2247 24.353 28.2247 24.6916C28.2247 24.7491 28.2247 24.7619 28.1544 24.7619H27.2599C27.2048 24.7609 27.1507 24.7769 27.1049 24.8078C27.0592 24.8387 27.0241 24.8829 27.0044 24.9344C26.9907 24.974 26.987 25.0164 26.9935 25.0578C27.0001 25.0992 27.0167 25.1383 27.042 25.1718C27.0672 25.2053 27.1003 25.232 27.1383 25.2496C27.1763 25.2673 27.2181 25.2753 27.2599 25.273C27.5474 25.273 27.8349 25.273 28.1224 25.273C28.1672 25.273 28.1799 25.273 28.1736 25.3305C28.1736 25.5925 28.1736 25.848 28.1736 26.11C28.1736 26.1675 28.1736 26.1739 28.1033 26.1739H27.2727C27.209 26.1701 27.1459 26.1881 27.0938 26.225C27.0517 26.2568 27.0205 26.301 27.0045 26.3513C26.9884 26.4017 26.9884 26.4557 27.0044 26.5061C27.0197 26.5583 27.0518 26.6041 27.0956 26.6364C27.1395 26.6687 27.1927 26.6858 27.2472 26.685H28.1161C28.1672 26.685 28.1799 26.685 28.1799 26.7489C28.1799 27.1897 28.1799 27.6305 28.1799 28.0714C28.1705 28.1584 28.1705 28.2462 28.1799 28.3333C28.1947 28.4146 28.2371 28.4883 28.3 28.5418C28.3629 28.5954 28.4424 28.6256 28.5249 28.6272C28.6052 28.6354 28.6858 28.6158 28.7533 28.5716C28.8208 28.5273 28.871 28.4613 28.8955 28.3844C28.9326 28.2844 28.9478 28.1777 28.9402 28.0714V26.7425C28.9402 26.6914 28.9402 26.6786 29.0041 26.6786H30.5055C30.5221 26.6776 30.5387 26.6812 30.5534 26.6891C30.5681 26.697 30.5803 26.7089 30.5886 26.7233C30.7036 26.9086 30.8249 27.0875 30.9399 27.2664C31.1827 27.6305 31.3999 28.0075 31.6683 28.3461C31.7264 28.4298 31.8037 28.4985 31.8937 28.5463C31.9837 28.5941 32.0839 28.6196 32.1858 28.6208C32.2396 28.6289 32.2944 28.6262 32.3471 28.6129C32.3998 28.5995 32.4493 28.5758 32.4928 28.5431C32.5362 28.5103 32.5727 28.4693 32.6 28.4223C32.6274 28.3753 32.6451 28.3233 32.6522 28.2694C32.6617 28.1717 32.6617 28.0733 32.6522 27.9755V26.7361C32.6522 26.6914 32.6522 26.6786 32.7033 26.6786C32.978 26.6786 33.2527 26.6786 33.5211 26.6786C33.5909 26.6894 33.6622 26.6746 33.7221 26.6371C33.7819 26.5995 33.8262 26.5417 33.8469 26.4741V26.3719C33.836 26.3065 33.8012 26.2474 33.7493 26.2061C33.6974 26.1648 33.632 26.1442 33.5658 26.1483H32.8055C32.7224 26.1483 32.7161 26.1483 32.7161 26.0589V25.388C32.6969 25.2922 32.6969 25.2922 32.8055 25.2922ZM28.9722 24.2508L29.3044 24.7555H28.9722H28.9402C28.9722 24.5702 28.9722 24.4105 28.9722 24.2508ZM30.2116 26.1675H29.0233C28.9722 26.1675 28.9594 26.1675 28.9594 26.11V25.3241C28.9594 25.2794 28.9594 25.2666 29.0105 25.2666C29.2022 25.2666 29.4002 25.2666 29.5919 25.2666C29.6044 25.2658 29.617 25.2683 29.6282 25.2739C29.6394 25.2795 29.649 25.288 29.6558 25.2986L30.2116 26.1483V26.1675ZM31.9111 27.4005L31.4319 26.6722H31.8983C31.8983 26.6722 31.8983 26.6722 31.8983 26.7041L31.9111 27.4005ZM31.9111 26.1227C31.9111 26.1611 31.9111 26.1739 31.8599 26.1739H31.1316C31.0997 26.1739 31.0805 26.1739 31.0613 26.1739L30.4863 25.2986H31.8536C31.9047 25.2986 31.9111 25.2986 31.9111 25.3625V26.1227Z" fill="#11C170"/>
</svg>
