<svg width="278" height="36" viewBox="0 0 278 36" fill="none" xmlns="http://www.w3.org/2000/svg">
<path d="M52.2261 9.13602H41.9632V14.2271H51.3812V17.4655H41.9632V25.2669H38.415V5.88672H52.2261V9.13602Z" fill="#F3FCF8"/>
<path d="M58.132 8.58376C57.9367 8.78591 57.7008 8.94581 57.4392 9.05327C57.1777 9.16072 56.8963 9.21338 56.6129 9.20787C56.3247 9.21255 56.0386 9.15965 55.7718 9.05237C55.505 8.9451 55.263 8.78568 55.0606 8.58376C54.8527 8.39017 54.688 8.15615 54.5769 7.89656C54.4658 7.63697 54.4108 7.35749 54.4153 7.07586C54.413 6.79873 54.4692 6.52415 54.5803 6.26949C54.6913 6.01482 54.8549 5.7856 55.0606 5.59632C55.2634 5.3951 55.5055 5.23629 55.7722 5.12942C56.039 5.02254 56.3249 4.96981 56.6129 4.9744C57.1775 4.98062 57.7173 5.20396 58.1168 5.59665C58.5162 5.98935 58.7438 6.52025 58.7507 7.07586C58.7555 7.35518 58.7032 7.6326 58.5969 7.89164C58.4907 8.15069 58.3325 8.38605 58.132 8.58376ZM54.8965 25.2558V11.0998H58.2805V25.2667L54.8965 25.2558Z" fill="#F3FCF8"/>
<path d="M68.8446 10.7573C69.3477 10.7598 69.8484 10.8251 70.3348 10.9515L70.1375 14.0219C69.6988 13.9386 69.2536 13.8926 68.8069 13.8844C67.0639 13.8844 65.7422 14.6038 64.8419 16.0426V25.2559H61.4756V11.0999H64.8507V12.6275C65.8073 11.3807 67.1385 10.7573 68.8446 10.7573Z" fill="#F3FCF8"/>
<path d="M77.841 25.5875C76.6357 25.5939 75.4374 25.4074 74.2929 25.0354C73.2541 24.7126 72.2893 24.1937 71.4521 23.5078L73.1952 21.018C74.6943 22.1614 76.2783 22.7332 77.9474 22.7332C78.7169 22.7332 79.3201 22.5957 79.7614 22.3186C79.9629 22.2098 80.131 22.0497 80.248 21.855C80.3651 21.6604 80.4268 21.4383 80.4267 21.2122C80.4267 20.5124 79.7614 20.0141 78.4309 19.7174L75.9272 19.1369C74.5035 18.8052 73.4687 18.3258 72.8226 17.6988C72.4992 17.3804 72.2461 16.9998 72.079 16.5808C71.9118 16.1618 71.8343 15.7133 71.8513 15.2635C71.831 14.6363 71.9609 14.0132 72.2306 13.4446C72.5003 12.876 72.9021 12.3777 73.4036 11.9902C74.4385 11.158 75.843 10.7427 77.617 10.7441C80.0711 10.7441 82.0581 11.4359 83.5779 12.8194L81.7506 15.1718C80.4008 14.12 78.9764 13.5941 77.4773 13.5941C76.7256 13.5941 76.1468 13.7229 75.7609 13.9804C75.5778 14.0897 75.427 14.2444 75.3235 14.4289C75.22 14.6134 75.1674 14.8214 75.171 15.0322C75.1701 15.1938 75.2102 15.3531 75.2876 15.4956C75.3651 15.6381 75.4774 15.7593 75.6146 15.8483C75.9051 16.0665 76.4262 16.2498 77.1669 16.4157L79.6705 16.9983C81.1119 17.33 82.1564 17.8188 82.8039 18.4648C83.133 18.7993 83.3894 19.1963 83.5575 19.6315C83.7256 20.0667 83.802 20.531 83.7819 20.9961C83.8054 21.6366 83.675 22.2735 83.4014 22.8552C83.1279 23.4368 82.7188 23.9467 82.2074 24.3436C81.1518 25.1729 79.6964 25.5875 77.841 25.5875Z" fill="#F3FCF8"/>
<path d="M95.7815 22.1023L96.2605 24.8956C95.2236 25.3406 94.1006 25.5581 92.9697 25.5328C89.5014 25.5328 87.7672 23.6975 87.7672 20.0271V13.9933H84.8156V11.0997H87.7739V7.71289H91.149V11.0997H95.7328V14.0042H91.1424V19.6495C91.1424 20.6461 91.339 21.3735 91.7322 21.8317C92.1255 22.29 92.7442 22.5155 93.5884 22.5082C94.3361 22.4834 95.0757 22.3465 95.7815 22.1023Z" fill="#F3FCF8"/>
<path d="M122.523 5.88672H126.91V25.256H123.395V11.5364L117.124 24.7082H114.285L107.985 11.4775V25.256H104.499V5.88672H108.885L115.715 20.2194L122.523 5.88672Z" fill="#F3FCF8"/>
<path d="M140.211 11.1001H143.586V25.267H140.211V24.0777C139.01 25.096 137.539 25.6052 135.796 25.6052C134.109 25.6052 132.773 25.0887 131.788 24.0558C130.804 23.0229 130.312 21.5841 130.312 19.7394V11.1001H133.678V19.0149C133.678 21.3761 134.671 22.5567 136.658 22.5567C138.046 22.5567 139.229 21.9849 140.206 20.8415L140.211 11.1001Z" fill="#F3FCF8"/>
<path d="M146.79 25.256V4.83496H150.165V25.256H146.79Z" fill="#F3FCF8"/>
<path d="M162.651 22.1023L163.128 24.8956C162.093 25.3395 160.974 25.5569 159.846 25.5328C156.377 25.5328 154.643 23.6975 154.643 20.0271V13.9933H151.683V11.0997H154.636V7.71289H158.009V11.0997H162.593V14.0042H158.009V19.6495C158.009 20.6461 158.207 21.3735 158.601 21.8317C158.996 22.29 159.615 22.5155 160.458 22.5082C161.205 22.4832 161.945 22.3463 162.651 22.1023Z" fill="#F3FCF8"/>
<path d="M168.217 8.58379C168.022 8.78616 167.786 8.9462 167.524 9.05367C167.263 9.16115 166.981 9.21368 166.698 9.2079C166.409 9.21283 166.123 9.16005 165.856 9.05276C165.589 8.94547 165.348 8.78592 165.145 8.58379C164.938 8.38993 164.774 8.15581 164.663 7.89625C164.552 7.63669 164.498 7.35734 164.502 7.07589C164.5 6.79862 164.557 6.52399 164.668 6.26933C164.78 6.01467 164.944 5.78552 165.15 5.59635C165.352 5.39493 165.594 5.23598 165.861 5.12909C166.128 5.02221 166.414 4.96959 166.702 4.97443C167.267 4.97954 167.807 5.20252 168.207 5.59545C168.607 5.98839 168.834 6.51993 168.84 7.07589C168.845 7.35558 168.792 7.63334 168.685 7.89247C168.578 8.1516 168.418 8.38675 168.217 8.58379ZM164.983 25.2558V11.0999H168.359V25.2667L164.983 25.2558Z" fill="#F3FCF8"/>
<path d="M179.098 10.7572C180.045 10.7423 180.985 10.923 181.857 11.2876C182.729 11.6521 183.514 12.1926 184.161 12.8739C185.547 14.2851 186.241 16.0512 186.241 18.1723C186.241 20.2934 185.547 22.0603 184.161 23.4729C183.513 24.1536 182.729 24.6933 181.857 25.0575C180.985 25.4217 180.045 25.6022 179.098 25.5875C177.412 25.5875 176.026 25.1081 174.938 24.1494V31.2895H171.562V11.0998H174.938V12.1909C176.024 11.2366 177.411 10.7587 179.098 10.7572ZM178.592 22.5411C179.153 22.5579 179.712 22.4594 180.232 22.252C180.753 22.0446 181.224 21.7328 181.615 21.3365C182.412 20.5335 182.81 19.4773 182.81 18.168C182.81 16.8586 182.412 15.8119 181.615 15.0278C181.222 14.6349 180.75 14.3262 180.23 14.1212C179.71 13.9162 179.152 13.8192 178.592 13.8363C177.074 13.8363 175.856 14.3811 174.938 15.4708V20.8935C175.377 21.427 175.935 21.8537 176.569 22.1402C177.202 22.4267 177.895 22.5654 178.592 22.5455V22.5411Z" fill="#F3FCF8"/>
<path d="M188.603 25.256V4.83496H191.978V25.256H188.603Z" fill="#F3FCF8"/>
<path d="M209.157 17.7578C209.159 18.1746 209.13 18.5909 209.073 19.0039H197.686C197.817 20.2026 198.272 21.125 199.05 21.7709C199.827 22.4168 200.844 22.7391 202.101 22.7376C203.807 22.7376 205.222 22.0648 206.345 20.7191L208.707 22.4888C207.153 24.5547 204.932 25.5876 202.043 25.5876C199.719 25.5876 197.85 24.9147 196.435 23.569C195.02 22.2233 194.312 20.4616 194.311 18.2837C194.311 16.0884 195.032 14.2852 196.475 12.8741C197.918 11.4629 199.766 10.7573 202.019 10.7573C204.137 10.7573 205.857 11.3938 207.177 12.6668C208.497 13.9397 209.157 15.6367 209.157 17.7578ZM201.979 13.5527C201.032 13.5209 200.1 13.787 199.318 14.3121C198.575 14.849 198.052 15.629 197.841 16.5118H205.749C205.397 14.5391 204.14 13.5527 201.979 13.5527Z" fill="#F3FCF8"/>
<path d="M235.957 5.88672H240.343V25.256H236.829V11.5364L230.557 24.7082H227.716L221.419 11.4819V25.2603H217.932V5.88672H222.319L229.151 20.2194L235.957 5.88672Z" fill="#F3FCF8"/>
<path d="M258.031 9.13602H247.766V14.2271H257.197V17.4655H247.777V25.2669H244.229V5.88672H258.035L258.031 9.13602Z" fill="#F3FCF8"/>
<path d="M273.439 14.825C275.745 15.6179 276.898 17.1862 276.898 19.5299C276.898 21.3003 276.261 22.6977 274.986 23.7219C273.712 24.746 271.912 25.2552 269.587 25.2494H261.038V5.88672H268.912C270.993 5.88672 272.614 6.34353 273.776 7.25714C274.938 8.17076 275.519 9.43862 275.521 11.0607C275.521 12.8152 274.827 14.07 273.439 14.825ZM269.003 8.90252H264.568V13.579H269.003C269.958 13.579 270.69 13.3673 271.197 12.944C271.448 12.728 271.648 12.4588 271.779 12.1565C271.91 11.8542 271.97 11.5266 271.955 11.1982C271.951 9.66775 270.964 8.90252 268.997 8.90252H269.003ZM269.509 22.2401C270.726 22.2401 271.653 21.9863 272.292 21.4786C272.607 21.2288 272.857 20.9095 273.023 20.5467C273.19 20.1839 273.266 19.7877 273.248 19.3902C273.265 18.9894 273.186 18.5903 273.018 18.2249C272.849 17.8596 272.596 17.5382 272.279 17.2865C271.631 16.7715 270.708 16.5133 269.509 16.5119H264.559V22.2401H269.509Z" fill="#F3FCF8"/>
<path d="M1.10156 25.2993H11.0452V33.9256C11.045 34.1772 10.966 34.4226 10.8188 34.6283C10.6716 34.834 10.4635 34.9901 10.2228 35.075C9.98216 35.16 9.72072 35.1698 9.47419 35.1032C9.22765 35.0365 9.00805 34.8965 8.84535 34.7024L1.10156 25.2993Z" fill="#F3FCF8"/>
<path d="M1.10156 0.852051H25.9451V10.6305H11.0385V15.5208H5.12425L1.10156 10.6305V0.852051Z" fill="#F3FCF8"/>
<path d="M9.79688 20.4833C10.1264 20.4827 10.4423 20.3535 10.6751 20.124C10.908 19.8945 11.0387 19.5834 11.0387 19.2591V15.521H25.9453V25.2994H1.1084V15.521H5.12444L8.83888 20.0469C8.95628 20.1843 9.10295 20.2946 9.2685 20.3701C9.43406 20.4455 9.61445 20.4841 9.79688 20.4833Z" fill="#F3FCF8"/>
</svg>
