<svg width="114" height="114" viewBox="0 0 114 114" fill="none" xmlns="http://www.w3.org/2000/svg">
<path d="M43.3584 17.1792C40.3238 17.1605 37.352 18.0438 34.8203 19.7171C32.2886 21.3904 30.3112 23.7782 29.139 26.5774C27.9669 29.3766 27.6528 32.461 28.2368 35.439C28.8208 38.417 30.2764 41.1543 32.419 43.3035C34.5615 45.4527 37.2943 46.9168 40.2705 47.51C43.2466 48.1032 46.3319 47.7988 49.1348 46.6353C51.9376 45.4719 54.3315 43.5019 56.0127 40.9754C57.6938 38.4489 58.5864 35.4798 58.5771 32.4452C58.5565 28.4109 56.948 24.547 54.0997 21.6899C51.2515 18.8328 47.3926 17.2123 43.3584 17.1792ZM43.2323 44.7462C40.8074 44.7431 38.4379 44.0206 36.4239 42.6701C34.4098 41.3196 32.8417 39.402 31.9181 37.1599C30.9944 34.9178 30.7568 32.452 31.2352 30.0748C31.7137 27.6975 32.8867 25.5157 34.6058 23.8055C36.3248 22.0952 38.5127 20.9335 40.8924 20.4673C43.2721 20.0011 45.7365 20.2515 47.9739 21.1866C50.2112 22.1218 52.1207 23.6998 53.4608 25.7208C54.8009 27.7417 55.5112 30.1149 55.5018 32.5398C55.4893 35.7842 54.1906 38.8912 51.8905 41.1795C49.5904 43.4678 46.4767 44.7504 43.2323 44.7462ZM43.3584 17.1792C40.3238 17.1605 37.352 18.0438 34.8203 19.7171C32.2886 21.3904 30.3112 23.7782 29.139 26.5774C27.9669 29.3766 27.6528 32.461 28.2368 35.439C28.8208 38.417 30.2764 41.1543 32.419 43.3035C34.5615 45.4527 37.2943 46.9168 40.2705 47.51C43.2466 48.1032 46.3319 47.7988 49.1348 46.6353C51.9376 45.4719 54.3315 43.5019 56.0127 40.9754C57.6938 38.4489 58.5864 35.4798 58.5771 32.4452C58.5565 28.4109 56.948 24.547 54.0997 21.6899C51.2515 18.8328 47.3926 17.2123 43.3584 17.1792ZM43.2323 44.7462C40.8074 44.7431 38.4379 44.0206 36.4239 42.6701C34.4098 41.3196 32.8417 39.402 31.9181 37.1599C30.9944 34.9178 30.7568 32.452 31.2352 30.0748C31.7137 27.6975 32.8867 25.5157 34.6058 23.8055C36.3248 22.0952 38.5127 20.9335 40.8924 20.4673C43.2721 20.0011 45.7365 20.2515 47.9739 21.1866C50.2112 22.1218 52.1207 23.6998 53.4608 25.7208C54.8009 27.7417 55.5112 30.1149 55.5018 32.5398C55.4893 35.7842 54.1906 38.8912 51.8905 41.1795C49.5904 43.4678 46.4767 44.7504 43.2323 44.7462ZM102.94 60.1541C102.951 59.0587 102.666 57.9805 102.115 57.0339C101.563 56.0873 100.766 55.3076 99.8072 54.7774C98.8486 54.2471 97.7643 53.9861 96.6694 54.022C95.5745 54.0579 94.5097 54.3894 93.5878 54.9814C93.0516 55.3125 92.7993 55.2968 92.3893 54.8079C91.4769 53.5935 90.1303 52.7791 88.6311 52.5352C87.132 52.2912 85.5966 52.6365 84.3463 53.4989C83.7627 53.8616 83.5735 53.7197 83.2265 53.2781C82.6175 52.4916 81.8241 51.8671 80.9164 51.46C80.0087 51.053 79.0147 50.8758 78.0222 50.9441C77.1213 51.0773 76.2414 51.3264 75.4043 51.6853V50.5656C75.4043 42.5541 75.4043 34.5532 75.4043 26.5627C75.4464 25.0964 74.9548 23.6646 74.0208 22.5334C73.0868 21.4022 71.774 20.6484 70.3262 20.4122C68.9204 20.2007 67.4837 20.4438 66.2258 21.1061V16.1857C66.287 15.4931 66.1949 14.7955 65.9559 14.1427C65.7169 13.4898 65.3369 12.8976 64.8431 12.4082C64.3492 11.9188 63.7535 11.5443 63.0985 11.3113C62.4434 11.0784 61.745 10.9926 61.0531 11.0602H25.4588C24.7581 10.9903 24.0507 11.0778 23.3881 11.3161C22.7254 11.5544 22.1244 11.9377 21.6288 12.4379C21.1331 12.938 20.7554 13.5426 20.5231 14.2073C20.2908 14.872 20.2098 15.5803 20.286 16.2803V44.6674C20.286 46.2444 20.286 46.2444 18.709 46.2444C16.913 46.2224 15.1691 46.8478 13.7964 48.0062C12.4237 49.1646 11.514 50.7785 11.2337 52.5527C10.8868 55.3686 10.855 58.2144 11.1391 61.0373C11.3914 64.7907 11.833 68.5125 12.2115 72.2502C12.59 75.9878 12.9842 79.6781 13.2681 83.3842C13.7653 87.3033 14.0495 91.2465 14.1197 95.1964C14.1197 97.1362 14.1197 99.076 14.1197 101.032C14.1197 102.419 14.6402 102.924 16.028 102.924H48.9728C50.3606 102.924 50.8968 102.419 50.8968 101.032C50.8968 98.524 50.8968 96.0007 50.8968 93.4774C50.8657 93.0369 50.9822 92.5985 51.228 92.2315C52.8997 89.8659 54.5556 87.5004 56.2273 85.1032C57.3501 84.5253 58.6444 84.374 59.8703 84.6774C59.9166 84.7258 59.9493 84.7857 59.9649 84.8509C60.7519 86.5784 61.2831 88.4112 61.5419 90.2918C61.5419 93.8401 61.5419 97.3728 61.5419 100.921C61.5419 102.498 62.0466 102.924 63.529 102.94H93.367C94.8022 102.94 95.3068 102.435 95.3068 100.984C95.3068 97.399 95.3068 93.8296 95.3068 90.276C95.3001 89.7384 95.391 89.2041 95.5749 88.6989C97.3255 83.8416 99.076 79 100.779 74.1269C101.619 72.1194 102.273 70.0396 102.735 67.9133C103.005 65.3362 103.074 62.7419 102.94 60.1541ZM47.8531 99.0602C47.8531 99.6437 47.7427 99.8961 47.0645 99.8961C37.3814 99.8961 27.6877 99.8961 17.9835 99.8961C17.3369 99.8961 17.1792 99.6595 17.195 99.0602C17.195 97.5567 17.195 96.0585 17.195 94.5656C17.195 93.8559 17.4315 93.7455 18.0624 93.7455C22.9197 93.7455 27.7613 93.7455 32.6186 93.7455C37.476 93.7455 42.081 93.7455 46.8122 93.7455C47.7269 93.7455 47.9319 94.0294 47.9004 94.8652C47.79 96.2373 47.8215 97.6566 47.8531 99.0602ZM48.8624 90.2918C48.7629 90.4334 48.6265 90.545 48.468 90.6146C48.3095 90.6841 48.135 90.7088 47.9635 90.686H17.747C17.195 90.686 17.0531 90.481 17.0057 89.9606C16.5326 84.914 15.9964 79.8516 15.5233 74.7892C15.1606 71.0989 14.9398 67.3928 14.4982 63.7498C14.1971 60.6052 14.0812 57.4456 14.1513 54.2874C14.1229 53.6542 14.2252 53.0219 14.4517 52.4299C14.6782 51.8379 15.0241 51.2988 15.4679 50.8461C15.9116 50.3935 16.4438 50.037 17.0312 49.7988C17.6186 49.5606 18.2488 49.4459 18.8824 49.4616H29.2122C30.4293 49.4616 31.5966 49.9452 32.4573 50.8058C33.3179 51.6665 33.8014 52.8337 33.8014 54.0509C33.8014 55.268 33.3179 56.4353 32.4573 57.296C31.5966 58.1566 30.4293 58.6401 29.2122 58.6401H22.0839C20.8222 58.6401 20.286 59.1606 20.2703 60.438C20.2703 66.967 20.2703 73.5013 20.2703 80.0409C20.2682 80.6483 20.3863 81.2501 20.6178 81.8116C20.8492 82.3732 21.1895 82.8834 21.619 83.3129C22.0485 83.7424 22.5587 84.0827 23.1203 84.3142C23.6818 84.5456 24.2837 84.6637 24.891 84.6616C33.7857 84.6616 42.6645 84.6616 51.5749 84.6616H52.8366C51.433 86.5857 50.1556 88.4466 48.8624 90.2918ZM25.3011 81.4918C23.8502 81.4918 23.3455 80.9871 23.3298 79.552C23.3298 78.4323 23.3298 77.3125 23.3298 76.1928C23.2509 75.3728 23.6767 75.3728 24.2918 75.3728H46.7649C47.8846 75.3728 49.0201 75.3728 50.124 75.3728C50.6602 75.3728 50.9126 75.2781 50.9283 74.6473C50.9283 72.2975 50.9283 72.2975 48.61 72.2975C40.5355 72.2975 32.4767 72.2975 24.4022 72.2975C23.4875 72.2975 23.314 72.0294 23.3298 71.1778C23.3298 68.3075 23.3298 65.4373 23.3298 62.5828C23.3298 61.6996 23.5979 61.5419 24.4022 61.5419C26.6 61.6788 28.8055 61.626 30.9943 61.3842C32.8362 61.0304 34.4835 60.0107 35.6216 58.5198C36.7597 57.0289 37.309 55.1712 37.1647 53.3011C37.0204 51.431 36.1925 49.6795 34.8392 48.3808C33.4858 47.0822 31.7017 46.3273 29.8273 46.2602C27.9663 46.2602 26.1212 46.2602 24.2602 46.2602C23.5821 46.2602 23.3455 46.1498 23.3455 45.3771C23.3455 35.5888 23.3455 25.8005 23.3455 16.0122C23.3455 14.6244 23.8817 14.0882 25.2538 14.0882H61.2265C62.6301 14.0882 63.1506 14.6244 63.1506 15.9964C63.1506 26.0791 63.1506 36.1565 63.1506 46.2287C63.1506 46.8595 63.1505 47.0487 62.3936 46.7491C61.4652 46.3519 60.4522 46.1932 59.4468 46.2873C58.4415 46.3815 57.4756 46.7255 56.6371 47.2882C55.7986 47.8508 55.1141 48.6142 54.6459 49.5089C54.1777 50.4035 53.9406 51.4011 53.9563 52.4107C53.9563 57.0158 53.9563 61.605 53.9563 66.1943C54.0773 68.0424 54.5147 69.8561 55.2495 71.5563C56.3639 74.7104 57.4889 77.8645 58.6244 81.0186C58.6244 81.129 58.6244 81.2552 58.7348 81.476L25.3011 81.4918ZM68.5599 99.8961C67.519 99.8961 66.4466 99.8961 65.4057 99.8961C64.8853 99.8961 64.6645 99.8014 64.6803 99.2179C64.6803 96.6 64.6803 93.9821 64.6803 91.3326C64.6803 90.8595 64.7749 90.6229 65.3111 90.6387C66.4151 90.6387 67.5348 90.6387 68.6545 90.6387C69.1907 90.6387 69.3011 90.8595 69.2853 91.3326C69.2853 92.6258 69.2853 93.9348 69.2853 95.2437C69.2853 96.5527 69.2853 97.8143 69.2853 99.076C69.3011 99.6595 69.1907 99.9276 68.5599 99.8961ZM76.9498 99.1706C76.9498 99.7226 76.7921 99.9118 76.2402 99.8803C75.1678 99.8803 74.0796 99.8803 72.9914 99.8803C72.5025 99.8803 72.329 99.7383 72.329 99.2337C72.329 96.5842 72.329 93.9505 72.329 91.3484C72.329 90.9068 72.4868 90.7333 72.9283 90.7333C74.0533 90.7333 75.173 90.7333 76.2875 90.7333C76.7921 90.7333 76.9656 90.891 76.9498 91.3957C76.9498 92.7362 76.9498 94.0767 76.9498 95.4172C76.9498 96.7577 76.9025 97.909 76.9498 99.1706ZM84.5986 99.0444C84.5986 99.7384 84.3936 99.9276 83.747 99.8961C82.7219 99.8961 81.6968 99.8961 80.5928 99.8961C80.1355 99.8961 79.8989 99.8961 79.8989 99.281C79.8989 96.6315 79.8989 93.9821 79.8989 91.3957C79.8989 90.9857 79.9778 90.7491 80.4825 90.7491C81.6179 90.7491 82.7692 90.7491 83.9047 90.7491C84.3778 90.7491 84.504 90.9384 84.504 91.3799C84.504 92.7204 84.504 94.0609 84.504 95.4014C84.504 96.7419 84.5513 97.8143 84.5986 99.0444ZM92.2473 95.3541C92.2473 96.6315 92.2473 97.909 92.2473 99.1706C92.2473 99.7226 92.1054 99.9118 91.5534 99.8803C90.4652 99.8803 89.3928 99.8803 88.3047 99.8803C87.8 99.8803 87.6423 99.7383 87.6581 99.2337V91.3484C87.6581 90.9068 87.7842 90.7333 88.2574 90.7333C89.3613 90.7333 90.481 90.7333 91.6007 90.7333C92.0896 90.7333 92.2631 90.891 92.2473 91.3957C92.2316 92.6731 92.2473 94.0136 92.2473 95.3541ZM99.8961 66.4624C99.7034 68.177 99.2347 69.8493 98.5083 71.4143C96.7104 76.5398 94.8337 81.6495 93.0359 86.7907C92.7993 87.4215 92.5312 87.6738 91.8373 87.6581C82.9216 87.6581 74.0165 87.6581 65.1219 87.6581C64.8482 87.704 64.5674 87.6405 64.3402 87.4811C64.113 87.3218 63.9576 87.0794 63.9075 86.8064C61.8416 80.9556 59.7283 75.1204 57.5993 69.2695C57.1837 68.1326 56.9702 66.9317 56.9685 65.7211C56.9685 61.3211 56.9685 56.9211 56.9685 52.5211C56.9539 51.8828 57.1383 51.2557 57.4962 50.7269C57.8542 50.1982 58.3678 49.7939 58.9659 49.5703C59.564 49.3467 60.2168 49.3147 60.8339 49.479C61.4509 49.6432 62.0015 49.9954 62.4093 50.4867C62.8913 51.094 63.1327 51.8576 63.0875 52.6315C63.0875 56.3219 63.0875 60.028 63.0875 63.671C63.0875 64.4122 63.2925 64.633 64.0495 64.633C66.1627 64.633 66.1627 64.633 66.1627 62.5355V26.5154C66.1499 25.8565 66.3438 25.2101 66.7171 24.667C67.0905 24.1239 67.6246 23.7114 68.2445 23.4874C68.8336 23.2793 69.4727 23.2585 70.0741 23.428C70.6755 23.5974 71.2097 23.9487 71.6036 24.4337C72.1108 25.0955 72.3577 25.9203 72.2975 26.752V63.3082C72.2975 64.8853 72.0767 64.7118 73.7011 64.7276C75.3255 64.7434 75.357 64.7276 75.357 63.0717C75.357 61.1477 75.357 59.2237 75.357 57.3312C75.3135 56.9033 75.3602 56.4711 75.4942 56.0624C75.6281 55.6537 75.8463 55.2776 76.1346 54.9585C76.423 54.6394 76.775 54.3843 77.1681 54.2097C77.5611 54.0351 77.9864 53.9449 78.4165 53.9449C78.8466 53.9449 79.2719 54.0351 79.6649 54.2097C80.058 54.3843 80.41 54.6394 80.6984 54.9585C80.9867 55.2776 81.2049 55.6537 81.3388 56.0624C81.4728 56.4711 81.5195 56.9033 81.476 57.3312C81.476 59.5233 81.476 61.7312 81.476 63.9233C81.476 64.491 81.6179 64.6961 82.2172 64.7118C84.5355 64.7118 84.5355 64.7118 84.5355 62.4724C84.5355 61.1792 84.5355 59.9018 84.5355 58.6401C84.5206 58.2299 84.5888 57.8209 84.7361 57.4377C84.8834 57.0546 85.1066 56.7051 85.3925 56.4105C85.6783 56.1158 86.0207 55.882 86.3993 55.7232C86.7778 55.5643 87.1845 55.4836 87.595 55.486C88.415 55.5106 89.1932 55.8538 89.7644 56.4426C90.3356 57.0315 90.6549 57.8198 90.6545 58.6401C90.6545 60.8638 90.6545 63.1032 90.6545 65.3269C90.6545 65.9577 90.7649 66.2416 91.4903 66.2416C93.7298 66.2416 93.7298 66.2416 93.7298 64.0021C93.7298 62.7247 93.7298 61.4473 93.7298 60.1699C93.6995 59.7486 93.7564 59.3256 93.8969 58.9272C94.0373 58.5288 94.2584 58.1637 94.5461 57.8545C94.8339 57.5453 95.1823 57.2988 95.5696 57.1302C95.9569 56.9615 96.3748 56.8745 96.7971 56.8745C97.2195 56.8745 97.6374 56.9615 98.0247 57.1302C98.412 57.2988 98.7604 57.5453 99.0482 57.8545C99.336 58.1637 99.557 58.5288 99.6974 58.9272C99.8379 59.3256 99.8948 59.7486 99.8645 60.1699C99.9276 62.2358 99.9276 64.3333 99.8961 66.4624ZM58.5771 32.4452C58.5677 29.4165 57.6604 26.4586 55.97 23.9456C54.2796 21.4326 51.8819 19.4772 49.0802 18.3269C46.2785 17.1765 43.1986 16.8828 40.23 17.4828C37.2614 18.0829 34.5373 19.5497 32.4024 21.6979C30.2674 23.8461 28.8174 26.5792 28.2357 29.5515C27.654 32.5238 27.9668 35.6018 29.1344 38.3963C30.3021 41.1909 32.2722 43.5764 34.7956 45.2512C37.3191 46.9261 40.2825 47.8151 43.3111 47.8057C47.3686 47.7807 51.2513 46.1514 54.1116 43.2734C56.9718 40.3954 58.5772 36.5027 58.5771 32.4452ZM43.2638 44.7462C40.8389 44.7431 38.4695 44.0206 36.4554 42.6701C34.4413 41.3196 32.8732 39.402 31.9496 37.1599C31.026 34.9178 30.7883 32.452 31.2668 30.0748C31.7452 27.6975 32.9182 25.5157 34.6373 23.8055C36.3564 22.0952 38.5442 20.9335 40.9239 20.4673C43.3036 20.0011 45.7681 20.2515 48.0054 21.1866C50.2427 22.1218 52.1523 23.6998 53.4923 25.7208C54.8324 27.7417 55.5427 30.1149 55.5333 32.5398C55.5271 34.149 55.2041 35.7412 54.5825 37.2255C53.961 38.7098 53.0531 40.0572 51.9109 41.1907C50.7686 42.3241 49.4143 43.2215 47.9252 43.8316C46.4361 44.4417 44.8415 44.7525 43.2323 44.7462H43.2638Z" fill="#058054"/>
<path d="M97.4674 26.3735H89.2509C86.4438 26.3735 83.6366 26.3735 80.8294 26.3735C80.2617 26.3735 79.9778 26.2946 79.9778 25.6007C79.9778 23.2982 79.9778 23.2982 82.233 23.2982H97.7355L95.0703 20.7276C94.1241 19.7656 94.0925 20.0021 95.0703 18.9928C96.3635 17.6839 96.3792 17.6996 97.6882 18.9928L102.214 23.519C103.239 24.5441 103.224 25.2695 102.214 26.2946C100.464 28.0609 98.6818 29.8115 96.947 31.5935C96.537 32.0036 96.3004 32.0036 95.8746 31.5935C94.2975 30.0165 94.1871 30.0165 95.8746 28.2975C96.4266 27.7455 97.0101 27.2093 97.5936 26.7204L97.4674 26.3735Z" fill="#058054"/>
<path d="M83.6681 35.5677C89.4402 35.5677 94.8968 35.5677 100.353 35.5677C101.189 35.5677 101.489 35.757 101.457 36.6559C101.457 38.6588 101.457 38.6588 99.4703 38.6588H83.6997C84.7405 39.6996 85.5922 40.6143 86.5068 41.4502C87.0273 41.9391 87.1534 42.2387 86.5068 42.8064C84.9298 44.3046 84.9298 44.3835 83.3527 42.8064L79.0316 38.4695C78.8136 38.3259 78.6347 38.1304 78.5109 37.9005C78.3871 37.6707 78.3223 37.4137 78.3223 37.1527C78.3223 36.8916 78.3871 36.6347 78.5109 36.4048C78.6347 36.175 78.8136 35.9795 79.0316 35.8358C80.7979 34.038 82.5957 32.2717 84.362 30.4738C84.7879 30.0322 85.056 30.0165 85.5133 30.4738C87.0904 32.0509 87.0904 32.0509 85.5133 33.7068L83.6681 35.5677Z" fill="#058054"/>
<path d="M43.3584 17.1792C40.3238 17.1605 37.352 18.0438 34.8203 19.7171C32.2886 21.3904 30.3112 23.7782 29.139 26.5774C27.9669 29.3766 27.6529 32.461 28.2368 35.439C28.8208 38.417 30.2765 41.1543 32.419 43.3035C34.5615 45.4527 37.2943 46.9168 40.2705 47.51C43.2466 48.1032 46.3319 47.7988 49.1348 46.6353C51.9376 45.4719 54.3315 43.5019 56.0127 40.9754C57.6938 38.4489 58.5864 35.4798 58.5771 32.4452C58.5565 28.4109 56.948 24.547 54.0997 21.6899C51.2515 18.8328 47.3926 17.2123 43.3584 17.1792ZM43.2323 44.7462C40.8074 44.7431 38.4379 44.0206 36.4239 42.6701C34.4098 41.3196 32.8417 39.402 31.9181 37.1599C30.9945 34.9177 30.7568 32.452 31.2353 30.0748C31.7137 27.6975 32.8867 25.5157 34.6058 23.8055C36.3249 22.0952 38.5127 20.9335 40.8924 20.4673C43.2721 20.0011 45.7365 20.2514 47.9739 21.1866C50.2112 22.1218 52.1207 23.6998 53.4608 25.7208C54.8009 27.7417 55.5112 30.1149 55.5018 32.5398C55.4893 35.7842 54.1906 38.8912 51.8905 41.1795C49.5904 43.4678 46.4767 44.7504 43.2323 44.7462V44.7462Z" fill="#058054"/>
<path d="M43.3584 17.1792C40.3238 17.1605 37.352 18.0438 34.8203 19.7171C32.2886 21.3904 30.3112 23.7782 29.139 26.5774C27.9669 29.3766 27.6529 32.461 28.2368 35.439C28.8208 38.417 30.2765 41.1543 32.419 43.3035C34.5615 45.4527 37.2943 46.9168 40.2705 47.51C43.2466 48.1032 46.3319 47.7988 49.1348 46.6353C51.9376 45.4719 54.3315 43.5019 56.0127 40.9754C57.6938 38.4489 58.5864 35.4798 58.5771 32.4452C58.5565 28.4109 56.948 24.547 54.0997 21.6899C51.2515 18.8328 47.3926 17.2123 43.3584 17.1792ZM43.2323 44.7462C40.8074 44.7431 38.4379 44.0206 36.4239 42.6701C34.4098 41.3196 32.8417 39.402 31.9181 37.1599C30.9945 34.9177 30.7568 32.452 31.2353 30.0748C31.7137 27.6975 32.8867 25.5157 34.6058 23.8055C36.3249 22.0952 38.5127 20.9335 40.8924 20.4673C43.2721 20.0011 45.7365 20.2514 47.9739 21.1866C50.2112 22.1218 52.1207 23.6998 53.4608 25.7208C54.8009 27.7417 55.5112 30.1149 55.5018 32.5398C55.4893 35.7842 54.1906 38.8912 51.8905 41.1795C49.5904 43.4678 46.4767 44.7504 43.2323 44.7462V44.7462Z" fill="#058054"/>
<path d="M49.1147 30.5685H51.0545C51.2189 30.5869 51.3842 30.5415 51.5162 30.4418C51.6482 30.342 51.737 30.1955 51.7642 30.0323V29.7642C51.7164 29.5987 51.61 29.4562 51.4649 29.3634C51.3199 29.2705 51.1459 29.2336 50.9757 29.2595H48.957C48.8308 29.2595 48.7993 29.2595 48.7993 29.086V26.2473C48.8226 26.0271 48.8226 25.8051 48.7993 25.5849C48.7617 25.3846 48.6535 25.2044 48.4943 25.0771C48.3352 24.9498 48.1356 24.8838 47.9319 24.891C47.7378 24.8738 47.544 24.9262 47.385 25.0389C47.2261 25.1516 47.1125 25.3172 47.0645 25.5061C46.9943 25.7521 46.9624 26.0074 46.9699 26.2631V29.1018C46.9699 29.1964 46.9699 29.2595 46.828 29.2595C45.4717 29.2595 44.0997 29.2595 42.7434 29.2595C42.6488 29.2595 42.6015 29.2595 42.5384 29.1333L41.9706 28.2502C41.3556 27.3513 40.7721 26.4366 40.1728 25.5219C40.0435 25.2945 39.8476 25.1124 39.6114 25C39.3753 24.8876 39.1103 24.8503 38.8524 24.8933C38.5944 24.9363 38.3559 25.0575 38.169 25.2404C37.982 25.4233 37.8558 25.6592 37.8072 25.9161C37.7831 26.1679 37.7831 26.4214 37.8072 26.6731C37.8072 27.4774 37.8072 28.2502 37.8072 29.086C37.8072 29.228 37.8072 29.2595 37.6337 29.2595H35.4258C35.2897 29.257 35.156 29.2966 35.0432 29.3728C34.9303 29.4489 34.8436 29.5581 34.795 29.6853C34.7612 29.7831 34.752 29.8877 34.7682 29.9899C34.7844 30.0921 34.8254 30.1887 34.8877 30.2713C34.9501 30.3539 35.0317 30.4198 35.1256 30.4634C35.2194 30.507 35.3225 30.5268 35.4258 30.5211C36.1355 30.5211 36.8452 30.5211 37.5549 30.5211C37.6653 30.5211 37.6968 30.5211 37.681 30.6631C37.681 31.3097 37.681 31.9405 37.681 32.5871C37.681 32.729 37.681 32.7448 37.5076 32.7448H35.4574C35.3001 32.7355 35.1444 32.78 35.0158 32.871C34.9118 32.9496 34.8347 33.0586 34.7952 33.1828C34.7556 33.3071 34.7556 33.4406 34.795 33.5649C34.8329 33.6939 34.912 33.8069 35.0203 33.8866C35.1285 33.9664 35.2599 34.0085 35.3943 34.0065H37.5391C37.6653 34.0065 37.6968 34.0065 37.6968 34.1642C37.6968 35.2523 37.6968 36.3405 37.6968 37.4287C37.6735 37.6436 37.6735 37.8604 37.6968 38.0753C37.7332 38.2759 37.8379 38.4578 37.9931 38.59C38.1483 38.7223 38.3445 38.7967 38.5484 38.8007C38.7465 38.821 38.9455 38.7725 39.1121 38.6634C39.2787 38.5543 39.4026 38.3911 39.4631 38.2014C39.5546 37.9547 39.5922 37.6912 39.5735 37.4287V34.1484C39.5735 34.0222 39.5735 33.9907 39.7312 33.9907H43.4373C43.4784 33.9882 43.5193 33.9971 43.5555 34.0167C43.5918 34.0362 43.6218 34.0654 43.6423 34.1011C43.9262 34.5584 44.2258 35 44.5097 35.4416C45.109 36.3405 45.6452 37.271 46.3076 38.1068C46.4509 38.3135 46.6417 38.483 46.8639 38.6009C47.0862 38.7189 47.3334 38.782 47.585 38.7849C47.7177 38.805 47.8531 38.7983 47.9832 38.7653C48.1133 38.7324 48.2356 38.6738 48.3428 38.593C48.45 38.5123 48.54 38.4109 48.6075 38.2949C48.6751 38.179 48.7188 38.0507 48.7362 37.9176C48.7596 37.6763 48.7596 37.4334 48.7362 37.1921V34.1326C48.7362 34.0222 48.7362 33.9907 48.8624 33.9907C49.5405 33.9907 50.2187 33.9907 50.881 33.9907C51.0534 34.0173 51.2295 33.9809 51.3772 33.8882C51.5249 33.7955 51.6343 33.6528 51.6853 33.486V33.2337C51.6583 33.0722 51.5725 32.9264 51.4444 32.8245C51.3162 32.7225 51.1549 32.6717 50.9914 32.6817H49.1147C48.9097 32.6817 48.8939 32.6817 48.8939 32.4609V30.805C48.8466 30.5685 48.8466 30.5685 49.1147 30.5685ZM39.6524 27.9978L40.4724 29.2437H39.6524H39.5735C39.6524 28.7864 39.6524 28.3921 39.6524 27.9978ZM42.7119 32.729H39.7785C39.6524 32.729 39.6208 32.729 39.6208 32.5871V30.6473C39.6208 30.5369 39.6208 30.5054 39.747 30.5054C40.2201 30.5054 40.709 30.5054 41.1821 30.5054C41.213 30.5032 41.244 30.5094 41.2717 30.5233C41.2995 30.5371 41.323 30.5582 41.3398 30.5842L42.7119 32.6817V32.729ZM46.9068 35.7728L45.724 33.9749H46.8753C46.8753 33.9749 46.8753 33.9749 46.8753 34.0538L46.9068 35.7728ZM46.9068 32.6186C46.9068 32.7133 46.9068 32.7448 46.7807 32.7448H44.9828C44.904 32.7448 44.8567 32.7448 44.8093 32.7448L43.39 30.5842H46.7649C46.8911 30.5842 46.9068 30.5842 46.9068 30.7419V32.6186Z" fill="#058054"/>
</svg>
