<svg width="80" height="80" viewBox="0 0 80 80" fill="none" xmlns="http://www.w3.org/2000/svg">
<mask id="mask0_33_97" style="mask-type:alpha" maskUnits="userSpaceOnUse" x="0" y="0" width="80" height="80">
<rect width="80" height="80" fill="#D9D9D9"/>
</mask>
<g mask="url(#mask0_33_97)">
<path d="M45 48.5C45.6667 48.5 46.2645 48.2356 46.7934 47.7067C47.32 47.18 47.5834 46.5556 47.5834 45.8333C47.5834 45.1667 47.32 44.5689 46.7934 44.04C46.2645 43.5133 45.6667 43.25 45 43.25C44.3334 43.25 43.7367 43.5133 43.21 44.04C42.6811 44.5689 42.4167 45.1667 42.4167 45.8333C42.4167 46.5556 42.6811 47.18 43.21 47.7067C43.7367 48.2356 44.3334 48.5 45 48.5ZM43.5 39.0833H46.5C46.5556 37.6944 46.7645 36.6389 47.1267 35.9167C47.4867 35.1944 48.3334 34.2222 49.6667 33C51.1111 31.6667 52.1111 30.5 52.6667 29.5C53.2222 28.5 53.5 27.3611 53.5 26.0833C53.5 23.8056 52.6945 21.9167 51.0834 20.4167C49.4722 18.9167 47.4445 18.1667 45 18.1667C43.1667 18.1667 41.5278 18.6667 40.0834 19.6667C38.6389 20.6667 37.5278 22.0556 36.75 23.8333L39.5 25C40.1111 23.6667 40.8756 22.68 41.7934 22.04C42.7089 21.4022 43.7778 21.0833 45 21.0833C46.6111 21.0833 47.9311 21.5556 48.96 22.5C49.9867 23.4444 50.5 24.6667 50.5 26.1667C50.5 27.0556 50.25 27.8889 49.75 28.6667C49.25 29.4444 48.3889 30.3889 47.1667 31.5C45.7222 32.7222 44.75 33.8467 44.25 34.8733C43.75 35.9022 43.5 37.3056 43.5 39.0833ZM27.0834 56.6667C25.5278 56.6667 24.2367 56.1533 23.21 55.1267C22.1811 54.0978 21.6667 52.8056 21.6667 51.25V15.4167C21.6667 13.8611 22.1811 12.5689 23.21 11.54C24.2367 10.5133 25.5278 10 27.0834 10H62.9167C64.4722 10 65.7645 10.5133 66.7934 11.54C67.82 12.5689 68.3334 13.8611 68.3334 15.4167V51.25C68.3334 52.8056 67.82 54.0978 66.7934 55.1267C65.7645 56.1533 64.4722 56.6667 62.9167 56.6667H27.0834ZM27.0834 53.3333H62.9167C63.4722 53.3333 63.9578 53.1244 64.3734 52.7067C64.7911 52.2911 65 51.8056 65 51.25V15.4167C65 14.8611 64.7911 14.3756 64.3734 13.96C63.9578 13.5422 63.4722 13.3333 62.9167 13.3333H27.0834C26.5278 13.3333 26.0422 13.5422 25.6267 13.96C25.2089 14.3756 25 14.8611 25 15.4167V51.25C25 51.8056 25.2089 52.2911 25.6267 52.7067C26.0422 53.1244 26.5278 53.3333 27.0834 53.3333ZM17.0834 66.6667C15.5278 66.6667 14.2356 66.1533 13.2067 65.1267C12.18 64.0978 11.6667 62.8056 11.6667 61.25V22.0833H15V61.25C15 61.8056 15.2089 62.2911 15.6267 62.7067C16.0422 63.1244 16.5278 63.3333 17.0834 63.3333H56.25V66.6667H17.0834Z" fill="#4771FF"/>
</g>
</svg>
