<svg width="32" height="32" viewBox="0 0 32 32" fill="none" xmlns="http://www.w3.org/2000/svg">
<mask id="mask0_2001_5" style="mask-type:alpha" maskUnits="userSpaceOnUse" x="0" y="0" width="32" height="32">
<rect width="32" height="32" fill="#D9D9D9"/>
</mask>
<g mask="url(#mask0_2001_5)">
<path d="M12.7667 20.1334L16 17.6667L19.1667 20.1L17.9667 16.1667L21.2667 13.6H17.3L16 9.63336L14.7 13.6H10.7333L13.9667 16.1667L12.7667 20.1334ZM16 28.6334C13.1111 27.8556 10.7222 26.1614 8.83333 23.5507C6.94444 20.9391 6 18.0222 6 14.8V7.13336L16 3.40002L26 7.13336V14.8C26 18.0222 25.0556 20.9391 23.1667 23.5507C21.2778 26.1614 18.8889 27.8556 16 28.6334ZM16 26.5334C18.3111 25.8 20.2222 24.3334 21.7333 22.1334C23.2444 19.9334 24 17.4889 24 14.8V8.50002L16 5.50002L8 8.50002V14.8C8 17.4889 8.75556 19.9334 10.2667 22.1334C11.7778 24.3334 13.6889 25.8 16 26.5334Z" fill="#058054"/>
</g>
</svg>
