<svg width="32" height="32" viewBox="0 0 32 32" fill="none" xmlns="http://www.w3.org/2000/svg">
<mask id="mask0_2001_228" style="mask-type:alpha" maskUnits="userSpaceOnUse" x="0" y="0" width="32" height="32">
<rect width="32" height="32" fill="#D9D9D9"/>
</mask>
<g mask="url(#mask0_2001_228)">
<path d="M24.3667 11.5666L23.0333 8.66664L20.1333 7.33331L23.0333 5.99998L24.3667 3.09998L25.7333 5.99998L28.6 7.33331L25.7333 8.66664L24.3667 11.5666ZM27.0333 21.1L26.0667 19L23.9333 18L26.0667 17L27.0333 14.9L28.0333 17L30.1333 18L28.0333 19L27.0333 21.1ZM10.3 28.6666L9.93333 25.7333C9.66667 25.6444 9.39467 25.5164 9.11733 25.3493C8.83911 25.1831 8.62222 25.0111 8.46667 24.8333L5.73333 26.0333L3 21.2333L5.36667 19.5C5.32222 19.1889 5.3 18.9111 5.3 18.6666C5.3 18.4222 5.32222 18.1444 5.36667 17.8333L3 16.1L5.73333 11.3L8.46667 12.5C8.62222 12.3222 8.83911 12.1498 9.11733 11.9826C9.39467 11.8164 9.66667 11.6889 9.93333 11.6L10.3 8.66664H15.8L16.1667 11.6C16.4111 11.6889 16.6724 11.8164 16.9507 11.9826C17.228 12.1498 17.4556 12.3222 17.6333 12.5L20.3667 11.3L23.1 16.1L20.7333 17.8333C20.7778 18.1444 20.8 18.4222 20.8 18.6666C20.8 18.9111 20.7778 19.1889 20.7333 19.5L23.1 21.2333L20.3667 26.0333L17.6333 24.8333C17.4556 25.0111 17.228 25.1831 16.9507 25.3493C16.6724 25.5164 16.4111 25.6444 16.1667 25.7333L15.8 28.6666H10.3ZM13.0333 22.3C14.0556 22.3 14.9222 21.9502 15.6333 21.2506C16.3444 20.5502 16.7 19.6889 16.7 18.6666C16.7 17.6666 16.3444 16.8111 15.6333 16.1C14.9222 15.3889 14.0556 15.0333 13.0333 15.0333C12.0333 15.0333 11.1778 15.3831 10.4667 16.0826C9.75556 16.7831 9.4 17.6444 9.4 18.6666C9.4 19.6666 9.75556 20.5222 10.4667 21.2333C11.1778 21.9444 12.0333 22.3 13.0333 22.3ZM13.0333 20.3C12.5889 20.3 12.2058 20.1391 11.884 19.8173C11.5613 19.4946 11.4 19.1111 11.4 18.6666C11.4 18.2222 11.5613 17.8386 11.884 17.516C12.2058 17.1942 12.5889 17.0333 13.0333 17.0333C13.5 17.0333 13.8947 17.1942 14.2173 17.516C14.5391 17.8386 14.7 18.2222 14.7 18.6666C14.7 19.1111 14.5391 19.4946 14.2173 19.8173C13.8947 20.1391 13.5 20.3 13.0333 20.3ZM12.0333 26.6666H14.0333L14.3 24.2666C14.9444 24.0889 15.4947 23.8613 15.9507 23.584C16.4058 23.3058 16.8556 22.9333 17.3 22.4666L19.5 23.4666L20.4667 21.7666L18.5 20.3333C18.7 19.8222 18.8 19.2666 18.8 18.6666C18.8 18.0666 18.7 17.5111 18.5 17L20.4333 15.5333L19.5 13.8666L17.3 14.8666C16.8556 14.4 16.4058 14.0275 15.9507 13.7493C15.4947 13.472 14.9444 13.2444 14.3 13.0666L14.0333 10.6666H12.0333L11.7667 13.0666C11.1222 13.2444 10.5724 13.472 10.1173 13.7493C9.66133 14.0275 9.21111 14.4 8.76667 14.8666L6.56667 13.8666L5.63333 15.5333L7.56667 17C7.38889 17.5111 7.29467 18.0666 7.284 18.6666C7.27244 19.2666 7.36667 19.8222 7.56667 20.3333L5.63333 21.7666L6.56667 23.4666L8.76667 22.4666C9.21111 22.9333 9.66133 23.3058 10.1173 23.584C10.5724 23.8613 11.1222 24.0889 11.7667 24.2666L12.0333 26.6666Z" fill="#4771FF"/>
</g>
</svg>
